<svg xmlns="http://www.w3.org/2000/svg" xmlns:xlink="http://www.w3.org/1999/xlink" width="1080" zoomAndPan="magnify" viewBox="0 0 810 809.999993" height="1080" preserveAspectRatio="xMidYMid meet" version="1.0"><defs><g/><clipPath id="051c24c975"><rect x="0" width="210" y="0" height="452"/></clipPath></defs><g transform="matrix(1, 0, 0, 1, 384, 241)"><g clip-path="url(#051c24c975)"><g fill="#006128" fill-opacity="1"><g transform="translate(20.999983, 294.27414)"><g><path d="M 164.894531 -247.003906 C 166.917969 -244.113281 168.679688 -240.691406 170.175781 -236.746094 C 171.460938 -233.359375 172.464844 -230.335938 173.195312 -227.671875 L 161.84375 -224.578125 L 172.703125 -229.101562 C 174.980469 -223.636719 175.210938 -218.632812 173.394531 -214.09375 C 173.570312 -214.535156 173.664062 -214.855469 173.671875 -215.050781 C 173.65625 -214.667969 173.699219 -214.109375 173.804688 -213.378906 L 173.921875 -212.550781 L 173.921875 -206.53125 L 170.476562 -203.085938 C 171.167969 -203.777344 171.691406 -204.480469 172.050781 -205.203125 L 171.425781 -203.945312 L 160.90625 -209.207031 L 172.546875 -210.871094 L 173.609375 -203.457031 L 173.609375 -202.621094 C 173.609375 -200.558594 173.140625 -198.597656 172.210938 -196.734375 C 172.933594 -198.179688 173.292969 -199.621094 173.292969 -201.050781 L 161.53125 -201.050781 L 173.285156 -201.542969 C 173.527344 -195.671875 172.949219 -188.765625 171.546875 -180.816406 C 170.558594 -175.386719 168.921875 -169.839844 166.632812 -164.179688 C 164.410156 -158.675781 161.664062 -153.242188 158.40625 -147.886719 L 148.359375 -154.003906 L 159.769531 -151.152344 L 159.144531 -148.644531 L 158.566406 -147.488281 C 158.097656 -146.554688 157.054688 -144.574219 155.433594 -141.550781 C 153.945312 -138.769531 152.558594 -136.046875 151.273438 -133.375 C 150.71875 -132.222656 150.324219 -131.351562 150.089844 -130.757812 L 150.0625 -130.714844 C 150.285156 -131.488281 150.398438 -132.351562 150.398438 -133.304688 L 150.398438 -130.527344 L 149.15625 -128.042969 C 146.140625 -122.011719 142.753906 -115.667969 138.996094 -109.015625 C 135.511719 -102.839844 132.378906 -96.671875 129.59375 -90.507812 C 127.378906 -85.632812 124.945312 -80.769531 122.300781 -75.917969 C 119.859375 -71.441406 117.519531 -66.964844 115.28125 -62.488281 L 114.425781 -60.78125 L 113.078125 -59.433594 C 113.417969 -59.773438 113.699219 -60.109375 113.921875 -60.441406 C 115.027344 -62.101562 115.582031 -64.015625 115.582031 -66.179688 C 115.582031 -67.035156 115.433594 -67.910156 115.136719 -68.804688 C 115.640625 -67.28125 115.894531 -65.675781 115.894531 -63.984375 L 115.894531 -60.214844 L 113.703125 -57.148438 C 112.535156 -55.511719 111.257812 -53.824219 109.867188 -52.089844 C 108.691406 -50.617188 107.511719 -49.09375 106.328125 -47.519531 L 96.917969 -54.574219 L 108.078125 -50.855469 C 107.074219 -47.84375 105.707031 -45.476562 103.980469 -43.75 L 95.664062 -52.066406 L 107.335938 -53.527344 C 107.734375 -50.332031 107.21875 -47.308594 105.792969 -44.453125 C 104.597656 -42.066406 102.84375 -40.003906 100.527344 -38.265625 C 100.378906 -38.15625 100.269531 -38.058594 100.203125 -37.980469 C 100.203125 -37.984375 100.210938 -37.996094 100.226562 -38.023438 L 100.078125 -37.730469 L 98.28125 -34.585938 L 87.9375 -20.960938 C 84.792969 -16.800781 81.796875 -12.6875 78.953125 -8.625 L 72.617188 0.25 L 63.042969 -6.585938 L 73.257812 -0.75 C 71.84375 1.722656 69.773438 4.25 67.042969 6.828125 C 65.5 8.28125 64.359375 9.457031 63.613281 10.351562 L 63.269531 10.761719 L 62.578125 11.453125 C 60.074219 13.960938 57.144531 15.210938 53.792969 15.210938 L 53.636719 15.210938 L 53.636719 3.449219 L 60.984375 12.636719 L 59.414062 13.890625 L 52.066406 4.703125 L 60.382812 13.023438 C 57.175781 16.230469 53.679688 18.308594 49.902344 19.253906 L 48.496094 19.605469 L 47.046875 19.605469 C 44.4375 19.605469 41.304688 19.359375 37.652344 18.875 C 32.167969 18.140625 27.703125 16.265625 24.246094 13.242188 L 31.992188 4.390625 L 26.734375 14.910156 L 23.144531 13.117188 L 20.851562 10.828125 C 21.117188 11.089844 21.402344 11.3125 21.707031 11.496094 C 19.671875 10.277344 17.957031 8.617188 16.558594 6.523438 L 26.347656 0 L 23.117188 11.308594 C 20.429688 10.542969 18.121094 9.191406 16.1875 7.257812 C 14.382812 5.453125 13.054688 3.28125 12.207031 0.738281 C 11.929688 -0.09375 11.566406 -0.902344 11.117188 -1.691406 C 11.070312 -1.765625 10.96875 -1.878906 10.816406 -2.035156 C 9.671875 -3.175781 8.546875 -4.441406 7.4375 -5.824219 L 6.867188 -6.542969 L 6.410156 -7.335938 C 5.597656 -8.757812 4.683594 -10.335938 3.664062 -12.070312 C 2.480469 -14.078125 1.308594 -16.246094 0.144531 -18.578125 C -3.601562 -26.066406 -5.972656 -33.933594 -6.972656 -42.183594 C -7.867188 -49.554688 -8.3125 -56.925781 -8.3125 -64.300781 L -8.3125 -64.566406 L -8.300781 -64.832031 C -8.082031 -69.589844 -7.761719 -74.5 -7.328125 -79.566406 C -6.898438 -84.617188 -6.363281 -89.820312 -5.71875 -95.183594 L -3.476562 -115.046875 L -3.378906 -115.535156 C -3.542969 -114.71875 -3.46875 -113.761719 -3.15625 -112.664062 C -3.941406 -115.414062 -3.972656 -118.226562 -3.257812 -121.101562 L 8.15625 -118.246094 L -3.605469 -118.246094 L -3.605469 -125.304688 C -3.605469 -127.382812 -3.699219 -129.515625 -3.878906 -131.699219 L -3.953125 -132.589844 L -2.617188 -152.003906 L -2.574219 -152.328125 C -2.347656 -154.160156 -2.0625 -156.09375 -1.722656 -158.132812 C -1.445312 -159.804688 -1.210938 -161.476562 -1.027344 -163.144531 C -0.398438 -168.371094 0.171875 -173.511719 0.6875 -178.566406 C 1.203125 -183.628906 1.667969 -188.539062 2.082031 -193.289062 L 13.800781 -192.269531 L 2.039062 -192.269531 L 2.039062 -193.152344 L 3.050781 -203.601562 L 3.070312 -203.765625 C 3.21875 -204.953125 3.292969 -206.140625 3.292969 -207.324219 L 3.292969 -212.761719 L 3.324219 -213.183594 C 3.511719 -215.832031 3.605469 -218.425781 3.605469 -220.96875 C 3.605469 -223.085938 3.460938 -224.945312 3.167969 -226.550781 L 2.980469 -227.59375 L 2.980469 -228.652344 C 2.980469 -227.800781 3.128906 -226.925781 3.425781 -226.03125 C 2.917969 -227.554688 2.664062 -229.054688 2.664062 -230.535156 L 14.429688 -230.535156 L 2.800781 -228.746094 L 2.175781 -232.824219 L 13.800781 -234.613281 L 3.28125 -229.351562 C 2.242188 -231.425781 1.726562 -233.496094 1.726562 -235.554688 C 1.726562 -232.515625 2.769531 -229.953125 4.855469 -227.863281 L 1.410156 -231.308594 L 1.410156 -236.183594 C 1.410156 -233.5625 2.457031 -231.207031 4.542969 -229.121094 L 1.097656 -232.5625 L 1.097656 -246.71875 L 11.761719 -256.414062 L 16.625 -256.414062 C 14.878906 -256.414062 13.203125 -256.011719 11.597656 -255.210938 C 9.761719 -254.292969 8.273438 -252.976562 7.132812 -251.261719 C 5.828125 -249.308594 5.175781 -247.15625 5.175781 -244.808594 C 5.175781 -247.207031 5.839844 -249.40625 7.171875 -251.398438 C 8.339844 -253.152344 9.867188 -254.5 11.753906 -255.445312 C 13.464844 -256.300781 15.296875 -256.726562 17.25 -256.726562 L 18.191406 -256.726562 L 18.191406 -244.964844 L 13.414062 -255.710938 C 16.816406 -257.226562 20.292969 -257.980469 23.835938 -257.980469 L 23.835938 -246.21875 L 17.09375 -255.855469 C 20.03125 -257.910156 23.132812 -259.535156 26.40625 -260.722656 C 29.328125 -261.785156 32.265625 -262.585938 35.222656 -263.125 L 35.835938 -263.234375 L 49.53125 -264.25 L 53.140625 -261.363281 C 54.394531 -260.363281 55.742188 -259.195312 57.191406 -257.867188 C 59.144531 -256.078125 60.804688 -254.160156 62.167969 -252.117188 L 64.140625 -249.152344 L 64.140625 -244.964844 L 52.378906 -244.964844 L 61.703125 -252.136719 C 64.65625 -248.296875 66.761719 -244.339844 68.011719 -240.269531 L 56.769531 -236.808594 L 67.402344 -241.84375 C 69.78125 -236.824219 71.367188 -231.648438 72.167969 -226.320312 L 72.296875 -225.453125 L 72.296875 -220.183594 C 72.296875 -223.222656 71.203125 -225.839844 69.007812 -228.03125 L 72.609375 -224.429688 L 72.609375 -196.347656 C 72.609375 -191.675781 72.445312 -187.007812 72.109375 -182.335938 C 71.789062 -177.835938 71.414062 -173.4375 70.984375 -169.144531 L 59.28125 -170.3125 L 71.015625 -169.53125 L 70.667969 -164.328125 L 67.144531 -141.25 L 55.515625 -143.027344 L 67.277344 -143.027344 C 67.277344 -136.5 66.699219 -129.875 65.539062 -123.148438 L 62.398438 -105.238281 L 60.757812 -95.390625 L 60.617188 -94.867188 C 59.96875 -92.402344 59.855469 -89.644531 60.269531 -86.589844 C 60.941406 -81.679688 61.386719 -77.183594 61.613281 -73.105469 L 61.632812 -72.78125 L 61.632812 -72.453125 C 61.632812 -71.097656 61.683594 -68.59375 61.785156 -64.9375 C 61.894531 -61.066406 61.945312 -57.089844 61.945312 -53.007812 L 50.183594 -53.007812 L 61.929688 -53.625 C 62.144531 -49.566406 62.304688 -45.765625 62.410156 -42.230469 C 62.457031 -40.6875 62.515625 -39.496094 62.578125 -38.660156 C 62.601562 -38.382812 62.617188 -38.191406 62.632812 -38.089844 C 62.578125 -38.480469 62.460938 -38.941406 62.285156 -39.476562 L 63.273438 -36.511719 L 62.660156 -33.449219 C 62.671875 -33.511719 62.679688 -33.554688 62.679688 -33.574219 C 62.675781 -33.503906 62.679688 -33.40625 62.691406 -33.28125 C 62.757812 -32.476562 62.851562 -31.769531 62.972656 -31.164062 L 63.039062 -30.84375 L 63.082031 -30.519531 C 63.113281 -30.316406 63.207031 -30.050781 63.371094 -29.726562 C 62.804688 -30.855469 61.929688 -31.816406 60.746094 -32.605469 C 59.320312 -33.554688 57.785156 -34.03125 56.144531 -34.03125 C 55.128906 -34.03125 54.003906 -33.722656 52.765625 -33.105469 L 53.203125 -33.324219 L 53.65625 -33.503906 L 53.652344 -33.523438 C 53.910156 -33.675781 54.222656 -33.890625 54.585938 -34.167969 C 55.585938 -34.921875 56.773438 -35.964844 58.148438 -37.300781 C 61.210938 -40.269531 65.191406 -44.886719 70.085938 -51.152344 L 79.355469 -43.910156 L 69.566406 -50.4375 L 70.824219 -52.316406 L 80.609375 -45.792969 L 68.847656 -45.792969 C 68.847656 -49.460938 70.101562 -52.546875 72.605469 -55.050781 L 80.921875 -46.734375 L 71.136719 -53.257812 L 74.589844 -58.441406 L 74.957031 -58.886719 C 76.59375 -60.890625 78.144531 -62.988281 79.605469 -65.179688 C 81.148438 -67.492188 82.589844 -69.800781 83.9375 -72.109375 L 84.703125 -73.421875 L 85.777344 -74.5 C 83.691406 -72.410156 82.648438 -69.847656 82.648438 -66.808594 L 82.648438 -70.183594 L 84.4375 -73.042969 C 85.425781 -74.625 86.417969 -76.261719 87.410156 -77.949219 C 88.320312 -79.496094 89.132812 -80.984375 89.847656 -82.417969 L 100.371094 -77.160156 L 89.449219 -81.527344 L 90.359375 -83.804688 L 90.734375 -84.472656 C 93.601562 -89.59375 96.417969 -94.816406 99.183594 -100.144531 C 101.828125 -105.238281 104.125 -110.21875 106.070312 -115.089844 L 116.992188 -110.71875 L 105.230469 -110.71875 L 105.230469 -114.167969 L 106.253906 -116.460938 C 110.390625 -125.71875 113.738281 -135.121094 116.296875 -144.660156 C 118.890625 -154.335938 120.886719 -164.164062 122.28125 -174.140625 L 122.402344 -175 L 122.644531 -175.828125 C 123.453125 -178.574219 123.929688 -180.988281 124.078125 -183.070312 L 124.109375 -183.484375 L 124.796875 -188.289062 C 125.179688 -190.960938 125.464844 -193.53125 125.652344 -195.996094 C 125.839844 -198.414062 125.933594 -200.726562 125.933594 -202.933594 L 125.933594 -203.355469 L 125.960938 -203.773438 C 126.140625 -206.257812 126.183594 -208.535156 126.097656 -210.601562 C 125.988281 -213.273438 125.933594 -215.734375 125.933594 -217.988281 L 125.933594 -219.277344 L 126.40625 -222.117188 L 138.007812 -220.183594 L 126.246094 -220.183594 C 126.246094 -222.710938 126.550781 -224.894531 127.164062 -226.726562 L 138.320312 -223.007812 L 126.648438 -221.550781 C 126.453125 -223.125 126.203125 -224.914062 125.90625 -226.910156 C 125.632812 -228.730469 125.316406 -230.445312 124.957031 -232.0625 L 136.441406 -234.613281 L 125.207031 -231.128906 L 122.015625 -241.410156 L 121.902344 -242.644531 C 121.828125 -243.472656 121.597656 -244.269531 121.214844 -245.035156 L 120.636719 -246.191406 L 118.441406 -254.972656 L 129.851562 -257.824219 L 120.441406 -250.765625 C 119.96875 -251.398438 119.578125 -251.890625 119.277344 -252.246094 C 119.195312 -252.339844 119.136719 -252.40625 119.105469 -252.4375 C 119.203125 -252.339844 119.335938 -252.21875 119.5 -252.082031 C 117.160156 -254.03125 115.53125 -256.378906 114.617188 -259.121094 L 125.777344 -262.84375 L 118.71875 -253.433594 C 114.746094 -256.414062 112.757812 -260.175781 112.757812 -264.722656 C 112.757812 -267.152344 113.429688 -269.371094 114.773438 -271.386719 C 115.953125 -273.15625 117.503906 -274.523438 119.417969 -275.480469 C 121.175781 -276.359375 123.085938 -276.800781 125.148438 -276.800781 L 125.460938 -276.800781 L 125.460938 -265.039062 L 120.203125 -275.558594 C 119.898438 -275.40625 119.507812 -275.089844 119.027344 -274.609375 C 120.980469 -276.5625 123.429688 -277.910156 126.371094 -278.644531 L 127.777344 -278.996094 L 129.226562 -278.996094 C 133.308594 -278.996094 137.335938 -277.011719 141.304688 -273.042969 L 132.988281 -264.722656 L 138.25 -275.246094 C 138.375 -275.179688 139.59375 -274.6875 141.90625 -273.761719 C 143.570312 -273.097656 144.925781 -272.492188 145.96875 -271.953125 C 148.941406 -270.410156 151.046875 -268.398438 152.292969 -265.90625 L 141.773438 -260.648438 L 149.773438 -269.265625 C 153.519531 -265.789062 156.773438 -261.746094 159.542969 -257.132812 C 161.941406 -253.132812 164.0625 -249.179688 165.902344 -245.265625 L 155.257812 -240.257812 Z M 145.621094 -233.515625 L 145.046875 -234.339844 L 144.617188 -235.25 C 143.113281 -238.449219 141.363281 -241.707031 139.371094 -245.027344 C 137.746094 -247.734375 135.878906 -250.066406 133.769531 -252.027344 L 132.207031 -253.480469 L 131.25 -255.386719 C 132.074219 -253.738281 133.1875 -252.417969 134.582031 -251.425781 C 134.824219 -251.253906 135.011719 -251.136719 135.140625 -251.066406 C 134.777344 -251.257812 134.121094 -251.542969 133.167969 -251.921875 C 130.253906 -253.089844 128.4375 -253.847656 127.730469 -254.203125 L 126.023438 -255.058594 L 124.671875 -256.40625 C 124.46875 -256.613281 124.296875 -256.773438 124.160156 -256.890625 C 124.132812 -256.914062 124.117188 -256.925781 124.113281 -256.929688 C 124.152344 -256.898438 124.207031 -256.863281 124.269531 -256.820312 C 125.617188 -255.921875 127.269531 -255.472656 129.226562 -255.472656 L 129.226562 -267.234375 L 132.078125 -255.824219 C 133.347656 -256.140625 134.542969 -256.859375 135.660156 -257.976562 C 134.34375 -256.65625 132.695312 -255.503906 130.722656 -254.515625 L 128.238281 -253.277344 L 125.148438 -253.277344 C 126.789062 -253.277344 128.386719 -253.664062 129.9375 -254.4375 C 131.75 -255.34375 133.21875 -256.644531 134.347656 -258.335938 C 135.636719 -260.273438 136.28125 -262.402344 136.28125 -264.722656 C 136.28125 -266.785156 135.730469 -268.644531 134.621094 -270.308594 C 134.085938 -271.113281 133.488281 -271.761719 132.832031 -272.253906 L 135.773438 -270.046875 L 136.933594 -266.5625 C 136.4375 -268.050781 135.644531 -269.246094 134.558594 -270.152344 C 135.890625 -269.042969 137.457031 -267.285156 139.261719 -264.882812 L 140.6875 -262.980469 L 143.144531 -253.148438 L 131.734375 -250.296875 L 142.253906 -255.554688 C 143.960938 -252.140625 144.988281 -248.546875 145.332031 -244.773438 L 133.617188 -243.710938 L 144.851562 -247.195312 L 147.816406 -237.636719 L 147.921875 -237.164062 C 148.398438 -235.015625 148.816406 -232.761719 149.167969 -230.398438 C 149.496094 -228.210938 149.773438 -226.234375 149.992188 -224.46875 L 150.324219 -221.820312 L 149.480469 -219.289062 C 149.636719 -219.761719 149.738281 -220.179688 149.777344 -220.53125 C 149.773438 -220.496094 149.769531 -220.378906 149.769531 -220.183594 L 149.769531 -219.210938 L 149.296875 -216.371094 L 137.695312 -218.304688 L 149.457031 -218.304688 L 149.457031 -217.988281 C 149.457031 -216.0625 149.503906 -213.925781 149.601562 -211.578125 C 149.726562 -208.625 149.667969 -205.464844 149.425781 -202.097656 L 137.695312 -202.933594 L 149.457031 -202.933594 C 149.457031 -200.125 149.339844 -197.210938 149.109375 -194.191406 C 148.878906 -191.21875 148.539062 -188.140625 148.082031 -184.960938 L 147.457031 -180.570312 L 135.8125 -182.234375 L 147.542969 -181.394531 C 147.273438 -177.625 146.5 -173.554688 145.214844 -169.191406 L 133.929688 -172.511719 L 145.578125 -170.878906 C 144.046875 -159.945312 141.863281 -149.175781 139.019531 -138.570312 C 136.140625 -127.828125 132.378906 -117.257812 127.730469 -106.863281 L 116.992188 -111.660156 L 128.753906 -111.660156 L 128.753906 -108.453125 L 127.914062 -106.351562 C 125.679688 -100.765625 123.0625 -95.082031 120.0625 -89.304688 C 117.179688 -83.757812 114.246094 -78.316406 111.257812 -72.980469 L 100.996094 -78.726562 L 111.917969 -74.359375 L 111.109375 -72.335938 L 110.890625 -71.898438 C 109.933594 -69.988281 108.867188 -68.027344 107.683594 -66.019531 C 106.585938 -64.152344 105.484375 -62.335938 104.382812 -60.574219 L 94.410156 -66.808594 L 106.171875 -66.808594 C 106.171875 -63.351562 104.917969 -60.371094 102.414062 -57.863281 L 94.097656 -66.179688 L 104.257812 -60.253906 C 102.675781 -57.542969 100.980469 -54.832031 99.179688 -52.128906 C 97.292969 -49.300781 95.289062 -46.589844 93.164062 -43.992188 L 84.058594 -51.4375 L 93.847656 -44.914062 L 90.0625 -39.242188 L 89.238281 -38.417969 C 91.328125 -40.503906 92.371094 -42.964844 92.371094 -45.792969 L 92.371094 -42.230469 L 88.894531 -37.019531 L 88.625 -36.671875 C 83.0625 -29.554688 78.363281 -24.132812 74.527344 -20.414062 C 69.964844 -15.988281 65.921875 -13.074219 62.394531 -11.664062 L 58.027344 -22.582031 L 63.285156 -12.0625 C 61.210938 -11.027344 58.832031 -10.507812 56.144531 -10.507812 C 53.039062 -10.507812 50.222656 -11.347656 47.699219 -13.03125 C 45.417969 -14.550781 43.628906 -16.609375 42.332031 -19.203125 C 41.03125 -21.808594 40.183594 -24.46875 39.796875 -27.191406 L 51.4375 -28.855469 L 39.90625 -26.550781 C 39.609375 -28.035156 39.390625 -29.628906 39.246094 -31.328125 C 39.050781 -33.6875 39.164062 -35.933594 39.59375 -38.0625 L 51.125 -35.757812 L 39.96875 -32.035156 C 39.394531 -33.757812 39.039062 -36.917969 38.898438 -41.515625 C 38.796875 -44.878906 38.644531 -48.503906 38.4375 -52.390625 L 38.421875 -52.699219 L 38.421875 -53.007812 C 38.421875 -56.871094 38.371094 -60.632812 38.269531 -64.285156 C 38.164062 -68.160156 38.109375 -70.882812 38.109375 -72.453125 L 49.871094 -72.453125 L 38.128906 -71.800781 C 37.933594 -75.253906 37.546875 -79.121094 36.960938 -83.410156 C 36.125 -89.558594 36.425781 -95.371094 37.867188 -100.855469 L 49.242188 -97.859375 L 37.640625 -99.792969 L 39.226562 -109.300781 L 42.355469 -127.148438 C 43.289062 -132.550781 43.753906 -137.84375 43.753906 -143.027344 L 43.753906 -143.917969 L 47.339844 -167.386719 L 58.96875 -165.609375 L 47.230469 -166.390625 L 47.558594 -171.289062 L 47.578125 -171.484375 C 47.984375 -175.554688 48.339844 -179.730469 48.644531 -184.011719 C 48.941406 -188.125 49.085938 -192.234375 49.085938 -196.347656 L 49.085938 -219.558594 L 60.847656 -219.558594 L 52.53125 -211.242188 L 52.375 -211.398438 C 49.972656 -213.800781 48.773438 -216.726562 48.773438 -220.183594 L 48.773438 -224.578125 L 60.535156 -224.578125 L 48.902344 -222.832031 C 48.449219 -225.867188 47.527344 -228.847656 46.140625 -231.773438 L 45.777344 -232.539062 L 45.53125 -233.351562 C 45.109375 -234.714844 44.285156 -236.195312 43.058594 -237.792969 L 40.617188 -240.964844 L 40.617188 -245.589844 L 52.378906 -245.589844 L 42.59375 -239.066406 C 42.285156 -239.53125 41.851562 -240.019531 41.296875 -240.527344 C 40.234375 -241.5 39.285156 -242.320312 38.445312 -242.992188 L 45.792969 -252.179688 L 46.664062 -240.449219 L 38.195312 -239.820312 L 37.324219 -251.550781 L 39.429688 -239.976562 C 37.78125 -239.679688 36.121094 -239.222656 34.445312 -238.613281 C 33.113281 -238.132812 31.828125 -237.453125 30.582031 -236.582031 L 27.546875 -234.457031 L 23.835938 -234.457031 C 23.621094 -234.457031 23.332031 -234.375 22.96875 -234.214844 L 20.6875 -233.203125 L 17.25 -233.203125 C 18.996094 -233.203125 20.671875 -233.601562 22.277344 -234.40625 C 24.113281 -235.324219 25.601562 -236.636719 26.742188 -238.351562 C 28.046875 -240.308594 28.699219 -242.460938 28.699219 -244.808594 C 28.699219 -242.40625 28.035156 -240.210938 26.703125 -238.214844 C 25.535156 -236.460938 24.007812 -235.113281 22.117188 -234.167969 C 20.410156 -233.316406 18.578125 -232.886719 16.625 -232.886719 L 16.308594 -232.886719 L 16.308594 -244.652344 L 24.222656 -235.945312 L 20.773438 -232.808594 L 12.859375 -241.515625 L 24.621094 -241.515625 L 24.621094 -237.4375 L 12.859375 -237.4375 L 21.175781 -245.753906 C 23.683594 -243.246094 24.9375 -240.058594 24.9375 -236.183594 L 13.171875 -236.183594 L 21.492188 -244.5 C 23.996094 -241.992188 25.25 -239.011719 25.25 -235.554688 C 25.25 -237.195312 24.941406 -238.636719 24.320312 -239.875 L 25.144531 -238.222656 L 26.191406 -231.433594 L 26.191406 -230.535156 C 26.191406 -231.597656 26.042969 -232.578125 25.742188 -233.472656 C 26.25 -231.949219 26.503906 -230.34375 26.503906 -228.652344 L 14.742188 -228.652344 L 26.3125 -230.757812 C 26.859375 -227.761719 27.132812 -224.5 27.132812 -220.96875 C 27.132812 -217.867188 27.015625 -214.710938 26.789062 -211.507812 L 15.054688 -212.34375 L 26.816406 -212.34375 L 26.816406 -207.324219 C 26.816406 -205.164062 26.683594 -203.003906 26.414062 -200.847656 L 14.742188 -202.308594 L 26.449219 -201.175781 L 25.507812 -191.449219 L 13.800781 -192.582031 L 25.5625 -192.582031 L 25.5625 -191.757812 L 25.519531 -191.25 C 25.09375 -186.382812 24.621094 -181.359375 24.089844 -176.175781 C 23.5625 -170.984375 22.980469 -165.773438 22.355469 -160.546875 C 22.121094 -158.453125 21.832031 -156.359375 21.480469 -154.265625 C 21.195312 -152.542969 20.957031 -150.921875 20.765625 -149.410156 L 9.097656 -150.867188 L 20.832031 -150.058594 L 19.574219 -131.867188 L 7.839844 -132.675781 L 19.5625 -133.652344 C 19.800781 -130.816406 19.917969 -128.035156 19.917969 -125.304688 L 19.917969 -116.800781 L 19.566406 -115.394531 C 19.867188 -116.59375 19.832031 -117.839844 19.464844 -119.125 C 20.195312 -116.566406 20.269531 -113.832031 19.6875 -110.921875 L 8.15625 -113.230469 L 19.84375 -111.910156 L 17.636719 -92.382812 C 17.027344 -87.289062 16.519531 -82.351562 16.109375 -77.574219 C 15.707031 -72.8125 15.402344 -68.210938 15.199219 -63.765625 L 3.449219 -64.300781 L 15.210938 -64.300781 C 15.210938 -57.871094 15.601562 -51.445312 16.382812 -45.011719 C 17.054688 -39.460938 18.65625 -34.15625 21.183594 -29.097656 C 22.109375 -27.246094 23.027344 -25.546875 23.9375 -24 C 25.007812 -22.179688 25.976562 -20.515625 26.835938 -19.007812 L 16.625 -13.171875 L 25.808594 -20.519531 C 26.375 -19.816406 26.921875 -19.195312 27.449219 -18.667969 C 28.96875 -17.148438 30.332031 -15.378906 31.539062 -13.363281 C 32.761719 -11.226562 33.757812 -9.003906 34.527344 -6.699219 C 34.203125 -7.671875 33.632812 -8.5625 32.820312 -9.375 C 31.882812 -10.316406 30.800781 -10.960938 29.578125 -11.308594 L 33.734375 -10.121094 L 36.132812 -6.523438 C 35.574219 -7.363281 34.800781 -8.082031 33.808594 -8.675781 C 35.160156 -7.863281 36.386719 -6.910156 37.488281 -5.808594 L 38.429688 -4.867188 L 30.109375 3.449219 L 35.371094 -7.070312 L 38.601562 -5.453125 L 39.738281 -4.460938 C 39.542969 -4.628906 39.410156 -4.730469 39.335938 -4.757812 C 39.65625 -4.632812 40.132812 -4.527344 40.761719 -4.445312 C 43.382812 -4.09375 45.476562 -3.921875 47.046875 -3.921875 L 47.046875 7.839844 L 44.195312 -3.570312 C 43.828125 -3.476562 43.539062 -3.363281 43.324219 -3.230469 C 43.402344 -3.28125 43.542969 -3.40625 43.75 -3.613281 L 44.210938 -4.074219 L 49.507812 -8.3125 L 53.792969 -8.3125 C 50.648438 -8.3125 48.03125 -7.269531 45.945312 -5.179688 L 46.257812 -5.496094 L 54.574219 2.824219 L 45.539062 -4.707031 C 46.886719 -6.320312 48.667969 -8.175781 50.890625 -10.277344 C 51.925781 -11.253906 52.574219 -11.96875 52.832031 -12.421875 L 53.128906 -12.9375 L 59.683594 -22.113281 C 62.691406 -26.414062 65.863281 -30.769531 69.203125 -35.183594 L 79.082031 -48.199219 L 88.449219 -41.089844 L 78.238281 -46.925781 L 79.492188 -49.121094 L 89.707031 -43.285156 L 79.183594 -48.542969 C 80.847656 -51.871094 83.257812 -54.71875 86.410156 -57.085938 C 85.765625 -56.601562 85.214844 -55.898438 84.753906 -54.972656 C 84.054688 -53.582031 83.804688 -52.128906 83.992188 -50.609375 L 83.28125 -56.316406 L 87.347656 -60.382812 C 86.65625 -59.691406 86.132812 -58.988281 85.769531 -58.269531 L 85.761719 -58.296875 L 86.363281 -60.105469 L 87.507812 -61.632812 C 88.835938 -63.402344 90.167969 -65.121094 91.5 -66.785156 C 92.621094 -68.1875 93.640625 -69.53125 94.5625 -70.820312 L 104.132812 -63.984375 L 92.371094 -63.984375 C 92.371094 -63.132812 92.519531 -62.257812 92.816406 -61.363281 C 92.3125 -62.882812 92.058594 -64.492188 92.058594 -66.179688 C 92.058594 -68.765625 92.820312 -71.199219 94.347656 -73.488281 C 94.984375 -74.449219 95.683594 -75.308594 96.445312 -76.066406 L 104.761719 -67.75 L 94.238281 -73.007812 C 96.601562 -77.734375 99.074219 -82.460938 101.648438 -87.183594 C 104.019531 -91.53125 106.191406 -95.867188 108.15625 -100.191406 C 111.226562 -106.996094 114.679688 -113.789062 118.511719 -120.578125 C 122.074219 -126.890625 125.277344 -132.882812 128.113281 -138.5625 L 138.636719 -133.304688 L 126.871094 -133.304688 C 126.871094 -135.71875 127.941406 -139.144531 130.078125 -143.582031 C 131.507812 -146.554688 133.050781 -149.582031 134.695312 -152.660156 C 136.214844 -155.488281 137.15625 -157.273438 137.523438 -158.011719 L 148.042969 -152.75 L 136.632812 -155.601562 L 137.382812 -158.59375 L 138.3125 -160.121094 C 140.90625 -164.382812 143.078125 -168.675781 144.824219 -172.996094 C 146.507812 -177.167969 147.695312 -181.136719 148.378906 -184.90625 C 149.488281 -191.175781 149.953125 -196.394531 149.78125 -200.5625 L 149.769531 -200.808594 L 149.769531 -201.050781 C 149.769531 -203.320312 150.234375 -205.390625 151.167969 -207.253906 C 150.445312 -205.808594 150.082031 -204.261719 150.082031 -202.621094 L 161.84375 -202.621094 L 150.203125 -200.957031 L 148.742188 -211.179688 L 151.011719 -215.722656 C 151.789062 -217.277344 152.734375 -218.609375 153.84375 -219.71875 L 162.160156 -211.402344 L 150.398438 -211.402344 L 150.398438 -211.714844 L 162.160156 -211.714844 L 150.515625 -210.054688 C 149.800781 -215.054688 150.144531 -219.3125 151.550781 -222.828125 C 151.148438 -221.820312 150.992188 -220.867188 151.085938 -219.964844 C 151.101562 -219.824219 151.117188 -219.71875 151.132812 -219.65625 C 151.109375 -219.746094 151.058594 -219.878906 150.988281 -220.050781 L 150.695312 -220.75 L 150.496094 -221.480469 C 149.96875 -223.417969 149.199219 -225.722656 148.183594 -228.402344 C 147.378906 -230.519531 146.527344 -232.222656 145.621094 -233.515625 Z M 145.621094 -233.515625 "/></g></g></g><g fill="#34e400" fill-opacity="1"><g transform="translate(20.999983, 294.27414)"><g><path d="M 155.265625 -240.265625 C 156.722656 -238.171875 158.023438 -235.609375 159.171875 -232.578125 C 160.328125 -229.546875 161.21875 -226.878906 161.84375 -224.578125 C 162.894531 -222.066406 163.101562 -220.023438 162.46875 -218.453125 C 161.84375 -216.890625 161.738281 -214.644531 162.15625 -211.71875 L 162.15625 -211.40625 C 161.945312 -211.195312 161.738281 -210.882812 161.53125 -210.46875 C 161.320312 -210.050781 161.113281 -209.628906 160.90625 -209.203125 L 161.84375 -202.625 C 161.84375 -202.414062 161.789062 -202.207031 161.6875 -202 C 161.582031 -201.789062 161.53125 -201.472656 161.53125 -201.046875 C 161.738281 -196.035156 161.21875 -189.972656 159.96875 -182.859375 C 159.125 -178.265625 157.707031 -173.507812 155.71875 -168.59375 C 153.738281 -163.675781 151.285156 -158.8125 148.359375 -154 L 148.046875 -152.75 C 147.628906 -151.914062 146.632812 -150.035156 145.0625 -147.109375 C 143.5 -144.179688 142.035156 -141.304688 140.671875 -138.484375 C 139.316406 -135.660156 138.640625 -133.929688 138.640625 -133.296875 C 135.710938 -127.441406 132.414062 -121.273438 128.75 -114.796875 C 125.09375 -108.316406 121.800781 -101.832031 118.875 -95.34375 C 116.78125 -90.75 114.476562 -86.148438 111.96875 -81.546875 C 109.46875 -76.953125 107.066406 -72.351562 104.765625 -67.75 C 104.554688 -67.539062 104.34375 -67.28125 104.125 -66.96875 C 103.914062 -66.65625 103.8125 -66.394531 103.8125 -66.1875 C 103.8125 -65.757812 103.863281 -65.390625 103.96875 -65.078125 C 104.082031 -64.765625 104.140625 -64.398438 104.140625 -63.984375 C 103.085938 -62.523438 101.929688 -61.007812 100.671875 -59.4375 C 99.421875 -57.863281 98.171875 -56.242188 96.921875 -54.578125 C 96.503906 -53.316406 96.085938 -52.476562 95.671875 -52.0625 C 95.878906 -50.394531 95.144531 -48.929688 93.46875 -47.671875 C 91.789062 -46.421875 90.535156 -44.957031 89.703125 -43.28125 L 88.453125 -41.09375 C 85.109375 -36.695312 81.8125 -32.351562 78.5625 -28.0625 C 75.320312 -23.78125 72.238281 -19.550781 69.3125 -15.375 L 63.046875 -6.59375 C 62.210938 -5.125 60.851562 -3.5 58.96875 -1.71875 C 57.082031 0.0507812 55.617188 1.566406 54.578125 2.828125 L 54.265625 3.140625 C 54.054688 3.347656 53.898438 3.453125 53.796875 3.453125 C 53.691406 3.453125 53.640625 3.453125 53.640625 3.453125 L 52.0625 4.703125 C 50.394531 6.378906 48.722656 7.425781 47.046875 7.84375 C 44.953125 7.84375 42.335938 7.632812 39.203125 7.21875 C 36.066406 6.800781 33.664062 5.859375 32 4.390625 L 30.109375 3.453125 L 29.171875 2.515625 C 28.753906 2.085938 28.28125 1.71875 27.75 1.40625 C 27.226562 1.09375 26.757812 0.625 26.34375 0 C 24.882812 -0.414062 23.890625 -1.40625 23.359375 -2.96875 C 22.835938 -4.539062 22.160156 -6.0625 21.328125 -7.53125 C 20.703125 -8.570312 19.96875 -9.507812 19.125 -10.34375 C 18.289062 -11.1875 17.457031 -12.128906 16.625 -13.171875 C 15.789062 -14.640625 14.847656 -16.257812 13.796875 -18.03125 C 12.753906 -19.8125 11.710938 -21.75 10.671875 -23.84375 C 7.523438 -30.113281 5.535156 -36.695312 4.703125 -43.59375 C 3.867188 -50.5 3.453125 -57.398438 3.453125 -64.296875 C 3.660156 -68.898438 3.972656 -73.65625 4.390625 -78.5625 C 4.804688 -83.476562 5.328125 -88.550781 5.953125 -93.78125 L 8.15625 -113.234375 C 8.363281 -114.273438 8.363281 -115.160156 8.15625 -115.890625 C 7.945312 -116.628906 7.945312 -117.414062 8.15625 -118.25 C 8.15625 -120.550781 8.15625 -122.898438 8.15625 -125.296875 C 8.15625 -127.703125 8.050781 -130.160156 7.84375 -132.671875 L 9.09375 -150.875 C 9.300781 -152.539062 9.5625 -154.316406 9.875 -156.203125 C 10.1875 -158.085938 10.453125 -159.96875 10.671875 -161.84375 C 11.296875 -167.070312 11.867188 -172.25 12.390625 -177.375 C 12.910156 -182.5 13.378906 -187.460938 13.796875 -192.265625 L 13.796875 -192.578125 L 14.734375 -202.3125 C 14.953125 -203.976562 15.0625 -205.648438 15.0625 -207.328125 C 15.0625 -209.003906 15.0625 -210.570312 15.0625 -212.03125 L 15.0625 -212.34375 C 15.269531 -215.269531 15.375 -218.144531 15.375 -220.96875 C 15.375 -223.789062 15.160156 -226.351562 14.734375 -228.65625 C 14.734375 -229.070312 14.679688 -229.4375 14.578125 -229.75 C 14.472656 -230.0625 14.421875 -230.320312 14.421875 -230.53125 L 13.796875 -234.609375 C 13.585938 -235.035156 13.484375 -235.351562 13.484375 -235.5625 C 13.484375 -235.769531 13.378906 -235.976562 13.171875 -236.1875 C 13.171875 -236.8125 13.066406 -237.226562 12.859375 -237.4375 L 12.859375 -241.515625 L 16.3125 -244.65625 L 16.625 -244.65625 C 16.832031 -244.65625 16.9375 -244.707031 16.9375 -244.8125 C 16.9375 -244.914062 17.039062 -244.96875 17.25 -244.96875 L 18.1875 -244.96875 C 20.070312 -245.800781 21.957031 -246.21875 23.84375 -246.21875 C 25.925781 -247.6875 28.117188 -248.835938 30.421875 -249.671875 C 32.722656 -250.503906 35.023438 -251.128906 37.328125 -251.546875 L 45.796875 -252.1875 C 46.835938 -251.34375 47.984375 -250.34375 49.234375 -249.1875 C 50.492188 -248.039062 51.539062 -246.84375 52.375 -245.59375 L 52.375 -244.96875 C 54.46875 -242.25 55.929688 -239.53125 56.765625 -236.8125 C 58.648438 -232.832031 59.90625 -228.753906 60.53125 -224.578125 L 60.53125 -220.1875 C 60.53125 -219.976562 60.582031 -219.820312 60.6875 -219.71875 C 60.789062 -219.613281 60.84375 -219.5625 60.84375 -219.5625 L 60.84375 -196.34375 C 60.84375 -191.957031 60.6875 -187.566406 60.375 -183.171875 C 60.0625 -178.785156 59.695312 -174.5 59.28125 -170.3125 L 58.96875 -165.609375 L 55.515625 -143.03125 C 55.515625 -137.175781 54.988281 -131.210938 53.9375 -125.140625 C 52.894531 -119.078125 51.851562 -113.117188 50.8125 -107.265625 L 49.25 -97.859375 C 48.195312 -93.890625 47.984375 -89.601562 48.609375 -85 C 49.242188 -80.394531 49.664062 -76.210938 49.875 -72.453125 C 49.875 -70.992188 49.925781 -68.378906 50.03125 -64.609375 C 50.132812 -60.847656 50.1875 -56.984375 50.1875 -53.015625 C 50.394531 -49.035156 50.550781 -45.320312 50.65625 -41.875 C 50.757812 -38.425781 50.914062 -36.382812 51.125 -35.75 C 50.914062 -34.707031 50.863281 -33.554688 50.96875 -32.296875 C 51.070312 -31.046875 51.226562 -29.898438 51.4375 -28.859375 C 51.644531 -27.390625 52.113281 -25.921875 52.84375 -24.453125 C 53.582031 -22.992188 54.679688 -22.265625 56.140625 -22.265625 C 56.984375 -22.265625 57.613281 -22.367188 58.03125 -22.578125 C 60.113281 -23.421875 62.878906 -25.515625 66.328125 -28.859375 C 69.785156 -32.203125 74.128906 -37.21875 79.359375 -43.90625 L 80.609375 -45.796875 C 80.609375 -46.210938 80.710938 -46.523438 80.921875 -46.734375 L 84.0625 -51.4375 C 85.9375 -53.738281 87.710938 -56.144531 89.390625 -58.65625 C 91.066406 -61.164062 92.632812 -63.675781 94.09375 -66.1875 C 94.300781 -66.394531 94.40625 -66.601562 94.40625 -66.8125 C 95.457031 -68.476562 96.503906 -70.203125 97.546875 -71.984375 C 98.585938 -73.765625 99.53125 -75.488281 100.375 -77.15625 L 101 -78.734375 C 103.925781 -83.953125 106.800781 -89.28125 109.625 -94.71875 C 112.445312 -100.15625 114.90625 -105.488281 117 -110.71875 L 117 -111.65625 C 121.382812 -121.488281 124.9375 -131.472656 127.65625 -141.609375 C 130.375 -151.753906 132.46875 -162.054688 133.9375 -172.515625 C 134.976562 -176.066406 135.601562 -179.304688 135.8125 -182.234375 L 136.4375 -186.625 C 136.851562 -189.550781 137.164062 -192.375 137.375 -195.09375 C 137.582031 -197.8125 137.6875 -200.425781 137.6875 -202.9375 C 137.90625 -205.863281 137.957031 -208.582031 137.84375 -211.09375 C 137.738281 -213.601562 137.6875 -215.898438 137.6875 -217.984375 L 137.6875 -218.3125 L 138.015625 -220.1875 C 138.015625 -221.4375 138.117188 -222.378906 138.328125 -223.015625 C 138.117188 -224.679688 137.851562 -226.5625 137.53125 -228.65625 C 137.21875 -230.75 136.851562 -232.734375 136.4375 -234.609375 L 133.625 -243.71875 C 133.40625 -246.007812 132.773438 -248.203125 131.734375 -250.296875 L 129.859375 -257.828125 C 128.597656 -259.492188 127.65625 -260.585938 127.03125 -261.109375 C 126.40625 -261.640625 125.988281 -262.21875 125.78125 -262.84375 C 124.9375 -263.46875 124.515625 -264.09375 124.515625 -264.71875 C 124.515625 -264.9375 124.726562 -265.046875 125.15625 -265.046875 L 125.46875 -265.046875 C 126.300781 -265.460938 126.925781 -265.878906 127.34375 -266.296875 C 127.757812 -266.710938 128.382812 -267.023438 129.21875 -267.234375 C 130.0625 -267.234375 131.316406 -266.394531 132.984375 -264.71875 C 133.410156 -264.507812 134.925781 -263.882812 137.53125 -262.84375 C 140.144531 -261.800781 141.554688 -261.066406 141.765625 -260.640625 C 144.691406 -257.929688 147.253906 -254.742188 149.453125 -251.078125 C 151.648438 -247.421875 153.585938 -243.816406 155.265625 -240.265625 Z M 155.265625 -240.265625 "/></g></g></g></g></g><g fill="#006128" fill-opacity="1"><g transform="translate(217.115604, 482.926388)"><g><path d="M 179.882812 -50.8125 C 179.882812 -52.246094 179.574219 -53.582031 178.953125 -54.816406 L 180.757812 -51.207031 L 179.96875 -47.25 C 180.015625 -47.488281 180.039062 -47.828125 180.039062 -48.265625 C 180.039062 -50.296875 179.433594 -52.226562 178.222656 -54.042969 C 179.640625 -51.910156 180.351562 -49.566406 180.351562 -47.007812 C 180.351562 -44.976562 179.886719 -43.027344 178.953125 -41.160156 L 168.433594 -46.421875 L 180.195312 -46.421875 L 180.195312 -46.109375 L 168.433594 -46.109375 L 180.035156 -48.042969 C 180.527344 -45.09375 180.390625 -42.214844 179.625 -39.40625 C 179.957031 -40.617188 179.976562 -41.933594 179.695312 -43.355469 C 179.136719 -46.148438 177.660156 -48.34375 175.273438 -49.933594 L 180.511719 -46.441406 L 180.511719 -40.148438 C 180.511719 -35.585938 179.753906 -30.414062 178.246094 -24.632812 L 178.148438 -24.253906 L 175.203125 -15.414062 L 164.042969 -19.132812 L 175.476562 -16.378906 C 172.308594 -3.207031 166.316406 8.394531 157.511719 18.425781 L 148.671875 10.664062 L 158.460938 17.1875 C 157.371094 18.824219 155.789062 20.859375 153.714844 23.300781 C 151.597656 25.792969 149.300781 28.152344 146.820312 30.386719 L 138.949219 21.640625 L 148.292969 28.789062 C 144.972656 33.128906 140.46875 37.539062 134.777344 42.019531 C 129.691406 46.023438 124.964844 49.554688 120.601562 52.605469 L 113.859375 42.972656 L 120.984375 52.328125 C 115.558594 56.460938 110.972656 59.15625 107.226562 60.402344 C 105.453125 60.992188 103.441406 61.933594 101.1875 63.21875 C 99.25 64.328125 97.246094 65.296875 95.171875 66.125 C 94.109375 66.550781 93.082031 67.046875 92.089844 67.613281 L 91.191406 68.128906 L 90.210938 68.476562 C 84.039062 70.679688 78.804688 72.347656 74.507812 73.480469 C 69.945312 74.679688 65.320312 75.519531 60.636719 76 C 56.160156 76.460938 50.585938 76.6875 43.910156 76.6875 C 42.71875 76.6875 41.371094 76.621094 39.867188 76.484375 C 38.425781 76.351562 36.933594 76.160156 35.390625 75.902344 L 37.324219 64.300781 L 37.324219 76.0625 L 36.382812 76.0625 C 28.058594 76.0625 19.863281 74.78125 11.804688 72.214844 C 3.324219 69.515625 -4.253906 65.214844 -10.929688 59.308594 L -15.925781 54.980469 L -16.277344 54.617188 C -24.699219 45.945312 -30.496094 36.476562 -33.664062 26.210938 C -36.628906 16.609375 -38.109375 7.558594 -38.109375 -0.941406 C -38.109375 -21.453125 -31.285156 -39.507812 -17.632812 -55.109375 L -17.335938 -55.449219 L -17.007812 -55.769531 C -4.894531 -67.625 8.824219 -73.554688 24.152344 -73.554688 C 33.039062 -73.554688 40.085938 -71.398438 45.296875 -67.089844 C 49.699219 -63.441406 52.902344 -59.449219 54.90625 -55.113281 C 56.882812 -50.832031 57.871094 -47.308594 57.871094 -44.539062 L 46.109375 -44.539062 L 46.109375 -56.300781 C 48.007812 -56.300781 50.1875 -55.890625 52.648438 -55.070312 C 55.660156 -54.066406 58.109375 -52.625 59.992188 -50.738281 C 63.339844 -47.390625 64.683594 -43.410156 64.023438 -38.796875 L 52.378906 -40.460938 L 64.144531 -40.460938 C 64.144531 -36.796875 62.578125 -33.394531 59.441406 -30.261719 C 57.707031 -28.527344 56.0625 -27.269531 54.503906 -26.492188 C 52.429688 -25.453125 49.839844 -24.9375 46.734375 -24.9375 C 44.460938 -24.9375 41.5625 -25.113281 38.035156 -25.464844 C 35.289062 -25.738281 31.8125 -25.875 27.601562 -25.875 L 24.464844 -25.875 L 24.464844 -37.640625 L 25 -25.890625 C 21.347656 -25.722656 17.308594 -24.988281 12.886719 -23.6875 C 8.804688 -22.488281 5.152344 -20.75 1.929688 -18.46875 C -0.257812 -16.921875 -1.78125 -14.855469 -2.640625 -12.277344 L -13.800781 -15.996094 L -2.351562 -13.300781 C -3.058594 -10.300781 -3.492188 -7.878906 -3.652344 -6.039062 C -3.796875 -4.363281 -3.800781 -2.847656 -3.664062 -1.484375 L -2.433594 8.976562 L -14.113281 10.351562 L -2.511719 8.417969 C -1.992188 11.550781 -1.046875 14.023438 0.3125 15.839844 C 1.945312 18.015625 3.816406 19.761719 5.921875 21.078125 L 7.054688 21.789062 L 8.003906 22.734375 C 7.796875 22.527344 7.617188 22.382812 7.464844 22.304688 C 7.585938 22.367188 7.800781 22.441406 8.113281 22.527344 L 9.628906 22.941406 L 10.980469 23.738281 C 13.46875 25.199219 16.460938 26.320312 19.960938 27.097656 C 24.121094 28.023438 28.640625 28.671875 33.523438 29.046875 L 32.621094 40.777344 L 29.242188 29.507812 L 32.640625 28.488281 L 32.902344 28.421875 C 33.03125 28.390625 33.105469 28.371094 33.136719 28.363281 C 32.921875 28.433594 32.667969 28.542969 32.378906 28.6875 C 34.242188 27.753906 36.179688 27.289062 38.1875 27.289062 C 41.59375 27.289062 44.496094 28.488281 46.898438 30.890625 L 38.578125 39.207031 L 38.578125 27.445312 L 42.34375 27.445312 L 42.34375 39.207031 L 40.410156 27.605469 L 44.175781 26.976562 L 47.9375 26.351562 L 49.871094 37.953125 L 46.152344 26.792969 L 54.621094 23.972656 L 58.339844 35.128906 L 53.972656 24.207031 C 55.222656 23.710938 56.519531 22.988281 57.867188 22.042969 L 58.519531 21.585938 L 59.226562 21.222656 C 65.472656 18.007812 71.648438 14.011719 77.761719 9.238281 C 80.765625 6.980469 83.121094 4.359375 84.824219 1.378906 C 87.3125 -2.972656 89.589844 -7.007812 91.65625 -10.730469 L 91.921875 -11.210938 L 92.234375 -11.664062 C 101.699219 -25.484375 107.441406 -38.636719 109.460938 -51.121094 C 109.808594 -53.039062 110.023438 -54.980469 110.105469 -56.949219 C 110.171875 -58.585938 110.074219 -60.125 109.8125 -61.570312 L 109.730469 -62.03125 L 109.367188 -65.636719 L 121.070312 -66.808594 L 109.429688 -65.144531 C 109.191406 -66.8125 108.675781 -68.4375 107.886719 -70.015625 C 106.84375 -72.105469 105.59375 -74.117188 104.132812 -76.0625 L 103.660156 -76.691406 L 103.277344 -77.382812 C 100.070312 -83.117188 95.21875 -88.53125 88.722656 -93.621094 L 88.386719 -93.886719 L 80.753906 -100.828125 L 80.375 -101.242188 C 78.746094 -103.03125 77.054688 -104.605469 75.300781 -105.960938 C 73.164062 -107.613281 70.820312 -109.320312 68.269531 -111.085938 L 74.964844 -120.757812 L 68.800781 -110.742188 C 65.960938 -112.488281 63.539062 -114.027344 61.539062 -115.363281 C 60.460938 -116.082031 58.910156 -116.800781 56.894531 -117.523438 L 56.550781 -117.644531 L 56.214844 -117.789062 C 53.476562 -118.960938 50.214844 -120.246094 46.433594 -121.640625 C 42.050781 -123.253906 38.203125 -124.890625 34.886719 -126.546875 L 40.148438 -137.066406 L 37.296875 -125.65625 L 29.117188 -127.703125 L 26.8125 -130.003906 C 25.164062 -131.652344 22.789062 -134.25 19.691406 -137.792969 C 15.980469 -142.03125 13.46875 -145.632812 12.148438 -148.601562 L 9.894531 -153.675781 L 12.375 -158.640625 C 11.953125 -157.792969 11.660156 -156.867188 11.492188 -155.859375 C 11.097656 -153.503906 11.445312 -151.234375 12.535156 -149.058594 C 11.183594 -151.757812 10.875 -154.566406 11.605469 -157.484375 C 12.15625 -159.699219 13.253906 -161.625 14.894531 -163.265625 L 23.210938 -154.945312 L 11.675781 -152.640625 C 11.398438 -154.035156 11.082031 -156.371094 10.730469 -159.652344 C 10.542969 -161.402344 10.433594 -162.8125 10.394531 -163.886719 C 10.257812 -168.070312 11.441406 -171.417969 13.953125 -173.929688 L 30.585938 -157.292969 L 23.652344 -150.359375 L 16.070312 -154.148438 C 13.828125 -155.269531 11.722656 -157.109375 9.761719 -159.664062 C 8.570312 -161.21875 7.289062 -163.203125 5.925781 -165.609375 C 3.3125 -170.207031 1.359375 -174.578125 0.0664062 -178.726562 L -0.46875 -180.441406 L -0.46875 -182.234375 C -0.46875 -181.144531 -0.355469 -180.234375 -0.132812 -179.511719 C -0.214844 -179.777344 -0.359375 -180.203125 -0.570312 -180.789062 C -1.175781 -182.492188 -1.726562 -184.195312 -2.214844 -185.902344 L -3.292969 -189.683594 L -3.292969 -193.125 L -3.066406 -194.265625 C -2.597656 -196.601562 -1.703125 -198.621094 -0.382812 -200.316406 C 0.984375 -202.078125 2.6875 -203.378906 4.726562 -204.214844 C 7.03125 -205.167969 9.414062 -205.394531 11.875 -204.902344 C 9.746094 -205.328125 7.65625 -205.101562 5.601562 -204.21875 C 3.140625 -203.167969 1.324219 -201.460938 0.144531 -199.101562 L 10.664062 -193.839844 L -1.097656 -193.839844 L -1.097656 -196.855469 L -0.746094 -198.261719 C -0.875 -197.742188 -0.941406 -197.132812 -0.941406 -196.429688 C -0.941406 -193.441406 0.15625 -190.851562 2.347656 -188.660156 L -1.097656 -192.105469 L -1.097656 -198.703125 C -1.097656 -200.398438 -0.875 -202.132812 -0.433594 -203.90625 L 10.976562 -201.054688 L -0.433594 -198.203125 C -0.996094 -200.460938 -1.136719 -202.734375 -0.851562 -205.023438 C -0.6875 -206.328125 -0.441406 -207.628906 -0.121094 -208.925781 C 0.140625 -209.964844 0.511719 -211.265625 0.992188 -212.824219 C 2.230469 -216.855469 4.324219 -219.851562 7.277344 -221.820312 L 13.800781 -212.03125 L 2.691406 -215.898438 C 5.03125 -222.625 9.414062 -228.859375 15.84375 -234.605469 C 21.359375 -239.53125 27.441406 -243.921875 34.097656 -247.773438 C 40.402344 -251.425781 45.828125 -254.273438 50.375 -256.320312 L 50.773438 -256.5 L 58.085938 -259.15625 C 64.585938 -261.625 71.933594 -263.753906 80.128906 -265.550781 C 88.140625 -267.308594 95.894531 -268.625 103.386719 -269.507812 L 104.761719 -257.828125 L 94.789062 -264.058594 C 95.777344 -265.644531 96.769531 -267.277344 97.761719 -268.964844 C 98.230469 -269.765625 98.539062 -270.457031 98.683594 -271.03125 L 99.371094 -273.785156 L 103.4375 -278.433594 L 112.289062 -270.6875 L 100.644531 -272.351562 C 101.210938 -276.296875 103.105469 -279.480469 106.328125 -281.898438 C 108.4375 -283.480469 110.976562 -284.542969 113.949219 -285.082031 L 114.992188 -285.273438 L 116.054688 -285.273438 C 120.339844 -285.273438 125.125 -284.480469 130.410156 -282.894531 C 135.324219 -281.417969 140 -279.511719 144.441406 -277.167969 C 149.964844 -274.253906 154.113281 -270.710938 156.890625 -266.546875 C 157.121094 -266.203125 157.757812 -265.378906 158.800781 -264.078125 C 160.925781 -261.417969 162.316406 -259.109375 162.96875 -257.15625 L 151.808594 -253.433594 L 162.332031 -258.695312 L 162.957031 -257.441406 L 152.4375 -252.179688 L 152.4375 -263.941406 C 154.917969 -263.941406 157.183594 -263.257812 159.238281 -261.890625 C 161.046875 -260.679688 162.445312 -259.09375 163.429688 -257.128906 C 164.359375 -255.261719 164.828125 -253.195312 164.828125 -250.925781 L 153.066406 -250.925781 L 163.390625 -256.558594 L 164.332031 -254.832031 C 165.5625 -252.574219 166.503906 -249.671875 167.148438 -246.128906 L 155.574219 -244.027344 L 165.785156 -249.859375 C 167.289062 -247.230469 168.371094 -244.105469 169.027344 -240.484375 C 169.703125 -236.78125 169.703125 -233.078125 169.027344 -229.375 L 168.960938 -229 L 168.867188 -228.625 C 168.636719 -227.707031 168.355469 -226.636719 168.019531 -225.40625 C 167.726562 -224.335938 167.488281 -223.421875 167.296875 -222.667969 L 155.886719 -225.519531 L 167.53125 -223.855469 C 166.359375 -215.660156 162.269531 -211.5625 155.261719 -211.5625 C 157.820312 -211.5625 160.121094 -212.328125 162.160156 -213.855469 C 163.183594 -214.621094 164.039062 -215.523438 164.734375 -216.5625 C 165.210938 -217.28125 165.5625 -217.980469 165.792969 -218.664062 L 154.632812 -222.382812 L 166.042969 -225.234375 C 166.054688 -225.191406 166.0625 -225.160156 166.066406 -225.144531 C 166.050781 -225.199219 166.03125 -225.265625 166 -225.34375 C 165.785156 -225.941406 165.464844 -226.554688 165.046875 -227.183594 C 165.839844 -225.996094 166.503906 -224.589844 167.046875 -222.964844 L 168.5 -218.601562 L 162.121094 -204.46875 L 162.015625 -204.261719 C 161.359375 -202.945312 160.332031 -201.488281 158.9375 -199.894531 C 159.453125 -200.484375 159.835938 -201.277344 160.085938 -202.277344 L 160.039062 -202.089844 L 159.285156 -199.460938 L 159.203125 -199.21875 C 158.527344 -197.1875 157.585938 -195.445312 156.375 -193.996094 C 153.765625 -190.859375 150.464844 -189.292969 146.476562 -189.292969 L 146.476562 -201.054688 L 154.796875 -192.738281 C 153.296875 -191.238281 151.523438 -190.210938 149.480469 -189.652344 C 147.878906 -189.214844 146.25 -189.117188 144.597656 -189.351562 C 142.941406 -189.589844 141.367188 -190.152344 139.878906 -191.046875 C 138.789062 -191.699219 137.695312 -192.578125 136.59375 -193.679688 L 144.910156 -201.996094 L 151.746094 -192.425781 C 148.238281 -189.917969 144.285156 -188.664062 139.890625 -188.664062 L 137.476562 -188.664062 L 135.257812 -189.617188 C 134.496094 -189.941406 133.023438 -190.339844 130.839844 -190.808594 L 133.304688 -202.308594 L 139.140625 -192.097656 C 136.738281 -190.722656 134.59375 -189.800781 132.707031 -189.328125 C 130.933594 -188.886719 129.148438 -188.664062 127.34375 -188.664062 C 126.160156 -188.664062 124.925781 -188.757812 123.644531 -188.941406 C 122.695312 -189.074219 121.59375 -189.269531 120.332031 -189.519531 L 122.640625 -201.054688 L 120.597656 -189.472656 C 113.699219 -190.6875 108.433594 -194.078125 104.796875 -199.636719 C 101.375 -204.867188 100.101562 -210.328125 100.976562 -216.015625 L 101.128906 -217 L 101.445312 -217.949219 C 103.859375 -225.191406 108.207031 -228.8125 114.484375 -228.8125 C 116.414062 -228.8125 118.339844 -228.429688 120.265625 -227.660156 L 120.257812 -227.664062 C 120.398438 -227.621094 120.574219 -227.574219 120.789062 -227.519531 L 117.933594 -216.109375 L 119.597656 -227.753906 C 123.628906 -227.179688 126.789062 -225.304688 129.078125 -222.132812 C 131.0625 -219.386719 131.941406 -216.191406 131.714844 -212.554688 C 131.625 -211.125 131.578125 -209.800781 131.578125 -208.582031 C 131.578125 -210.832031 130.796875 -212.835938 129.234375 -214.59375 C 128.042969 -215.933594 126.691406 -216.792969 125.179688 -217.171875 L 122.328125 -205.757812 L 122.328125 -217.523438 C 123.710938 -217.523438 125.078125 -217.351562 126.433594 -217.011719 C 125.914062 -217.144531 125.277344 -217.207031 124.523438 -217.207031 C 124.3125 -217.207031 124.113281 -217.167969 123.917969 -217.085938 C 123.882812 -217.070312 123.863281 -217.0625 123.859375 -217.0625 C 123.933594 -217.109375 124.027344 -217.183594 124.136719 -217.285156 C 124.5625 -217.671875 124.929688 -218.609375 125.246094 -220.101562 L 136.753906 -217.679688 L 125.023438 -216.839844 C 124.917969 -218.277344 124.5625 -219.632812 123.957031 -220.898438 C 123.6875 -221.457031 123.496094 -221.8125 123.375 -221.964844 C 123.84375 -221.363281 124.5625 -220.816406 125.535156 -220.332031 L 130.796875 -230.851562 L 130.796875 -219.089844 L 124.355469 -219.089844 L 120.910156 -222.535156 C 121.667969 -221.777344 122.484375 -221.230469 123.359375 -220.894531 C 123.550781 -220.820312 123.722656 -220.765625 123.871094 -220.730469 L 123.851562 -220.730469 L 123.0625 -220.816406 L 122.296875 -221.007812 C 122.480469 -220.964844 122.632812 -220.929688 122.761719 -220.914062 C 122.738281 -220.917969 122.6875 -220.921875 122.601562 -220.929688 C 122.222656 -220.957031 121.710938 -220.972656 121.070312 -220.972656 L 118.027344 -220.972656 L 114.046875 -221.332031 L 115.113281 -233.046875 L 115.316406 -221.285156 C 104.839844 -221.105469 96.273438 -219.480469 89.617188 -216.410156 C 82.648438 -213.191406 77.234375 -209.738281 73.371094 -206.042969 L 72.089844 -204.816406 L 70.5 -204.019531 C 68.847656 -203.195312 66.183594 -201.558594 62.511719 -199.109375 C 58.925781 -196.71875 55.625 -194.152344 52.609375 -191.410156 C 51.488281 -190.390625 50.65625 -189.507812 50.113281 -188.757812 C 49.976562 -188.566406 49.882812 -188.421875 49.835938 -188.324219 C 49.886719 -188.429688 49.9375 -188.585938 49.992188 -188.792969 L 38.578125 -191.644531 L 50.34375 -191.644531 C 50.34375 -194.230469 49.554688 -196.445312 47.980469 -198.28125 C 47.589844 -198.734375 47.257812 -199.054688 46.984375 -199.234375 L 52.222656 -195.742188 L 52.222656 -189.449219 C 52.222656 -190.671875 51.914062 -191.902344 51.296875 -193.140625 L 52.886719 -189.957031 L 52.445312 -186.421875 C 52.699219 -188.453125 52.359375 -190.179688 51.425781 -191.601562 C 51.367188 -191.691406 51.316406 -191.761719 51.269531 -191.816406 C 51.277344 -191.808594 51.300781 -191.785156 51.332031 -191.75 C 51.523438 -191.554688 51.785156 -191.316406 52.125 -191.039062 C 54.335938 -189.238281 57.285156 -187.375 60.976562 -185.441406 L 63.011719 -184.375 L 64.496094 -182.617188 C 65.757812 -181.128906 67.445312 -179.855469 69.558594 -178.796875 C 72.984375 -177.085938 75.78125 -175.734375 77.949219 -174.75 L 86.554688 -170.65625 L 87.984375 -169.222656 C 89.140625 -168.070312 90.5625 -166.917969 92.253906 -165.761719 C 95.164062 -163.78125 97.398438 -162.007812 98.964844 -160.441406 L 107.28125 -152.125 L 98.964844 -143.808594 C 101.050781 -145.894531 102.09375 -148.457031 102.09375 -151.496094 L 90.332031 -151.496094 L 100.617188 -157.207031 L 101.398438 -155.796875 C 101.046875 -156.433594 100.730469 -156.878906 100.453125 -157.132812 C 100.722656 -156.886719 101.164062 -156.546875 101.785156 -156.113281 L 95.039062 -146.476562 L 100.75 -156.761719 L 106.394531 -153.625 C 109.664062 -151.785156 113.855469 -149.535156 118.96875 -146.875 C 124.421875 -144.042969 129.761719 -141.042969 134.996094 -137.882812 C 140.957031 -134.28125 145.671875 -130.613281 149.136719 -126.878906 L 149.433594 -126.5625 L 156.175781 -118.132812 L 156.363281 -117.871094 C 157.355469 -116.480469 158.296875 -115.195312 159.179688 -114.015625 C 161.1875 -111.335938 162.472656 -108.601562 163.03125 -105.8125 L 151.496094 -103.507812 L 162.355469 -108.03125 C 163.144531 -106.132812 164.617188 -103.476562 166.773438 -100.066406 C 169.492188 -95.761719 171.671875 -91.96875 173.308594 -88.691406 L 178.082031 -79.148438 L 179.839844 -58.390625 L 168.121094 -57.398438 L 179.738281 -59.234375 L 180.824219 -52.363281 L 180.824219 -51.441406 C 180.824219 -49.535156 180.398438 -47.738281 179.550781 -46.042969 C 178.601562 -44.140625 177.238281 -42.597656 175.46875 -41.417969 C 173.414062 -40.046875 171.121094 -39.363281 168.589844 -39.363281 C 170.808594 -39.363281 172.867188 -39.996094 174.761719 -41.261719 C 176.457031 -42.390625 177.757812 -43.867188 178.671875 -45.691406 C 179.476562 -47.304688 179.882812 -49.011719 179.882812 -50.8125 Z M 156.359375 -50.8125 C 156.359375 -52.714844 156.78125 -54.515625 157.628906 -56.210938 C 158.582031 -58.113281 159.941406 -59.652344 161.714844 -60.835938 C 163.765625 -62.203125 166.058594 -62.886719 168.589844 -62.886719 C 166.375 -62.886719 164.316406 -62.257812 162.417969 -60.992188 C 160.726562 -59.863281 159.421875 -58.386719 158.511719 -56.5625 C 157.703125 -54.945312 157.300781 -53.238281 157.300781 -51.441406 L 169.0625 -51.441406 L 157.441406 -49.605469 L 156.4375 -55.984375 L 154.832031 -74.910156 L 166.550781 -75.90625 L 156.03125 -70.644531 L 152.269531 -78.171875 C 150.980469 -80.75 149.183594 -83.859375 146.882812 -87.503906 C 144.019531 -92.035156 141.9375 -95.863281 140.640625 -98.984375 L 140.191406 -100.058594 L 139.960938 -101.199219 C 140.0625 -100.691406 140.207031 -100.257812 140.386719 -99.894531 L 140.363281 -99.898438 C 139.367188 -101.226562 138.320312 -102.660156 137.21875 -104.199219 L 146.792969 -111.035156 L 137.605469 -103.6875 L 131.332031 -111.527344 L 140.519531 -118.875 L 131.898438 -110.871094 C 129.929688 -112.992188 126.90625 -115.285156 122.832031 -117.746094 C 118.027344 -120.648438 113.121094 -123.402344 108.117188 -126.003906 C 102.777344 -128.785156 98.394531 -131.132812 94.972656 -133.058594 L 88.792969 -136.492188 L 88.292969 -136.84375 C 84.722656 -139.34375 82.234375 -141.851562 80.835938 -144.371094 L 78.570312 -148.449219 L 78.570312 -151.496094 C 78.570312 -154.953125 79.824219 -157.933594 82.328125 -160.441406 L 90.648438 -152.125 L 82.328125 -143.808594 C 81.804688 -144.332031 80.695312 -145.171875 79.003906 -146.328125 C 76.09375 -148.308594 73.542969 -150.394531 71.351562 -152.589844 L 79.667969 -160.90625 L 74.613281 -150.285156 L 68.214844 -153.335938 C 65.78125 -154.441406 62.722656 -155.914062 59.039062 -157.757812 C 54.046875 -160.253906 49.878906 -163.476562 46.539062 -167.421875 L 55.515625 -175.019531 L 50.058594 -164.601562 C 44.96875 -167.269531 40.703125 -170.003906 37.265625 -172.804688 C 31.078125 -177.847656 28.355469 -183.359375 29.105469 -189.339844 L 40.777344 -187.878906 L 30.253906 -182.621094 C 29.21875 -184.695312 28.699219 -186.972656 28.699219 -189.449219 L 40.460938 -189.449219 L 33.9375 -179.664062 C 29.191406 -182.828125 26.816406 -186.820312 26.816406 -191.644531 L 26.816406 -193.09375 L 27.167969 -194.496094 C 28.371094 -199.308594 31.578125 -204.082031 36.785156 -208.816406 C 40.667969 -212.347656 44.894531 -215.636719 49.464844 -218.683594 C 53.945312 -221.671875 57.453125 -223.796875 59.980469 -225.0625 L 65.242188 -214.542969 L 57.109375 -223.042969 C 62.867188 -228.546875 70.414062 -233.457031 79.757812 -237.769531 C 89.414062 -242.222656 101.128906 -244.570312 114.910156 -244.808594 L 115.542969 -244.820312 L 119.628906 -244.449219 L 118.5625 -232.734375 L 118.5625 -244.496094 L 121.070312 -244.496094 C 123.917969 -244.496094 126.230469 -244.273438 128.003906 -243.832031 L 125.148438 -232.421875 L 126.449219 -244.109375 C 131.0625 -243.597656 134.761719 -241.949219 137.542969 -239.167969 L 129.226562 -230.851562 L 129.226562 -242.613281 L 133.570312 -242.613281 L 136.054688 -241.371094 C 139.710938 -239.542969 142.746094 -236.113281 145.164062 -231.082031 C 147.0625 -227.121094 148.171875 -222.933594 148.488281 -218.515625 L 148.605469 -216.871094 L 148.265625 -215.253906 C 146.90625 -208.800781 144.136719 -203.675781 139.960938 -199.878906 C 135.417969 -195.75 130.273438 -193.683594 124.523438 -193.683594 C 123.347656 -193.683594 122.082031 -193.851562 120.726562 -194.191406 C 121.246094 -194.0625 121.78125 -193.996094 122.328125 -193.996094 L 120.878906 -193.996094 L 119.472656 -194.347656 C 116.289062 -195.144531 113.679688 -196.683594 111.652344 -198.964844 C 109.253906 -201.664062 108.054688 -204.867188 108.054688 -208.582031 C 108.054688 -210.289062 108.113281 -212.105469 108.234375 -214.019531 C 108.113281 -212.054688 108.703125 -210.167969 110.007812 -208.359375 C 111.617188 -206.128906 113.707031 -204.832031 116.273438 -204.464844 L 115.671875 -204.550781 L 115.082031 -204.699219 C 113.730469 -205.039062 112.542969 -205.410156 111.527344 -205.816406 C 112.40625 -205.464844 113.394531 -205.289062 114.484375 -205.289062 C 116.941406 -205.289062 119.136719 -206.015625 121.070312 -207.464844 C 121.988281 -208.152344 122.742188 -208.9375 123.332031 -209.820312 C 123.542969 -210.140625 123.707031 -210.429688 123.820312 -210.6875 C 123.820312 -210.679688 123.796875 -210.621094 123.761719 -210.507812 L 112.601562 -214.226562 L 124.226562 -212.441406 C 124.257812 -212.640625 124.253906 -212.828125 124.210938 -213.003906 C 124.230469 -212.925781 124.320312 -212.761719 124.488281 -212.511719 C 124.433594 -212.589844 124.347656 -212.667969 124.226562 -212.742188 L 124.21875 -212.753906 C 124.335938 -212.710938 124.492188 -212.671875 124.683594 -212.636719 L 124.816406 -212.613281 L 124.945312 -212.589844 C 125.777344 -212.421875 126.453125 -212.300781 126.96875 -212.226562 C 127.148438 -212.203125 127.273438 -212.1875 127.34375 -212.1875 C 127.214844 -212.1875 127.101562 -212.175781 127 -212.152344 C 126.800781 -212.101562 126.625 -212.046875 126.472656 -211.992188 L 126.476562 -211.996094 C 126.722656 -212.109375 127.050781 -212.285156 127.46875 -212.523438 L 131.371094 -214.753906 L 135.769531 -213.808594 C 139.441406 -213.023438 142.359375 -212.164062 144.523438 -211.238281 L 139.890625 -200.425781 L 139.890625 -212.1875 C 139.261719 -212.1875 138.652344 -211.980469 138.074219 -211.566406 L 146.179688 -217.359375 L 153.226562 -210.3125 C 152.960938 -210.578125 152.546875 -210.878906 151.980469 -211.21875 C 150.753906 -211.957031 149.402344 -212.429688 147.925781 -212.640625 C 146.363281 -212.863281 144.820312 -212.765625 143.289062 -212.347656 C 141.316406 -211.808594 139.605469 -210.816406 138.160156 -209.371094 L 141.605469 -212.816406 L 146.476562 -212.816406 C 143.117188 -212.816406 140.394531 -211.5625 138.304688 -209.054688 C 137.617188 -208.230469 137.148438 -207.433594 136.886719 -206.65625 L 148.046875 -202.9375 L 136.738281 -206.167969 L 137.363281 -208.363281 L 148.671875 -205.132812 L 137.261719 -207.984375 C 137.929688 -210.65625 139.253906 -213.125 141.234375 -215.386719 C 141.40625 -215.582031 141.519531 -215.71875 141.578125 -215.796875 C 141.386719 -215.542969 141.1875 -215.207031 140.976562 -214.785156 L 151.496094 -209.523438 L 140.777344 -214.363281 L 145.167969 -224.085938 L 155.886719 -219.246094 L 144.730469 -215.527344 C 144.851562 -215.15625 145.101562 -214.695312 145.472656 -214.132812 C 144.511719 -215.578125 143.761719 -217.375 143.222656 -219.53125 L 142.390625 -222.851562 L 143.472656 -226.101562 C 143.910156 -227.414062 144.472656 -228.582031 145.160156 -229.613281 C 145.957031 -230.808594 146.917969 -231.828125 148.046875 -232.675781 C 150.191406 -234.28125 152.59375 -235.085938 155.261719 -235.085938 C 152.339844 -235.085938 149.785156 -234.128906 147.59375 -232.210938 C 146.628906 -231.367188 145.832031 -230.394531 145.203125 -229.296875 C 144.785156 -228.566406 144.472656 -227.832031 144.265625 -227.105469 C 144.21875 -226.949219 144.191406 -226.832031 144.175781 -226.761719 C 144.195312 -226.855469 144.21875 -226.996094 144.242188 -227.183594 L 144.328125 -227.785156 L 144.476562 -228.371094 C 144.707031 -229.289062 144.988281 -230.363281 145.324219 -231.59375 C 145.617188 -232.664062 145.855469 -233.578125 146.046875 -234.332031 L 157.457031 -231.480469 L 145.882812 -233.582031 C 146.046875 -234.480469 146.046875 -235.378906 145.882812 -236.277344 C 145.707031 -237.253906 145.53125 -237.890625 145.363281 -238.191406 L 144.363281 -239.9375 L 144 -241.921875 C 143.871094 -242.628906 143.742188 -243.199219 143.613281 -243.632812 C 143.578125 -243.742188 143.554688 -243.816406 143.535156 -243.863281 C 143.566406 -243.789062 143.613281 -243.691406 143.679688 -243.570312 L 141.300781 -247.925781 L 141.300781 -250.925781 C 141.300781 -249.492188 141.664062 -248.054688 142.386719 -246.605469 C 143.265625 -244.847656 144.535156 -243.417969 146.1875 -242.316406 C 148.085938 -241.050781 150.167969 -240.417969 152.4375 -240.417969 L 145.167969 -240.417969 L 140.914062 -248.921875 L 140.652344 -249.714844 C 140.878906 -249.03125 141.101562 -248.53125 141.316406 -248.203125 C 141.140625 -248.46875 140.84375 -248.863281 140.429688 -249.382812 C 138.960938 -251.214844 137.925781 -252.585938 137.320312 -253.496094 C 136.75 -254.351562 135.464844 -255.304688 133.460938 -256.363281 C 130.371094 -257.992188 127.101562 -259.324219 123.652344 -260.359375 C 120.570312 -261.285156 118.039062 -261.746094 116.054688 -261.746094 L 116.054688 -273.507812 L 118.15625 -261.9375 C 118.828125 -262.058594 119.589844 -262.441406 120.445312 -263.082031 C 122.414062 -264.558594 123.578125 -266.539062 123.933594 -269.023438 L 123.441406 -265.566406 L 118.945312 -260.433594 L 110.09375 -268.175781 L 121.503906 -265.324219 C 120.8125 -262.554688 119.65625 -259.792969 118.035156 -257.039062 C 116.9375 -255.171875 115.835938 -253.355469 114.734375 -251.59375 L 111.742188 -246.804688 L 106.136719 -246.144531 C 99.410156 -245.355469 92.421875 -244.164062 85.167969 -242.574219 C 78.097656 -241.023438 71.75 -239.183594 66.125 -237.050781 L 59.222656 -234.539062 L 55.203125 -245.59375 L 60.03125 -234.867188 C 56.214844 -233.148438 51.496094 -230.667969 45.882812 -227.417969 C 40.621094 -224.367188 35.832031 -220.917969 31.519531 -217.0625 C 28.117188 -214.023438 25.917969 -211.058594 24.910156 -208.167969 L 23.613281 -204.4375 L 20.324219 -202.246094 C 21.507812 -203.035156 22.425781 -203.980469 23.078125 -205.089844 C 23.28125 -205.4375 23.414062 -205.707031 23.476562 -205.90625 C 23.117188 -204.75 22.859375 -203.851562 22.703125 -203.21875 C 22.609375 -202.84375 22.539062 -202.472656 22.492188 -202.105469 C 22.570312 -202.722656 22.535156 -203.324219 22.390625 -203.90625 L 23.101562 -201.054688 L 22.390625 -198.203125 C 22.414062 -198.300781 22.425781 -198.46875 22.425781 -198.703125 L 22.425781 -196.976562 L 10.664062 -196.976562 L 18.980469 -205.292969 C 22.328125 -201.945312 23.359375 -197.699219 22.074219 -192.554688 L 10.664062 -195.410156 L 22.425781 -195.410156 L 22.425781 -191.0625 L 21.183594 -188.582031 C 19.796875 -185.800781 17.691406 -183.808594 14.867188 -182.597656 C 12.445312 -181.558594 9.910156 -181.304688 7.261719 -181.835938 C 9.457031 -181.398438 11.597656 -181.605469 13.683594 -182.464844 C 15.496094 -183.210938 16.996094 -184.347656 18.183594 -185.875 C 19.136719 -187.101562 19.742188 -188.359375 20.003906 -189.652344 L 8.46875 -191.957031 L 20.230469 -191.957031 L 20.230469 -191.332031 L 8.46875 -191.332031 L 19.777344 -194.5625 L 20.40625 -192.367188 C 20.753906 -191.148438 21.148438 -189.925781 21.585938 -188.699219 C 22.5625 -185.957031 23.054688 -183.800781 23.054688 -182.234375 L 11.292969 -182.234375 L 22.519531 -185.742188 C 23.3125 -183.199219 24.601562 -180.359375 26.382812 -177.21875 C 27.210938 -175.757812 27.894531 -174.679688 28.425781 -173.988281 C 28.492188 -173.902344 28.542969 -173.835938 28.582031 -173.792969 C 28.5625 -173.816406 28.523438 -173.855469 28.46875 -173.910156 C 27.976562 -174.382812 27.347656 -174.808594 26.589844 -175.191406 L 21.328125 -164.671875 L 13.011719 -172.988281 L 13.953125 -173.929688 L 22.269531 -165.609375 L 30.585938 -157.292969 C 32.550781 -159.257812 33.648438 -161.546875 33.878906 -164.164062 C 33.894531 -164.355469 33.90625 -164.527344 33.90625 -164.675781 L 33.90625 -164.671875 C 33.925781 -164.171875 33.996094 -163.335938 34.121094 -162.160156 C 34.398438 -159.585938 34.605469 -157.949219 34.746094 -157.253906 L 35.980469 -151.082031 L 31.527344 -146.628906 C 32.960938 -148.0625 33.925781 -149.777344 34.425781 -151.78125 C 35.101562 -154.488281 34.820312 -157.089844 33.574219 -159.578125 C 35.433594 -155.863281 35.378906 -152.042969 33.417969 -148.117188 L 22.898438 -153.378906 L 33.644531 -158.15625 C 34 -157.359375 35.25 -155.734375 37.394531 -153.28125 C 40.148438 -150.132812 42.167969 -147.917969 43.445312 -146.640625 L 35.128906 -138.324219 L 37.980469 -149.734375 L 44.253906 -148.167969 L 45.410156 -147.589844 C 47.949219 -146.320312 51 -145.027344 54.566406 -143.714844 C 58.730469 -142.179688 62.367188 -140.746094 65.484375 -139.410156 L 60.847656 -128.597656 L 64.804688 -139.675781 C 68.640625 -138.304688 71.902344 -136.726562 74.589844 -134.9375 C 76.351562 -133.761719 78.53125 -132.375 81.128906 -130.777344 L 81.398438 -130.609375 L 81.660156 -130.429688 C 84.546875 -128.429688 87.222656 -126.480469 89.683594 -124.578125 C 92.527344 -122.378906 95.226562 -119.875 97.78125 -117.066406 L 89.078125 -109.152344 L 96.992188 -117.855469 L 103.890625 -111.582031 L 95.980469 -102.878906 L 103.234375 -112.136719 C 112.210938 -105.101562 119.070312 -97.339844 123.8125 -88.855469 L 113.542969 -83.121094 L 122.953125 -90.175781 C 125.261719 -87.101562 127.25 -83.890625 128.925781 -80.539062 C 130.855469 -76.679688 132.117188 -72.660156 132.714844 -68.472656 L 132.75 -68.226562 L 133.089844 -64.84375 L 121.386719 -63.671875 L 132.957031 -65.777344 C 133.53125 -62.617188 133.75 -59.347656 133.609375 -55.96875 C 133.480469 -52.917969 133.171875 -50.050781 132.683594 -47.367188 C 130.101562 -31.414062 123.089844 -15.082031 111.644531 1.628906 L 101.9375 -5.019531 L 112.222656 0.695312 C 110.105469 4.5 107.785156 8.617188 105.25 13.050781 C 101.9375 18.851562 97.601562 23.757812 92.242188 27.773438 C 84.96875 33.457031 77.554688 38.242188 70 42.136719 L 64.613281 31.679688 L 71.359375 41.316406 C 68.523438 43.300781 65.640625 44.878906 62.707031 46.050781 L 62.386719 46.179688 L 52.714844 49.402344 L 48.042969 50.183594 L 43.316406 50.96875 L 33.707031 50.96875 L 30.261719 47.523438 C 32.453125 49.714844 35.097656 50.8125 38.1875 50.8125 C 39.882812 50.8125 41.453125 50.449219 42.898438 49.726562 C 41.710938 50.320312 40.28125 50.828125 38.609375 51.246094 L 35.757812 39.835938 L 39.136719 51.101562 L 33.902344 52.671875 L 31.71875 52.503906 C 25.726562 52.042969 20.105469 51.226562 14.855469 50.0625 C 8.945312 48.746094 3.675781 46.730469 -0.945312 44.011719 L 5.019531 33.875 L 1.921875 45.222656 C -2.386719 44.046875 -5.902344 42.097656 -8.628906 39.371094 L -0.3125 31.050781 L -6.546875 41.027344 C -11.132812 38.160156 -15.121094 34.46875 -18.503906 29.953125 C -22.164062 25.078125 -24.566406 19.1875 -25.714844 12.285156 L -25.761719 12.003906 L -27.074219 0.855469 C -27.355469 -1.964844 -27.359375 -4.941406 -27.085938 -8.078125 C -26.828125 -11.046875 -26.214844 -14.582031 -25.25 -18.691406 L -25.128906 -19.210938 L -24.960938 -19.714844 C -22.472656 -27.171875 -18.039062 -33.160156 -11.652344 -37.675781 C -6.300781 -41.460938 -0.335938 -44.320312 6.246094 -46.257812 C 12.488281 -48.09375 18.382812 -49.136719 23.929688 -49.390625 L 24.199219 -49.402344 L 27.601562 -49.402344 C 32.59375 -49.402344 36.851562 -49.226562 40.378906 -48.871094 C 43.125 -48.597656 45.242188 -48.460938 46.734375 -48.460938 C 46.851562 -48.460938 46.945312 -48.460938 47.011719 -48.464844 C 46.980469 -48.464844 46.925781 -48.457031 46.84375 -48.449219 C 45.929688 -48.332031 44.976562 -48.027344 43.984375 -47.53125 C 43.378906 -47.230469 42.882812 -46.917969 42.5 -46.597656 C 42.539062 -46.628906 42.640625 -46.730469 42.808594 -46.898438 C 42.679688 -46.765625 42.503906 -46.535156 42.28125 -46.203125 C 41.171875 -44.539062 40.617188 -42.625 40.617188 -40.460938 L 40.617188 -41.296875 L 40.738281 -42.125 C 40.511719 -40.5625 40.671875 -39.023438 41.214844 -37.515625 C 41.691406 -36.195312 42.40625 -35.058594 43.359375 -34.105469 C 44.09375 -33.371094 44.710938 -32.921875 45.210938 -32.753906 C 44.96875 -32.835938 44.808594 -32.882812 44.730469 -32.902344 C 45.101562 -32.816406 45.558594 -32.777344 46.109375 -32.777344 L 34.34375 -32.777344 L 34.34375 -44.539062 C 34.34375 -43.96875 34.394531 -43.460938 34.488281 -43.015625 L 34.480469 -43.015625 C 34.300781 -43.542969 33.992188 -44.292969 33.546875 -45.257812 C 33.039062 -46.355469 31.957031 -47.59375 30.296875 -48.964844 C 30.074219 -49.148438 29.636719 -49.332031 28.984375 -49.511719 C 27.730469 -49.855469 26.121094 -50.027344 24.152344 -50.027344 C 15.222656 -50.027344 6.988281 -46.335938 -0.554688 -38.957031 L -8.78125 -47.363281 L 0.0703125 -39.617188 C -9.699219 -28.453125 -14.585938 -15.558594 -14.585938 -0.941406 C -14.585938 5.195312 -13.453125 11.933594 -11.1875 19.269531 C -9.128906 25.941406 -5.203125 32.257812 0.59375 38.226562 L -7.839844 46.421875 L -0.136719 37.53125 L 4.65625 41.6875 C 8.851562 45.402344 13.613281 48.105469 18.9375 49.796875 C 24.675781 51.625 30.492188 52.539062 36.382812 52.539062 L 38.296875 52.539062 L 39.257812 52.699219 C 40.226562 52.859375 41.136719 52.976562 41.996094 53.054688 C 42.792969 53.128906 43.429688 53.164062 43.910156 53.164062 C 49.785156 53.164062 54.558594 52.976562 58.238281 52.597656 C 61.710938 52.242188 65.136719 51.621094 68.519531 50.730469 C 72.167969 49.769531 76.761719 48.300781 82.300781 46.324219 L 86.253906 57.398438 L 80.421875 47.1875 C 82.355469 46.082031 84.363281 45.113281 86.433594 44.28125 C 87.5 43.859375 88.523438 43.363281 89.515625 42.796875 C 93.117188 40.738281 96.542969 39.167969 99.789062 38.085938 C 101.0625 37.660156 103.375 36.171875 106.730469 33.613281 L 106.917969 33.472656 L 107.113281 33.335938 C 111.113281 30.535156 115.484375 27.265625 120.226562 23.535156 C 124.363281 20.277344 127.488281 17.265625 129.605469 14.496094 L 130.269531 13.628906 L 131.082031 12.898438 C 132.785156 11.367188 134.351562 9.757812 135.789062 8.066406 C 137.273438 6.324219 138.304688 5.015625 138.886719 4.140625 L 139.320312 3.492188 L 139.835938 2.902344 C 146.085938 -4.214844 150.34375 -12.476562 152.605469 -21.886719 L 152.726562 -22.375 L 155.707031 -31.320312 L 166.867188 -27.601562 L 155.484375 -30.570312 C 156.484375 -34.40625 156.984375 -37.597656 156.984375 -40.148438 L 168.746094 -40.148438 L 162.222656 -30.363281 C 159.207031 -32.371094 157.339844 -35.167969 156.625 -38.742188 C 156.183594 -40.949219 156.285156 -43.234375 156.929688 -45.59375 C 156.792969 -45.089844 156.757812 -44.613281 156.832031 -44.175781 L 156.671875 -45.132812 L 156.671875 -49.199219 L 157.914062 -51.679688 C 157.191406 -50.234375 156.828125 -48.675781 156.828125 -47.007812 C 156.828125 -44.816406 157.433594 -42.8125 158.648438 -40.996094 C 156.636719 -44.011719 156.054688 -47.632812 156.898438 -51.863281 L 168.433594 -49.558594 L 157.914062 -44.296875 C 156.875 -46.371094 156.359375 -48.542969 156.359375 -50.8125 Z M 156.359375 -50.8125 "/></g></g></g><g fill="#0ec258" fill-opacity="1"><g transform="translate(217.115604, 482.926388)"><g><path d="M 168.125 -50.8125 C 168.125 -50.394531 168.226562 -49.976562 168.4375 -49.5625 C 168.226562 -48.507812 168.226562 -47.828125 168.4375 -47.515625 C 168.644531 -47.203125 168.644531 -46.835938 168.4375 -46.421875 L 168.4375 -46.109375 C 168.644531 -44.847656 168.59375 -43.644531 168.28125 -42.5 C 167.96875 -41.351562 168.125 -40.566406 168.75 -40.140625 C 168.75 -36.585938 168.117188 -32.410156 166.859375 -27.609375 L 164.046875 -19.140625 C 161.328125 -7.847656 156.203125 2.085938 148.671875 10.671875 C 147.835938 11.921875 146.53125 13.585938 144.75 15.671875 C 142.976562 17.765625 141.046875 19.753906 138.953125 21.640625 C 136.234375 25.191406 132.414062 28.898438 127.5 32.765625 C 122.582031 36.640625 118.035156 40.039062 113.859375 42.96875 C 109.460938 46.3125 106.007812 48.398438 103.5 49.234375 C 101 50.078125 98.28125 51.335938 95.34375 53.015625 C 93.882812 53.847656 92.367188 54.578125 90.796875 55.203125 C 89.234375 55.828125 87.71875 56.5625 86.25 57.40625 C 80.394531 59.488281 75.476562 61.050781 71.5 62.09375 C 67.53125 63.144531 63.507812 63.878906 59.4375 64.296875 C 55.363281 64.710938 50.1875 64.921875 43.90625 64.921875 C 43.070312 64.921875 42.078125 64.867188 40.921875 64.765625 C 39.773438 64.660156 38.578125 64.503906 37.328125 64.296875 L 36.390625 64.296875 C 29.273438 64.296875 22.265625 63.195312 15.359375 61 C 8.460938 58.8125 2.296875 55.3125 -3.140625 50.5 L -7.84375 46.421875 C -14.945312 39.097656 -19.804688 31.203125 -22.421875 22.734375 C -25.035156 14.265625 -26.34375 6.375 -26.34375 -0.9375 C -26.34375 -18.5 -20.488281 -33.972656 -8.78125 -47.359375 C 1.039062 -56.984375 12.019531 -61.796875 24.15625 -61.796875 C 30.21875 -61.796875 34.765625 -60.539062 37.796875 -58.03125 C 40.828125 -55.519531 42.96875 -52.90625 44.21875 -50.1875 C 45.476562 -47.46875 46.109375 -45.585938 46.109375 -44.546875 C 46.734375 -44.546875 47.675781 -44.332031 48.9375 -43.90625 C 51.4375 -43.070312 52.582031 -41.925781 52.375 -40.46875 C 52.375 -40.039062 51.957031 -39.410156 51.125 -38.578125 C 50.289062 -37.742188 49.664062 -37.222656 49.25 -37.015625 C 48.820312 -36.804688 47.984375 -36.703125 46.734375 -36.703125 C 44.847656 -36.703125 42.335938 -36.859375 39.203125 -37.171875 C 36.066406 -37.484375 32.203125 -37.640625 27.609375 -37.640625 L 24.46875 -37.640625 C 19.863281 -37.429688 14.894531 -36.539062 9.5625 -34.96875 C 4.226562 -33.40625 -0.578125 -31.109375 -4.859375 -28.078125 C -9.148438 -25.046875 -12.128906 -21.019531 -13.796875 -16 C -14.640625 -12.445312 -15.164062 -9.46875 -15.375 -7.0625 C -15.582031 -4.65625 -15.582031 -2.40625 -15.375 -0.3125 L -14.109375 10.34375 C -13.273438 15.363281 -11.601562 19.546875 -9.09375 22.890625 C -6.582031 26.242188 -3.65625 28.960938 -0.3125 31.046875 C 0.9375 32.304688 2.710938 33.25 5.015625 33.875 C 8.566406 35.96875 12.695312 37.535156 17.40625 38.578125 C 22.113281 39.617188 27.1875 40.351562 32.625 40.78125 L 35.75 39.828125 C 36.59375 39.617188 37.222656 39.410156 37.640625 39.203125 C 38.054688 38.992188 38.367188 38.992188 38.578125 39.203125 L 42.34375 39.203125 C 43.59375 38.992188 44.84375 38.785156 46.09375 38.578125 C 47.351562 38.367188 48.613281 38.160156 49.875 37.953125 L 58.34375 35.125 C 60.4375 34.289062 62.523438 33.140625 64.609375 31.671875 C 71.515625 28.117188 78.3125 23.726562 85 18.5 C 89.1875 15.363281 92.53125 11.597656 95.03125 7.203125 C 97.539062 2.816406 99.84375 -1.253906 101.9375 -5.015625 C 112.394531 -20.285156 118.773438 -35.03125 121.078125 -49.25 C 121.492188 -51.539062 121.753906 -53.941406 121.859375 -56.453125 C 121.960938 -58.960938 121.804688 -61.367188 121.390625 -63.671875 L 121.078125 -66.8125 C 120.648438 -69.738281 119.753906 -72.5625 118.390625 -75.28125 C 117.035156 -78 115.421875 -80.613281 113.546875 -83.125 C 109.566406 -90.226562 103.710938 -96.8125 95.984375 -102.875 L 89.078125 -109.15625 C 86.984375 -111.457031 84.785156 -113.492188 82.484375 -115.265625 C 80.191406 -117.046875 77.6875 -118.875 74.96875 -120.75 C 72.25 -122.425781 69.945312 -123.890625 68.0625 -125.140625 C 66.175781 -126.398438 63.769531 -127.550781 60.84375 -128.59375 C 57.914062 -129.851562 54.46875 -131.210938 50.5 -132.671875 C 46.53125 -134.140625 43.078125 -135.601562 40.140625 -137.0625 L 35.125 -138.328125 C 33.664062 -139.785156 31.472656 -142.1875 28.546875 -145.53125 C 25.617188 -148.882812 23.734375 -151.5 22.890625 -153.375 C 23.097656 -153.789062 23.148438 -154.101562 23.046875 -154.3125 C 22.941406 -154.519531 22.992188 -154.734375 23.203125 -154.953125 C 22.992188 -155.992188 22.734375 -157.976562 22.421875 -160.90625 C 22.109375 -163.832031 22.054688 -165.398438 22.265625 -165.609375 C 21.640625 -164.984375 21.328125 -164.671875 21.328125 -164.671875 C 20.078125 -165.296875 18.351562 -167.539062 16.15625 -171.40625 C 13.957031 -175.28125 12.335938 -178.890625 11.296875 -182.234375 C 11.296875 -182.441406 11.03125 -183.273438 10.5 -184.734375 C 9.976562 -186.203125 9.507812 -187.664062 9.09375 -189.125 C 8.675781 -190.59375 8.46875 -191.328125 8.46875 -191.328125 L 8.46875 -191.953125 C 8.675781 -193.003906 9.039062 -193.476562 9.5625 -193.375 C 10.082031 -193.269531 10.453125 -193.425781 10.671875 -193.84375 L 10.671875 -195.40625 C 10.878906 -196.238281 10.878906 -196.757812 10.671875 -196.96875 C 10.671875 -197.394531 10.671875 -197.972656 10.671875 -198.703125 C 10.671875 -199.429688 10.773438 -200.210938 10.984375 -201.046875 C 10.773438 -201.890625 10.722656 -202.726562 10.828125 -203.5625 C 10.929688 -204.394531 11.085938 -205.234375 11.296875 -206.078125 C 11.503906 -206.910156 11.816406 -208.003906 12.234375 -209.359375 C 12.648438 -210.722656 13.171875 -211.613281 13.796875 -212.03125 C 15.472656 -216.84375 18.765625 -221.441406 23.671875 -225.828125 C 28.585938 -230.222656 34.023438 -234.144531 39.984375 -237.59375 C 45.953125 -241.039062 51.023438 -243.707031 55.203125 -245.59375 L 62.109375 -248.109375 C 68.171875 -250.398438 75.015625 -252.382812 82.640625 -254.0625 C 90.273438 -255.738281 97.648438 -256.992188 104.765625 -257.828125 C 105.804688 -259.492188 106.847656 -261.21875 107.890625 -263 C 108.941406 -264.78125 109.675781 -266.503906 110.09375 -268.171875 L 112.28125 -270.6875 C 112.5 -272.144531 113.753906 -273.085938 116.046875 -273.515625 C 119.179688 -273.515625 122.835938 -272.882812 127.015625 -271.625 C 131.203125 -270.375 135.175781 -268.753906 138.9375 -266.765625 C 142.707031 -264.773438 145.429688 -262.523438 147.109375 -260.015625 C 147.523438 -259.390625 148.359375 -258.289062 149.609375 -256.71875 C 150.867188 -255.15625 151.601562 -254.0625 151.8125 -253.4375 L 152.4375 -252.1875 C 152.851562 -252.1875 153.0625 -251.765625 153.0625 -250.921875 C 153.0625 -250.921875 153.375 -250.34375 154 -249.1875 C 154.632812 -248.039062 155.160156 -246.320312 155.578125 -244.03125 C 156.410156 -242.5625 157.035156 -240.675781 157.453125 -238.375 C 157.867188 -236.070312 157.867188 -233.773438 157.453125 -231.484375 C 157.242188 -230.640625 156.984375 -229.644531 156.671875 -228.5 C 156.359375 -227.351562 156.097656 -226.359375 155.890625 -225.515625 C 155.679688 -224.054688 155.472656 -223.328125 155.265625 -223.328125 C 155.054688 -223.328125 154.84375 -223.007812 154.625 -222.375 C 154.84375 -221.539062 155.054688 -220.96875 155.265625 -220.65625 C 155.472656 -220.34375 155.679688 -219.875 155.890625 -219.25 L 151.5 -209.515625 C 151.289062 -209.097656 150.816406 -208.472656 150.078125 -207.640625 C 149.347656 -206.804688 148.878906 -205.96875 148.671875 -205.125 L 148.046875 -202.9375 C 147.628906 -201.675781 147.109375 -201.046875 146.484375 -201.046875 C 146.265625 -200.835938 145.738281 -201.15625 144.90625 -202 C 143.445312 -200.945312 141.773438 -200.421875 139.890625 -200.421875 C 138.421875 -201.054688 136.222656 -201.6875 133.296875 -202.3125 C 131.835938 -201.46875 130.6875 -200.941406 129.84375 -200.734375 C 129.007812 -200.523438 128.175781 -200.421875 127.34375 -200.421875 C 126.71875 -200.421875 126.035156 -200.472656 125.296875 -200.578125 C 124.566406 -200.679688 123.679688 -200.835938 122.640625 -201.046875 C 119.085938 -201.679688 116.421875 -203.359375 114.640625 -206.078125 C 112.859375 -208.796875 112.179688 -211.515625 112.609375 -214.234375 C 113.234375 -216.109375 113.859375 -217.046875 114.484375 -217.046875 C 114.898438 -217.046875 115.367188 -216.941406 115.890625 -216.734375 C 116.421875 -216.523438 117.101562 -216.316406 117.9375 -216.109375 C 119.394531 -215.898438 120.070312 -214.957031 119.96875 -213.28125 C 119.863281 -211.613281 119.8125 -210.046875 119.8125 -208.578125 C 119.8125 -207.117188 120.648438 -206.179688 122.328125 -205.765625 C 122.742188 -205.765625 123.160156 -205.707031 123.578125 -205.59375 C 123.992188 -205.488281 124.304688 -205.4375 124.515625 -205.4375 C 127.234375 -205.4375 129.742188 -206.484375 132.046875 -208.578125 C 134.347656 -210.671875 135.914062 -213.703125 136.75 -217.671875 C 136.539062 -220.597656 135.804688 -223.367188 134.546875 -225.984375 C 133.296875 -228.597656 132.046875 -230.21875 130.796875 -230.84375 C 129.742188 -230.84375 129.21875 -230.84375 129.21875 -230.84375 C 128.382812 -231.6875 127.03125 -232.210938 125.15625 -232.421875 C 124.3125 -232.628906 122.953125 -232.734375 121.078125 -232.734375 L 118.5625 -232.734375 L 115.109375 -233.046875 C 102.984375 -232.835938 92.84375 -230.847656 84.6875 -227.078125 C 76.53125 -223.316406 70.046875 -219.140625 65.234375 -214.546875 C 63.148438 -213.492188 60.066406 -211.609375 55.984375 -208.890625 C 51.910156 -206.171875 48.144531 -203.242188 44.6875 -200.109375 C 41.238281 -196.972656 39.203125 -194.148438 38.578125 -191.640625 C 38.578125 -191.015625 39.207031 -190.285156 40.46875 -189.453125 C 40.46875 -188.816406 40.570312 -188.289062 40.78125 -187.875 C 40.570312 -186.207031 41.878906 -184.222656 44.703125 -181.921875 C 47.523438 -179.617188 51.128906 -177.316406 55.515625 -175.015625 C 57.816406 -172.296875 60.742188 -170.046875 64.296875 -168.265625 C 67.847656 -166.492188 70.773438 -165.085938 73.078125 -164.046875 L 79.671875 -160.90625 C 81.335938 -159.226562 83.320312 -157.601562 85.625 -156.03125 C 87.925781 -154.46875 89.597656 -153.164062 90.640625 -152.125 C 90.429688 -151.914062 90.328125 -151.707031 90.328125 -151.5 C 90.328125 -151.5 90.585938 -151.023438 91.109375 -150.078125 C 91.640625 -149.140625 92.945312 -147.941406 95.03125 -146.484375 L 100.6875 -143.34375 C 104.03125 -141.457031 108.316406 -139.15625 113.546875 -136.4375 C 118.773438 -133.71875 123.894531 -130.84375 128.90625 -127.8125 C 133.925781 -124.78125 137.796875 -121.800781 140.515625 -118.875 L 146.796875 -111.03125 C 147.835938 -109.570312 148.828125 -108.210938 149.765625 -106.953125 C 150.710938 -105.703125 151.289062 -104.550781 151.5 -103.5 C 152.539062 -101 154.316406 -97.757812 156.828125 -93.78125 C 159.335938 -89.8125 161.320312 -86.363281 162.78125 -83.4375 L 166.546875 -75.90625 L 168.125 -57.40625 L 169.0625 -51.4375 C 169.0625 -51.226562 168.90625 -51.125 168.59375 -51.125 C 168.28125 -51.125 168.125 -51.019531 168.125 -50.8125 Z M 168.125 -50.8125 "/></g></g></g></svg>