<svg xmlns="http://www.w3.org/2000/svg" xmlns:xlink="http://www.w3.org/1999/xlink" width="1080" zoomAndPan="magnify" viewBox="0 0 810 809.999993" height="1080" preserveAspectRatio="xMidYMid meet" version="1.0"><defs><g/><clipPath id="1b3e7f6335"><rect x="0" width="399" y="0" height="694"/></clipPath><clipPath id="6a4d2f0e50"><rect x="0" width="804" y="0" height="783"/></clipPath></defs><g transform="matrix(1, 0, 0, 1, 6, 27)"><g clip-path="url(#6a4d2f0e50)"><g transform="matrix(1, 0, 0, 1, 405, 89)"><g clip-path="url(#1b3e7f6335)"><g fill="#006128" fill-opacity="1"><g transform="translate(40.9254, 570.577801)"><g><path d="M 320.71875 -480.421875 C 324.65625 -474.792969 328.082031 -468.144531 330.992188 -460.46875 C 333.488281 -453.882812 335.445312 -448 336.859375 -442.816406 L 314.789062 -436.796875 L 335.90625 -445.597656 C 340.332031 -434.96875 340.78125 -425.238281 337.25 -416.40625 C 337.59375 -417.269531 337.773438 -417.890625 337.792969 -418.273438 C 337.757812 -417.527344 337.84375 -416.441406 338.046875 -415.019531 L 338.273438 -413.410156 L 338.273438 -401.699219 L 331.574219 -395 C 332.917969 -396.34375 333.9375 -397.714844 334.640625 -399.113281 L 333.417969 -396.675781 L 312.957031 -406.90625 L 335.605469 -410.140625 L 337.664062 -395.71875 L 337.664062 -394.09375 C 337.664062 -390.085938 336.757812 -386.269531 334.945312 -382.644531 C 336.351562 -385.457031 337.054688 -388.257812 337.054688 -391.042969 L 314.175781 -391.042969 L 337.035156 -391.996094 C 337.511719 -380.582031 336.382812 -367.144531 333.65625 -351.683594 C 331.734375 -341.121094 328.550781 -330.335938 324.101562 -319.328125 C 319.773438 -308.621094 314.4375 -298.058594 308.097656 -287.640625 L 288.554688 -299.535156 L 310.75 -293.988281 L 309.53125 -289.109375 L 308.40625 -286.863281 C 307.496094 -285.046875 305.46875 -281.195312 302.316406 -275.3125 C 299.421875 -269.90625 296.722656 -264.609375 294.222656 -259.414062 C 293.144531 -257.171875 292.375 -255.476562 291.921875 -254.320312 L 291.871094 -254.238281 C 292.304688 -255.742188 292.519531 -257.417969 292.519531 -259.273438 L 292.519531 -253.871094 L 290.105469 -249.042969 C 284.242188 -237.3125 277.65625 -224.976562 270.347656 -212.03125 C 263.566406 -200.023438 257.472656 -188.023438 252.058594 -176.039062 C 247.746094 -166.554688 243.019531 -157.09375 237.871094 -147.660156 C 233.121094 -138.949219 228.570312 -130.246094 224.21875 -121.539062 L 222.558594 -118.21875 L 219.933594 -115.59375 C 220.597656 -116.257812 221.140625 -116.910156 221.574219 -117.554688 C 223.726562 -120.789062 224.804688 -124.511719 224.804688 -128.722656 C 224.804688 -130.382812 224.515625 -132.082031 223.9375 -133.820312 C 224.921875 -130.863281 225.414062 -127.738281 225.414062 -124.449219 L 225.414062 -117.121094 L 221.152344 -111.152344 C 218.878906 -107.96875 216.390625 -104.6875 213.691406 -101.3125 C 211.398438 -98.449219 209.105469 -95.484375 206.808594 -92.421875 L 188.507812 -106.148438 L 210.210938 -98.914062 C 208.257812 -93.058594 205.601562 -88.453125 202.242188 -85.09375 L 186.066406 -101.269531 L 208.765625 -104.105469 C 209.542969 -97.898438 208.542969 -92.015625 205.765625 -86.460938 C 203.445312 -81.820312 200.03125 -77.804688 195.523438 -74.425781 C 195.234375 -74.210938 195.027344 -74.027344 194.894531 -73.875 C 194.898438 -73.875 194.910156 -73.902344 194.9375 -73.957031 L 194.652344 -73.386719 L 191.160156 -67.273438 L 171.039062 -40.769531 C 164.921875 -32.675781 159.097656 -24.679688 153.5625 -16.773438 L 141.238281 0.484375 L 122.621094 -12.8125 L 142.484375 -1.460938 C 139.734375 3.351562 135.703125 8.265625 130.398438 13.277344 C 127.398438 16.109375 125.175781 18.394531 123.722656 20.136719 L 123.058594 20.933594 L 121.714844 22.277344 C 116.84375 27.152344 111.144531 29.589844 104.625 29.589844 L 104.320312 29.589844 L 104.320312 6.710938 L 118.609375 24.574219 L 115.558594 27.015625 L 101.269531 9.152344 L 117.445312 25.328125 C 111.203125 31.566406 104.410156 35.609375 97.054688 37.445312 L 94.324219 38.128906 L 91.507812 38.128906 C 86.429688 38.128906 80.335938 37.65625 73.234375 36.707031 C 62.570312 35.285156 53.878906 31.636719 47.160156 25.757812 L 62.226562 8.539062 L 51.996094 29.003906 L 45.011719 25.511719 L 40.558594 21.058594 C 41.074219 21.570312 41.625 22.007812 42.21875 22.363281 C 38.261719 19.988281 34.925781 16.765625 32.210938 12.691406 L 51.246094 0 L 44.960938 21.996094 C 39.734375 20.503906 35.246094 17.878906 31.484375 14.117188 C 27.972656 10.605469 25.394531 6.378906 23.746094 1.4375 C 23.207031 -0.179688 22.5 -1.753906 21.621094 -3.289062 C 21.53125 -3.433594 21.335938 -3.65625 21.035156 -3.953125 C 18.8125 -6.179688 16.625 -8.636719 14.46875 -11.332031 L 13.355469 -12.722656 L 12.46875 -14.273438 C 10.890625 -17.035156 9.109375 -20.105469 7.125 -23.480469 C 4.828125 -27.382812 2.546875 -31.601562 0.28125 -36.132812 C -7.003906 -50.695312 -11.617188 -66 -13.558594 -82.042969 C -15.296875 -96.378906 -16.167969 -110.71875 -16.167969 -125.0625 L -16.167969 -125.582031 L -16.144531 -126.101562 C -15.722656 -135.347656 -15.09375 -144.902344 -14.253906 -154.757812 C -13.417969 -164.578125 -12.375 -174.703125 -11.125 -185.132812 L -6.761719 -223.761719 L -6.570312 -224.714844 C -6.890625 -223.125 -6.746094 -221.261719 -6.136719 -219.128906 C -7.664062 -224.480469 -7.730469 -229.949219 -6.332031 -235.539062 L 15.863281 -229.988281 L -7.015625 -229.988281 L -7.015625 -243.714844 C -7.015625 -247.757812 -7.191406 -251.90625 -7.546875 -256.152344 L -7.691406 -257.890625 L -5.085938 -295.644531 L -5.007812 -296.273438 C -4.5625 -299.835938 -4.011719 -303.601562 -3.347656 -307.566406 C -2.808594 -310.816406 -2.355469 -314.066406 -1.996094 -317.3125 C -0.777344 -327.480469 0.335938 -337.476562 1.339844 -347.308594 C 2.34375 -357.160156 3.246094 -366.703125 4.050781 -375.945312 L 26.84375 -373.960938 L 3.964844 -373.960938 L 3.964844 -375.675781 L 5.933594 -396.003906 L 5.972656 -396.320312 C 6.261719 -398.632812 6.40625 -400.941406 6.40625 -403.246094 L 6.40625 -413.820312 L 6.464844 -414.636719 C 6.832031 -419.789062 7.015625 -424.835938 7.015625 -429.78125 C 7.015625 -433.898438 6.730469 -437.515625 6.164062 -440.636719 L 5.796875 -442.667969 L 5.796875 -444.730469 C 5.796875 -443.066406 6.085938 -441.367188 6.664062 -439.628906 C 5.679688 -442.585938 5.183594 -445.507812 5.183594 -448.390625 L 28.0625 -448.390625 L 5.453125 -444.910156 L 4.230469 -452.839844 L 26.84375 -456.320312 L 6.378906 -446.089844 C 4.363281 -450.121094 3.355469 -454.144531 3.355469 -458.148438 C 3.355469 -452.238281 5.386719 -447.253906 9.445312 -443.195312 L 2.746094 -449.894531 L 2.746094 -459.371094 C 2.746094 -454.273438 4.773438 -449.695312 8.835938 -445.632812 L 2.136719 -452.335938 L 2.136719 -479.863281 L 22.878906 -498.71875 L 32.332031 -498.71875 C 28.9375 -498.71875 25.679688 -497.9375 22.558594 -496.378906 C 18.988281 -494.59375 16.089844 -492.035156 13.871094 -488.703125 C 11.332031 -484.898438 10.066406 -480.714844 10.066406 -476.148438 C 10.066406 -480.816406 11.359375 -485.089844 13.945312 -488.96875 C 16.21875 -492.378906 19.191406 -495 22.863281 -496.835938 C 26.1875 -498.5 29.75 -499.328125 33.554688 -499.328125 L 35.382812 -499.328125 L 35.382812 -476.453125 L 26.089844 -497.355469 C 32.710938 -500.296875 39.46875 -501.769531 46.363281 -501.769531 L 46.363281 -478.890625 L 33.246094 -497.632812 C 38.957031 -501.632812 44.996094 -504.789062 51.355469 -507.101562 C 57.042969 -509.171875 62.761719 -510.726562 68.503906 -511.769531 L 69.695312 -511.988281 L 96.339844 -513.960938 L 103.359375 -508.347656 C 105.792969 -506.398438 108.417969 -504.132812 111.238281 -501.550781 C 115.039062 -498.066406 118.261719 -494.335938 120.914062 -490.363281 L 124.757812 -484.597656 L 124.757812 -476.453125 L 101.878906 -476.453125 L 120.011719 -490.398438 C 125.757812 -482.929688 129.847656 -475.238281 132.285156 -467.316406 L 110.417969 -460.589844 L 131.09375 -470.382812 C 135.71875 -460.621094 138.808594 -450.554688 140.363281 -440.191406 L 140.617188 -438.503906 L 140.617188 -428.257812 C 140.617188 -434.167969 138.484375 -439.253906 134.222656 -443.519531 L 141.226562 -436.511719 L 141.226562 -381.894531 C 141.226562 -372.808594 140.902344 -363.722656 140.253906 -354.640625 C 139.628906 -345.886719 138.898438 -337.332031 138.0625 -328.984375 L 115.300781 -331.257812 L 138.125 -329.738281 L 137.453125 -319.617188 L 130.59375 -274.730469 L 107.980469 -278.183594 L 130.855469 -278.183594 C 130.855469 -265.492188 129.730469 -252.605469 127.472656 -239.523438 L 121.363281 -204.683594 L 118.171875 -185.535156 L 117.902344 -184.515625 C 116.640625 -179.722656 116.414062 -174.355469 117.226562 -168.414062 C 118.527344 -158.863281 119.398438 -150.121094 119.839844 -142.191406 L 119.875 -141.558594 L 119.875 -140.921875 C 119.875 -138.289062 119.972656 -133.414062 120.171875 -126.304688 C 120.382812 -118.773438 120.484375 -111.039062 120.484375 -103.097656 L 97.609375 -103.097656 L 120.453125 -104.300781 C 120.871094 -96.402344 121.183594 -89.015625 121.390625 -82.136719 C 121.480469 -79.132812 121.589844 -76.820312 121.714844 -75.191406 C 121.757812 -74.652344 121.789062 -74.285156 121.816406 -74.085938 C 121.714844 -74.84375 121.488281 -75.742188 121.140625 -76.78125 L 123.0625 -71.015625 L 121.871094 -65.058594 C 121.894531 -65.179688 121.910156 -65.261719 121.910156 -65.304688 C 121.90625 -65.167969 121.910156 -64.976562 121.933594 -64.734375 C 122.0625 -63.164062 122.246094 -61.789062 122.480469 -60.613281 L 122.605469 -59.988281 L 122.695312 -59.359375 C 122.753906 -58.964844 122.941406 -58.449219 123.257812 -57.816406 C 122.15625 -60.015625 120.457031 -61.882812 118.152344 -63.417969 C 115.378906 -65.265625 112.394531 -66.191406 109.199219 -66.191406 C 107.226562 -66.191406 105.035156 -65.589844 102.628906 -64.386719 L 103.480469 -64.8125 L 104.363281 -65.164062 L 104.355469 -65.199219 C 104.855469 -65.5 105.460938 -65.917969 106.171875 -66.453125 C 108.113281 -67.921875 110.421875 -69.953125 113.101562 -72.546875 C 119.054688 -78.324219 126.796875 -87.304688 136.316406 -99.492188 L 154.34375 -85.40625 L 135.308594 -98.097656 L 137.75 -101.757812 L 156.785156 -89.066406 L 133.90625 -89.066406 C 133.90625 -96.199219 136.34375 -102.199219 141.21875 -107.074219 L 157.394531 -90.898438 L 138.359375 -103.589844 L 145.078125 -113.667969 L 145.789062 -114.535156 C 148.976562 -118.433594 151.992188 -122.511719 154.832031 -126.769531 C 157.832031 -131.269531 160.636719 -135.761719 163.253906 -140.25 L 164.746094 -142.804688 L 166.839844 -144.898438 C 162.777344 -140.835938 160.75 -135.851562 160.75 -129.941406 L 160.75 -136.503906 L 164.226562 -142.066406 C 166.152344 -145.144531 168.078125 -148.324219 170.007812 -151.605469 C 171.777344 -154.617188 173.359375 -157.515625 174.753906 -160.304688 L 195.21875 -150.074219 L 173.976562 -158.570312 L 175.75 -163.003906 L 176.476562 -164.300781 C 182.054688 -174.257812 187.53125 -184.417969 192.910156 -194.777344 C 198.054688 -204.6875 202.519531 -214.375 206.308594 -223.84375 L 227.550781 -215.347656 L 204.671875 -215.347656 L 204.671875 -222.058594 L 206.664062 -226.511719 C 214.710938 -244.523438 221.21875 -262.804688 226.195312 -281.363281 C 231.238281 -300.179688 235.121094 -319.292969 237.835938 -338.703125 L 238.070312 -340.367188 L 238.546875 -341.984375 C 240.113281 -347.320312 241.042969 -352.015625 241.332031 -356.070312 L 241.390625 -356.875 L 242.726562 -366.21875 C 243.46875 -371.417969 244.023438 -376.414062 244.394531 -381.207031 C 244.753906 -385.910156 244.9375 -390.410156 244.9375 -394.703125 L 244.9375 -395.519531 L 244.996094 -396.335938 C 245.339844 -401.167969 245.429688 -405.59375 245.261719 -409.613281 C 245.042969 -414.8125 244.9375 -419.601562 244.9375 -423.988281 L 244.9375 -426.492188 L 245.859375 -432.019531 L 268.421875 -428.257812 L 245.546875 -428.257812 C 245.546875 -433.171875 246.140625 -437.414062 247.332031 -440.980469 L 269.035156 -433.746094 L 246.332031 -430.910156 C 245.949219 -433.976562 245.464844 -437.453125 244.882812 -441.335938 C 244.351562 -444.875 243.738281 -448.214844 243.039062 -451.355469 L 265.375 -456.320312 L 243.523438 -449.539062 L 237.316406 -469.535156 L 237.097656 -471.941406 C 236.953125 -473.546875 236.507812 -475.097656 235.761719 -476.589844 L 234.636719 -478.835938 L 230.367188 -495.914062 L 252.5625 -501.464844 L 234.261719 -487.738281 C 233.339844 -488.964844 232.582031 -489.925781 231.988281 -490.617188 C 231.832031 -490.800781 231.722656 -490.925781 231.660156 -490.988281 C 231.847656 -490.792969 232.101562 -490.5625 232.425781 -490.292969 C 227.871094 -494.089844 224.707031 -498.652344 222.929688 -503.992188 L 244.632812 -511.226562 L 230.90625 -492.921875 C 223.175781 -498.71875 219.3125 -506.039062 219.3125 -514.886719 C 219.3125 -519.605469 220.621094 -523.921875 223.230469 -527.84375 C 225.53125 -531.289062 228.539062 -533.941406 232.265625 -535.804688 C 235.6875 -537.515625 239.402344 -538.371094 243.410156 -538.371094 L 244.019531 -538.371094 L 244.019531 -515.496094 L 233.789062 -535.957031 C 233.203125 -535.664062 232.441406 -535.046875 231.503906 -534.113281 C 235.304688 -537.914062 240.066406 -540.527344 245.792969 -541.960938 L 248.527344 -542.644531 L 251.34375 -542.644531 C 259.285156 -542.644531 267.117188 -538.78125 274.839844 -531.0625 L 258.664062 -514.886719 L 268.894531 -535.347656 C 269.140625 -535.222656 271.511719 -534.265625 276.003906 -532.464844 C 279.238281 -531.171875 281.875 -529.996094 283.910156 -528.941406 C 289.6875 -525.945312 293.785156 -522.027344 296.207031 -517.183594 L 275.742188 -506.953125 L 291.3125 -523.71875 C 298.589844 -516.957031 304.921875 -509.089844 310.308594 -500.117188 C 314.972656 -492.34375 319.097656 -484.652344 322.675781 -477.042969 L 301.976562 -467.300781 Z M 283.234375 -454.179688 L 282.109375 -455.785156 L 281.277344 -457.558594 C 278.351562 -463.777344 274.949219 -470.117188 271.074219 -476.578125 C 267.917969 -481.839844 264.285156 -486.375 260.175781 -490.191406 L 257.136719 -493.011719 L 255.28125 -496.722656 C 256.886719 -493.515625 259.046875 -490.949219 261.761719 -489.023438 C 262.230469 -488.6875 262.59375 -488.453125 262.847656 -488.324219 C 262.140625 -488.691406 260.859375 -489.246094 259.011719 -489.984375 C 253.339844 -492.253906 249.8125 -493.734375 248.429688 -494.421875 L 245.109375 -496.082031 L 242.484375 -498.707031 C 242.085938 -499.109375 241.753906 -499.421875 241.488281 -499.652344 C 241.4375 -499.691406 241.40625 -499.71875 241.398438 -499.726562 C 241.476562 -499.664062 241.578125 -499.59375 241.703125 -499.511719 C 244.324219 -497.761719 247.539062 -496.886719 251.34375 -496.886719 L 251.34375 -519.765625 L 256.890625 -497.570312 C 259.363281 -498.1875 261.683594 -499.585938 263.859375 -501.757812 C 261.292969 -499.195312 258.09375 -496.953125 254.253906 -495.03125 L 249.421875 -492.617188 L 243.410156 -492.617188 C 246.605469 -492.617188 249.710938 -493.371094 252.726562 -494.878906 C 256.25 -496.640625 259.105469 -499.167969 261.300781 -502.460938 C 263.8125 -506.226562 265.070312 -510.367188 265.070312 -514.886719 C 265.070312 -518.894531 263.992188 -522.511719 261.835938 -525.746094 C 260.792969 -527.308594 259.632812 -528.570312 258.359375 -529.527344 L 264.074219 -525.238281 L 266.335938 -518.460938 C 265.371094 -521.355469 263.832031 -523.683594 261.71875 -525.445312 C 264.304688 -523.289062 267.355469 -519.867188 270.863281 -515.191406 L 273.636719 -511.496094 L 278.417969 -492.371094 L 256.222656 -486.824219 L 276.683594 -497.054688 C 280.003906 -490.414062 282 -483.421875 282.667969 -476.082031 L 259.882812 -474.011719 L 281.730469 -480.792969 L 287.5 -462.203125 L 287.707031 -461.28125 C 288.632812 -457.101562 289.445312 -452.714844 290.132812 -448.121094 C 290.769531 -443.871094 291.304688 -440.023438 291.734375 -436.585938 L 292.378906 -431.4375 L 290.738281 -426.511719 C 291.042969 -427.4375 291.238281 -428.242188 291.3125 -428.933594 C 291.304688 -428.859375 291.300781 -428.632812 291.300781 -428.257812 L 291.300781 -426.363281 L 290.378906 -420.835938 L 267.8125 -424.597656 L 290.691406 -424.597656 L 290.691406 -423.988281 C 290.691406 -420.238281 290.785156 -416.082031 290.976562 -411.519531 C 291.214844 -405.777344 291.101562 -399.628906 290.632812 -393.074219 L 267.8125 -394.703125 L 290.691406 -394.703125 C 290.691406 -389.238281 290.464844 -383.570312 290.011719 -377.699219 C 289.570312 -371.917969 288.902344 -365.933594 288.019531 -359.746094 L 286.800781 -351.207031 L 264.152344 -354.441406 L 286.972656 -352.8125 C 286.449219 -345.476562 284.9375 -337.566406 282.441406 -329.074219 L 260.492188 -335.53125 L 283.148438 -332.359375 C 280.171875 -311.09375 275.917969 -290.148438 270.390625 -269.515625 C 264.789062 -248.621094 257.472656 -228.066406 248.4375 -207.847656 L 227.550781 -217.179688 L 250.425781 -217.179688 L 250.425781 -210.941406 L 248.789062 -206.851562 C 244.445312 -195.988281 239.355469 -184.933594 233.515625 -173.695312 C 227.914062 -162.90625 222.210938 -152.324219 216.398438 -141.945312 L 196.4375 -153.125 L 217.679688 -144.628906 L 216.105469 -140.691406 L 215.679688 -139.84375 C 213.820312 -136.125 211.742188 -132.3125 209.445312 -128.40625 C 207.308594 -124.773438 205.167969 -121.242188 203.027344 -117.816406 L 183.625 -129.941406 L 206.503906 -129.941406 C 206.503906 -123.21875 204.066406 -117.417969 199.191406 -112.542969 L 183.015625 -128.722656 L 202.777344 -117.195312 C 199.699219 -111.917969 196.40625 -106.652344 192.898438 -101.390625 C 189.234375 -95.890625 185.332031 -90.613281 181.199219 -85.5625 L 163.496094 -100.046875 L 182.53125 -87.359375 L 175.171875 -76.324219 L 173.570312 -74.722656 C 177.628906 -78.78125 179.660156 -83.5625 179.660156 -89.066406 L 179.660156 -82.140625 L 172.902344 -72 L 172.371094 -71.324219 C 161.558594 -57.480469 152.417969 -46.941406 144.953125 -39.703125 C 136.082031 -31.101562 128.214844 -25.425781 121.355469 -22.683594 L 112.859375 -43.925781 L 123.089844 -23.460938 C 119.058594 -21.445312 114.425781 -20.4375 109.199219 -20.4375 C 103.160156 -20.4375 97.683594 -22.074219 92.773438 -25.347656 C 88.335938 -28.304688 84.855469 -32.308594 82.332031 -37.351562 C 79.800781 -42.414062 78.15625 -47.59375 77.402344 -52.890625 L 100.046875 -56.125 L 77.617188 -51.636719 C 77.039062 -54.527344 76.609375 -57.625 76.335938 -60.9375 C 75.953125 -65.523438 76.175781 -69.886719 77.003906 -74.03125 L 99.4375 -69.546875 L 77.734375 -62.3125 C 76.621094 -65.65625 75.929688 -71.800781 75.65625 -80.75 C 75.457031 -87.289062 75.160156 -94.339844 74.761719 -101.898438 L 74.730469 -102.496094 L 74.730469 -103.097656 C 74.730469 -110.613281 74.632812 -117.925781 74.433594 -125.035156 C 74.226562 -132.566406 74.121094 -137.863281 74.121094 -140.921875 L 97 -140.921875 L 74.15625 -139.652344 C 73.785156 -146.363281 73.027344 -153.890625 71.890625 -162.234375 C 70.261719 -174.1875 70.847656 -185.496094 73.65625 -196.160156 L 95.777344 -190.335938 L 73.210938 -194.097656 L 76.296875 -212.589844 L 82.382812 -247.296875 C 84.195312 -257.804688 85.101562 -268.101562 85.101562 -278.183594 L 85.101562 -279.921875 L 92.074219 -325.5625 L 114.691406 -322.109375 L 91.863281 -323.628906 L 92.5 -333.160156 L 92.535156 -333.535156 C 93.328125 -341.453125 94.019531 -349.574219 94.617188 -357.902344 C 95.1875 -365.898438 95.472656 -373.898438 95.472656 -381.894531 L 95.472656 -427.039062 L 118.351562 -427.039062 L 102.171875 -410.859375 L 101.867188 -411.164062 C 97.199219 -415.835938 94.863281 -421.535156 94.863281 -428.257812 L 94.863281 -436.796875 L 117.742188 -436.796875 L 95.117188 -433.40625 C 94.230469 -439.308594 92.441406 -445.105469 89.746094 -450.796875 L 89.039062 -452.285156 L 88.554688 -453.863281 C 87.738281 -456.519531 86.132812 -459.398438 83.746094 -462.503906 L 79 -468.671875 L 79 -477.671875 L 101.878906 -477.671875 L 82.84375 -464.980469 C 82.242188 -465.886719 81.398438 -466.832031 80.320312 -467.824219 C 78.257812 -469.714844 76.410156 -471.3125 74.777344 -472.617188 L 89.066406 -490.484375 L 90.757812 -467.667969 L 74.285156 -466.449219 L 72.597656 -489.261719 L 76.6875 -466.753906 C 73.484375 -466.171875 70.253906 -465.289062 66.992188 -464.101562 C 64.40625 -463.164062 61.90625 -461.84375 59.484375 -460.148438 L 53.574219 -456.015625 L 46.363281 -456.015625 C 45.941406 -456.015625 45.378906 -455.859375 44.675781 -455.546875 L 40.238281 -453.574219 L 33.554688 -453.574219 C 36.949219 -453.574219 40.207031 -454.355469 43.328125 -455.914062 C 46.898438 -457.699219 49.792969 -460.257812 52.015625 -463.589844 C 54.550781 -467.394531 55.820312 -471.578125 55.820312 -476.148438 C 55.820312 -471.476562 54.527344 -467.203125 51.941406 -463.324219 C 49.667969 -459.914062 46.695312 -457.292969 43.019531 -455.457031 C 39.699219 -453.792969 36.136719 -452.964844 32.332031 -452.964844 L 31.722656 -452.964844 L 31.722656 -475.839844 L 47.113281 -458.914062 L 40.402344 -452.8125 L 25.011719 -469.742188 L 47.890625 -469.742188 L 47.890625 -461.808594 L 25.011719 -461.808594 L 41.1875 -477.988281 C 46.0625 -473.113281 48.5 -466.90625 48.5 -459.371094 L 25.621094 -459.371094 L 41.800781 -475.546875 C 46.671875 -470.671875 49.109375 -464.875 49.109375 -458.148438 C 49.109375 -461.34375 48.507812 -464.144531 47.304688 -466.550781 L 48.910156 -463.34375 L 50.941406 -450.140625 L 50.941406 -448.390625 C 50.941406 -450.457031 50.648438 -452.359375 50.070312 -454.097656 C 51.058594 -451.140625 51.550781 -448.015625 51.550781 -444.730469 L 28.671875 -444.730469 L 51.179688 -448.820312 C 52.238281 -442.996094 52.769531 -436.648438 52.769531 -429.78125 C 52.769531 -423.75 52.546875 -417.613281 52.101562 -411.375 L 29.28125 -413.007812 L 52.160156 -413.007812 L 52.160156 -403.246094 C 52.160156 -399.042969 51.898438 -394.84375 51.375 -390.648438 L 28.671875 -393.484375 L 51.445312 -391.28125 L 49.613281 -372.371094 L 26.84375 -374.574219 L 49.71875 -374.574219 L 49.71875 -372.96875 L 49.632812 -371.980469 C 48.808594 -362.511719 47.882812 -352.742188 46.855469 -342.664062 C 45.824219 -332.5625 44.699219 -322.429688 43.480469 -312.261719 C 43.027344 -308.1875 42.460938 -304.117188 41.78125 -300.046875 C 41.222656 -296.691406 40.761719 -293.542969 40.390625 -290.597656 L 17.691406 -293.4375 L 40.515625 -291.863281 L 38.074219 -256.480469 L 15.25 -258.050781 L 38.050781 -259.953125 C 38.507812 -254.441406 38.738281 -249.027344 38.738281 -243.714844 L 38.738281 -227.171875 L 38.054688 -224.441406 C 38.640625 -226.777344 38.574219 -229.195312 37.859375 -231.699219 C 39.28125 -226.722656 39.425781 -221.402344 38.292969 -215.742188 L 15.863281 -220.230469 L 38.59375 -217.664062 L 34.304688 -179.679688 C 33.117188 -169.773438 32.125 -160.171875 31.335938 -150.878906 C 30.546875 -141.621094 29.957031 -132.667969 29.5625 -124.023438 L 6.710938 -125.0625 L 29.589844 -125.0625 C 29.589844 -112.5625 30.347656 -100.058594 31.863281 -87.550781 C 33.171875 -76.75 36.285156 -66.433594 41.203125 -56.59375 C 43.003906 -52.992188 44.789062 -49.6875 46.5625 -46.675781 C 48.644531 -43.136719 50.523438 -39.902344 52.195312 -36.972656 L 32.332031 -25.621094 L 50.195312 -39.914062 C 51.296875 -38.539062 52.359375 -37.339844 53.390625 -36.308594 C 56.34375 -33.355469 58.996094 -29.914062 61.347656 -25.992188 C 63.722656 -21.832031 65.65625 -17.511719 67.152344 -13.03125 C 66.523438 -14.921875 65.417969 -16.65625 63.835938 -18.234375 C 62.007812 -20.0625 59.90625 -21.316406 57.53125 -21.996094 L 65.613281 -19.6875 L 70.28125 -12.691406 C 69.191406 -14.324219 67.683594 -15.71875 65.761719 -16.871094 C 68.386719 -15.296875 70.769531 -13.4375 72.910156 -11.296875 L 74.742188 -9.464844 L 58.566406 6.710938 L 68.796875 -13.75 L 75.082031 -10.609375 L 77.289062 -8.675781 C 76.914062 -9.007812 76.652344 -9.199219 76.511719 -9.253906 C 77.132812 -9.011719 78.054688 -8.808594 79.28125 -8.644531 C 84.378906 -7.964844 88.453125 -7.625 91.507812 -7.625 L 91.507812 15.25 L 85.960938 -6.941406 C 85.246094 -6.765625 84.679688 -6.546875 84.261719 -6.285156 C 84.417969 -6.378906 84.695312 -6.628906 85.09375 -7.027344 L 85.988281 -7.921875 L 96.292969 -16.167969 L 104.625 -16.167969 C 98.511719 -16.167969 93.421875 -14.136719 89.363281 -10.074219 L 89.972656 -10.6875 L 106.148438 5.492188 L 88.574219 -9.15625 C 91.191406 -12.292969 94.660156 -15.90625 98.980469 -19.988281 C 100.996094 -21.890625 102.253906 -23.28125 102.757812 -24.160156 L 103.332031 -25.167969 L 116.078125 -43.011719 C 121.933594 -51.375 128.105469 -59.847656 134.597656 -68.429688 L 153.8125 -93.75 L 172.035156 -79.917969 L 152.171875 -91.265625 L 154.613281 -95.539062 L 174.476562 -84.1875 L 154.011719 -94.417969 C 157.25 -100.890625 161.9375 -106.429688 168.070312 -111.03125 C 166.816406 -110.089844 165.738281 -108.722656 164.839844 -106.925781 C 163.488281 -104.21875 162.996094 -101.386719 163.367188 -98.429688 L 161.976562 -109.535156 L 169.890625 -117.445312 C 168.546875 -116.101562 167.523438 -114.730469 166.824219 -113.328125 L 166.804688 -113.382812 L 167.976562 -116.90625 L 170.203125 -119.875 C 172.789062 -123.320312 175.375 -126.660156 177.964844 -129.894531 C 180.144531 -132.621094 182.128906 -135.238281 183.921875 -137.75 L 202.539062 -124.449219 L 179.660156 -124.449219 C 179.660156 -122.789062 179.949219 -121.089844 180.53125 -119.351562 C 179.542969 -122.308594 179.050781 -125.433594 179.050781 -128.722656 C 179.050781 -133.746094 180.535156 -138.484375 183.503906 -142.9375 C 184.746094 -144.804688 186.105469 -146.472656 187.582031 -147.949219 L 203.757812 -131.773438 L 183.296875 -142.003906 C 187.890625 -151.195312 192.695312 -160.382812 197.707031 -169.570312 C 202.320312 -178.027344 206.539062 -186.464844 210.359375 -194.871094 C 216.335938 -208.105469 223.050781 -221.320312 230.503906 -234.527344 C 237.433594 -246.800781 243.660156 -258.457031 249.179688 -269.503906 L 269.644531 -259.273438 L 246.765625 -259.273438 C 246.765625 -263.972656 248.84375 -270.636719 252.996094 -279.261719 C 255.78125 -285.050781 258.777344 -290.933594 261.984375 -296.917969 C 264.933594 -302.421875 266.765625 -305.890625 267.484375 -307.328125 L 287.945312 -297.097656 L 265.75 -302.644531 L 267.203125 -308.460938 L 269.011719 -311.429688 C 274.0625 -319.722656 278.285156 -328.074219 281.683594 -336.476562 C 284.960938 -344.585938 287.265625 -352.304688 288.597656 -359.636719 C 290.75 -371.832031 291.65625 -381.984375 291.320312 -390.09375 L 291.300781 -390.566406 L 291.300781 -391.042969 C 291.300781 -395.457031 292.207031 -399.476562 294.019531 -403.105469 C 292.613281 -400.292969 291.910156 -397.289062 291.910156 -394.09375 L 314.789062 -394.09375 L 292.140625 -390.859375 L 289.300781 -410.746094 L 293.714844 -419.578125 C 295.230469 -422.605469 297.0625 -425.195312 299.222656 -427.351562 L 315.398438 -411.175781 L 292.519531 -411.175781 L 292.519531 -411.785156 L 315.398438 -411.785156 L 292.75 -408.550781 C 291.359375 -418.28125 292.03125 -426.5625 294.765625 -433.398438 C 293.980469 -431.4375 293.679688 -429.582031 293.859375 -427.828125 C 293.886719 -427.550781 293.917969 -427.351562 293.953125 -427.226562 C 293.902344 -427.40625 293.808594 -427.664062 293.671875 -428 L 293.105469 -429.359375 L 292.714844 -430.777344 C 291.691406 -434.542969 290.1875 -439.03125 288.210938 -444.242188 C 286.648438 -448.359375 284.992188 -451.671875 283.234375 -454.179688 Z M 283.234375 -454.179688 "/></g></g></g><g fill="#34e400" fill-opacity="1"><g transform="translate(40.9254, 570.577801)"><g><path d="M 301.96875 -467.296875 C 304.820312 -463.234375 307.363281 -458.25 309.59375 -452.34375 C 311.832031 -446.445312 313.5625 -441.265625 314.78125 -436.796875 C 316.8125 -431.910156 317.21875 -427.941406 316 -424.890625 C 314.78125 -421.847656 314.578125 -417.476562 315.390625 -411.78125 L 315.390625 -411.171875 C 314.984375 -410.765625 314.578125 -410.15625 314.171875 -409.34375 C 313.765625 -408.53125 313.359375 -407.71875 312.953125 -406.90625 L 314.78125 -394.09375 C 314.78125 -393.6875 314.675781 -393.28125 314.46875 -392.875 C 314.269531 -392.46875 314.171875 -391.859375 314.171875 -391.046875 C 314.578125 -381.285156 313.5625 -369.488281 311.125 -355.65625 C 309.5 -346.707031 306.753906 -337.453125 302.890625 -327.890625 C 299.023438 -318.335938 294.242188 -308.882812 288.546875 -299.53125 L 287.9375 -297.09375 C 287.125 -295.46875 285.191406 -291.804688 282.140625 -286.109375 C 279.097656 -280.421875 276.253906 -274.828125 273.609375 -269.328125 C 270.960938 -263.835938 269.640625 -260.484375 269.640625 -259.265625 C 263.941406 -247.878906 257.535156 -235.878906 250.421875 -223.265625 C 243.304688 -210.660156 236.898438 -198.054688 231.203125 -185.453125 C 227.140625 -176.503906 222.664062 -167.554688 217.78125 -158.609375 C 212.90625 -149.660156 208.226562 -140.710938 203.75 -131.765625 C 203.34375 -131.359375 202.9375 -130.847656 202.53125 -130.234375 C 202.125 -129.628906 201.921875 -129.125 201.921875 -128.71875 C 201.921875 -127.90625 202.019531 -127.191406 202.21875 -126.578125 C 202.425781 -125.972656 202.53125 -125.265625 202.53125 -124.453125 C 200.5 -121.597656 198.265625 -118.644531 195.828125 -115.59375 C 193.390625 -112.550781 190.945312 -109.398438 188.5 -106.140625 C 187.6875 -103.703125 186.875 -102.078125 186.0625 -101.265625 C 186.46875 -98.015625 185.039062 -95.164062 181.78125 -92.71875 C 178.53125 -90.28125 176.09375 -87.4375 174.46875 -84.1875 L 172.03125 -79.921875 C 165.519531 -71.378906 159.113281 -62.9375 152.8125 -54.59375 C 146.507812 -46.257812 140.515625 -38.023438 134.828125 -29.890625 L 122.625 -12.8125 C 120.988281 -9.96875 118.34375 -6.816406 114.6875 -3.359375 C 111.03125 0.0976562 108.179688 3.046875 106.140625 5.484375 L 105.53125 6.09375 C 105.125 6.5 104.816406 6.703125 104.609375 6.703125 C 104.410156 6.703125 104.3125 6.703125 104.3125 6.703125 L 101.265625 9.15625 C 98.015625 12.40625 94.757812 14.4375 91.5 15.25 C 87.4375 15.25 82.351562 14.84375 76.25 14.03125 C 70.15625 13.21875 65.476562 11.390625 62.21875 8.546875 L 58.5625 6.703125 L 56.734375 4.875 C 55.921875 4.0625 55.003906 3.347656 53.984375 2.734375 C 52.972656 2.128906 52.0625 1.21875 51.25 0 C 48.394531 -0.8125 46.457031 -2.742188 45.4375 -5.796875 C 44.425781 -8.847656 43.109375 -11.796875 41.484375 -14.640625 C 40.265625 -16.671875 38.835938 -18.5 37.203125 -20.125 C 35.578125 -21.757812 33.953125 -23.59375 32.328125 -25.625 C 30.703125 -28.46875 28.875 -31.617188 26.84375 -35.078125 C 24.8125 -38.535156 22.773438 -42.296875 20.734375 -46.359375 C 14.640625 -58.566406 10.773438 -71.378906 9.140625 -84.796875 C 7.515625 -98.210938 6.703125 -111.632812 6.703125 -125.0625 C 7.117188 -134.007812 7.734375 -143.257812 8.546875 -152.8125 C 9.359375 -162.375 10.375 -172.238281 11.59375 -182.40625 L 15.859375 -220.234375 C 16.265625 -222.265625 16.265625 -223.988281 15.859375 -225.40625 C 15.453125 -226.832031 15.453125 -228.359375 15.859375 -229.984375 C 15.859375 -234.460938 15.859375 -239.039062 15.859375 -243.71875 C 15.859375 -248.394531 15.65625 -253.171875 15.25 -258.046875 L 17.6875 -293.4375 C 18.09375 -296.6875 18.597656 -300.140625 19.203125 -303.796875 C 19.816406 -307.460938 20.328125 -311.125 20.734375 -314.78125 C 21.960938 -324.945312 23.082031 -335.007812 24.09375 -344.96875 C 25.113281 -354.9375 26.03125 -364.597656 26.84375 -373.953125 L 26.84375 -374.5625 L 28.671875 -393.484375 C 29.078125 -396.734375 29.28125 -399.984375 29.28125 -403.234375 C 29.28125 -406.492188 29.28125 -409.546875 29.28125 -412.390625 L 29.28125 -413 C 29.6875 -418.695312 29.890625 -424.289062 29.890625 -429.78125 C 29.890625 -435.269531 29.484375 -440.25 28.671875 -444.71875 C 28.671875 -445.53125 28.566406 -446.242188 28.359375 -446.859375 C 28.160156 -447.472656 28.0625 -447.984375 28.0625 -448.390625 L 26.84375 -456.3125 C 26.4375 -457.125 26.234375 -457.734375 26.234375 -458.140625 C 26.234375 -458.546875 26.03125 -458.953125 25.625 -459.359375 C 25.625 -460.585938 25.421875 -461.40625 25.015625 -461.8125 L 25.015625 -469.734375 L 31.71875 -475.84375 L 32.328125 -475.84375 C 32.734375 -475.84375 32.9375 -475.941406 32.9375 -476.140625 C 32.9375 -476.347656 33.140625 -476.453125 33.546875 -476.453125 L 35.375 -476.453125 C 39.039062 -478.078125 42.703125 -478.890625 46.359375 -478.890625 C 50.429688 -481.734375 54.703125 -483.96875 59.171875 -485.59375 C 63.648438 -487.21875 68.125 -488.4375 72.59375 -489.25 L 89.0625 -490.484375 C 91.09375 -488.847656 93.328125 -486.910156 95.765625 -484.671875 C 98.210938 -482.441406 100.25 -480.109375 101.875 -477.671875 L 101.875 -476.453125 C 105.945312 -471.160156 108.796875 -465.867188 110.421875 -460.578125 C 114.078125 -452.859375 116.515625 -444.929688 117.734375 -436.796875 L 117.734375 -428.25 C 117.734375 -427.84375 117.832031 -427.535156 118.03125 -427.328125 C 118.238281 -427.128906 118.34375 -427.03125 118.34375 -427.03125 L 118.34375 -381.890625 C 118.34375 -373.347656 118.035156 -364.804688 117.421875 -356.265625 C 116.816406 -347.722656 116.109375 -339.382812 115.296875 -331.25 L 114.6875 -322.109375 L 107.984375 -278.1875 C 107.984375 -266.789062 106.960938 -255.195312 104.921875 -243.40625 C 102.890625 -231.613281 100.859375 -220.023438 98.828125 -208.640625 L 95.78125 -190.328125 C 93.75 -182.609375 93.34375 -174.273438 94.5625 -165.328125 C 95.78125 -156.378906 96.59375 -148.242188 97 -140.921875 C 97 -138.078125 97.097656 -132.992188 97.296875 -125.671875 C 97.503906 -118.347656 97.609375 -110.820312 97.609375 -103.09375 C 98.015625 -95.363281 98.316406 -88.144531 98.515625 -81.4375 C 98.722656 -74.726562 99.03125 -70.765625 99.4375 -69.546875 C 99.03125 -67.515625 98.925781 -65.273438 99.125 -62.828125 C 99.332031 -60.390625 99.640625 -58.15625 100.046875 -56.125 C 100.453125 -53.28125 101.363281 -50.429688 102.78125 -47.578125 C 104.207031 -44.734375 106.347656 -43.3125 109.203125 -43.3125 C 110.828125 -43.3125 112.046875 -43.515625 112.859375 -43.921875 C 116.921875 -45.546875 122.304688 -49.613281 129.015625 -56.125 C 135.734375 -62.632812 144.175781 -72.394531 154.34375 -85.40625 L 156.78125 -89.0625 C 156.78125 -89.875 156.984375 -90.484375 157.390625 -90.890625 L 163.5 -100.046875 C 167.15625 -104.523438 170.609375 -109.203125 173.859375 -114.078125 C 177.117188 -118.960938 180.171875 -123.84375 183.015625 -128.71875 C 183.421875 -129.125 183.625 -129.53125 183.625 -129.9375 C 185.65625 -133.195312 187.6875 -136.550781 189.71875 -140 C 191.757812 -143.457031 193.59375 -146.816406 195.21875 -150.078125 L 196.4375 -153.125 C 202.125 -163.289062 207.710938 -173.660156 213.203125 -184.234375 C 218.703125 -194.804688 223.484375 -205.175781 227.546875 -215.34375 L 227.546875 -217.171875 C 236.085938 -236.285156 243 -255.703125 248.28125 -275.421875 C 253.570312 -295.148438 257.640625 -315.1875 260.484375 -335.53125 C 262.523438 -342.4375 263.75 -348.738281 264.15625 -354.4375 L 265.375 -362.984375 C 266.1875 -368.671875 266.796875 -374.15625 267.203125 -379.4375 C 267.609375 -384.726562 267.8125 -389.816406 267.8125 -394.703125 C 268.21875 -400.390625 268.316406 -405.671875 268.109375 -410.546875 C 267.910156 -415.429688 267.8125 -419.910156 267.8125 -423.984375 L 267.8125 -424.59375 L 268.421875 -428.25 C 268.421875 -430.6875 268.625 -432.519531 269.03125 -433.75 C 268.625 -437 268.113281 -440.65625 267.5 -444.71875 C 266.894531 -448.789062 266.1875 -452.65625 265.375 -456.3125 L 259.875 -474 C 259.46875 -478.476562 258.25 -482.75 256.21875 -486.8125 L 252.5625 -501.453125 C 250.125 -504.710938 248.289062 -506.847656 247.0625 -507.859375 C 245.84375 -508.878906 245.03125 -510 244.625 -511.21875 C 243 -512.4375 242.1875 -513.65625 242.1875 -514.875 C 242.1875 -515.28125 242.59375 -515.484375 243.40625 -515.484375 L 244.015625 -515.484375 C 245.640625 -516.296875 246.859375 -517.109375 247.671875 -517.921875 C 248.492188 -518.742188 249.71875 -519.359375 251.34375 -519.765625 C 252.96875 -519.765625 255.40625 -518.132812 258.65625 -514.875 C 259.46875 -514.46875 262.414062 -513.25 267.5 -511.21875 C 272.582031 -509.1875 275.328125 -507.765625 275.734375 -506.953125 C 281.429688 -501.660156 286.414062 -495.457031 290.6875 -488.34375 C 294.957031 -481.226562 298.71875 -474.210938 301.96875 -467.296875 Z M 301.96875 -467.296875 "/></g></g></g></g></g><g fill="#006128" fill-opacity="1"><g transform="translate(80.492898, 557.762147)"><g><path d="M 349.871094 -98.828125 C 349.871094 -101.617188 349.265625 -104.214844 348.0625 -106.621094 L 351.574219 -99.601562 L 350.035156 -91.902344 C 350.128906 -92.367188 350.175781 -93.023438 350.175781 -93.871094 C 350.175781 -97.828125 348.996094 -101.578125 346.636719 -105.113281 C 349.402344 -100.964844 350.785156 -96.40625 350.785156 -91.433594 C 350.785156 -87.476562 349.878906 -83.683594 348.0625 -80.058594 L 327.601562 -90.289062 L 350.480469 -90.289062 L 350.480469 -89.679688 L 327.601562 -89.679688 L 350.167969 -93.441406 C 351.125 -87.703125 350.859375 -82.105469 349.367188 -76.644531 C 350.011719 -79 350.054688 -81.558594 349.5 -84.328125 C 348.414062 -89.761719 345.546875 -94.023438 340.902344 -97.121094 L 351.089844 -90.332031 L 351.089844 -78.085938 C 351.089844 -69.21875 349.621094 -59.15625 346.6875 -47.910156 L 346.496094 -47.171875 L 340.765625 -29.980469 L 319.0625 -37.214844 L 341.304688 -31.859375 C 335.132812 -6.234375 323.484375 16.332031 306.359375 35.835938 L 289.167969 20.742188 L 308.203125 33.433594 C 306.082031 36.613281 303.007812 40.574219 298.972656 45.320312 C 294.855469 50.164062 290.386719 54.757812 285.558594 59.097656 L 270.257812 42.09375 L 288.429688 55.992188 C 281.972656 64.433594 273.210938 73.011719 262.140625 81.726562 C 252.246094 89.515625 243.054688 96.378906 234.570312 102.320312 L 221.453125 83.578125 L 235.316406 101.777344 C 224.757812 109.820312 215.839844 115.054688 208.554688 117.484375 C 205.105469 118.632812 201.191406 120.457031 196.808594 122.964844 C 193.042969 125.117188 189.140625 127 185.109375 128.613281 C 183.042969 129.4375 181.042969 130.402344 179.117188 131.503906 L 177.363281 132.507812 L 175.460938 133.183594 C 163.457031 137.472656 153.277344 140.714844 144.914062 142.914062 C 136.042969 145.25 127.050781 146.886719 117.941406 147.820312 C 109.234375 148.714844 98.390625 149.160156 85.410156 149.160156 C 83.089844 149.160156 80.46875 149.027344 77.542969 148.761719 C 74.738281 148.507812 71.835938 148.128906 68.835938 147.628906 L 72.597656 125.0625 L 72.597656 147.941406 L 70.765625 147.941406 C 54.570312 147.941406 38.632812 145.445312 22.957031 140.457031 C 6.464844 135.210938 -8.273438 126.84375 -21.257812 115.355469 L -30.976562 106.933594 L -31.660156 106.230469 C -48.042969 89.367188 -59.316406 70.949219 -65.480469 50.976562 C -71.242188 32.308594 -74.121094 14.703125 -74.121094 -1.832031 C -74.121094 -41.722656 -60.847656 -76.84375 -34.296875 -107.183594 L -33.714844 -107.851562 L -33.082031 -108.46875 C -9.523438 -131.527344 17.164062 -143.058594 46.972656 -143.058594 C 64.261719 -143.058594 77.96875 -138.867188 88.097656 -130.484375 C 96.667969 -123.394531 102.898438 -115.632812 106.789062 -107.195312 C 110.632812 -98.867188 112.554688 -92.011719 112.554688 -86.628906 L 89.679688 -86.628906 L 89.679688 -109.503906 C 93.375 -109.503906 97.617188 -108.707031 102.402344 -107.113281 C 108.257812 -105.160156 113.019531 -102.351562 116.683594 -98.6875 C 123.195312 -92.175781 125.808594 -84.433594 124.527344 -75.460938 L 101.878906 -78.699219 L 124.757812 -78.699219 C 124.757812 -71.566406 121.710938 -64.953125 115.617188 -58.859375 C 112.238281 -55.484375 109.039062 -53.039062 106.011719 -51.523438 C 101.976562 -49.507812 96.941406 -48.5 90.898438 -48.5 C 86.476562 -48.5 80.839844 -48.84375 73.980469 -49.527344 C 68.636719 -50.0625 61.871094 -50.328125 53.683594 -50.328125 L 47.585938 -50.328125 L 47.585938 -73.207031 L 48.625 -50.351562 C 41.519531 -50.03125 33.664062 -48.605469 25.0625 -46.074219 C 17.125 -43.738281 10.023438 -40.355469 3.753906 -35.921875 C -0.5 -32.914062 -3.464844 -28.898438 -5.140625 -23.878906 L -26.84375 -31.113281 L -4.574219 -25.875 C -5.949219 -20.03125 -6.789062 -15.324219 -7.101562 -11.746094 C -7.386719 -8.488281 -7.394531 -5.535156 -7.128906 -2.886719 L -4.730469 17.457031 L -27.453125 20.132812 L -4.886719 16.371094 C -3.871094 22.464844 -2.039062 27.277344 0.609375 30.808594 C 3.785156 35.039062 7.417969 38.4375 11.515625 40.996094 L 13.722656 42.375 L 15.566406 44.21875 C 15.164062 43.816406 14.816406 43.539062 14.515625 43.378906 C 14.753906 43.503906 15.171875 43.648438 15.78125 43.816406 L 18.726562 44.617188 L 21.359375 46.167969 C 26.199219 49.015625 32.019531 51.195312 38.820312 52.703125 C 46.914062 54.503906 55.707031 55.765625 65.199219 56.496094 L 63.445312 79.308594 L 56.871094 57.394531 L 63.480469 55.414062 L 64 55.285156 C 64.242188 55.222656 64.394531 55.183594 64.449219 55.164062 C 64.03125 55.304688 63.539062 55.515625 62.976562 55.796875 C 66.601562 53.980469 70.371094 53.074219 74.273438 53.074219 C 80.898438 53.074219 86.542969 55.410156 91.214844 60.082031 L 75.039062 76.257812 L 75.039062 53.378906 L 82.359375 53.378906 L 82.359375 76.257812 L 78.597656 53.691406 L 85.917969 52.472656 L 93.238281 51.25 L 97 73.816406 L 89.765625 52.113281 L 106.238281 46.625 L 113.472656 68.328125 L 104.976562 47.085938 C 107.40625 46.113281 109.929688 44.710938 112.554688 42.875 L 113.820312 41.988281 L 115.195312 41.277344 C 127.34375 35.019531 139.355469 27.25 151.242188 17.964844 C 157.089844 13.578125 161.671875 8.480469 164.984375 2.679688 C 169.820312 -5.78125 174.25 -13.628906 178.269531 -20.871094 L 178.789062 -21.804688 L 179.394531 -22.6875 C 197.800781 -49.5625 208.96875 -75.144531 212.898438 -99.433594 C 213.574219 -103.160156 213.992188 -106.9375 214.152344 -110.761719 C 214.285156 -113.949219 214.09375 -116.945312 213.585938 -119.75 L 213.421875 -120.652344 L 212.71875 -127.667969 L 235.484375 -129.941406 L 212.835938 -126.707031 C 212.371094 -129.949219 211.371094 -133.109375 209.835938 -136.183594 C 207.808594 -140.242188 205.375 -144.160156 202.539062 -147.9375 L 201.621094 -149.167969 L 200.871094 -150.503906 C 194.636719 -161.660156 185.203125 -172.1875 172.566406 -182.09375 L 171.90625 -182.609375 L 157.0625 -196.105469 L 156.328125 -196.910156 C 153.164062 -200.394531 149.871094 -203.457031 146.457031 -206.09375 C 142.300781 -209.308594 137.742188 -212.628906 132.78125 -216.0625 L 145.804688 -234.871094 L 133.8125 -215.390625 C 128.292969 -218.789062 123.582031 -221.785156 119.691406 -224.378906 C 117.59375 -225.777344 114.582031 -227.179688 110.65625 -228.578125 L 109.992188 -228.816406 L 109.339844 -229.097656 C 104.007812 -231.382812 97.667969 -233.878906 90.3125 -236.589844 C 81.789062 -239.726562 74.304688 -242.910156 67.855469 -246.132812 L 78.085938 -266.597656 L 72.539062 -244.402344 L 56.628906 -248.378906 L 52.148438 -252.859375 C 48.945312 -256.066406 44.328125 -261.113281 38.296875 -268.003906 C 31.082031 -276.25 26.195312 -283.257812 23.628906 -289.027344 L 19.242188 -298.894531 L 24.070312 -308.550781 C 23.25 -306.90625 22.675781 -305.105469 22.347656 -303.148438 C 21.585938 -298.5625 22.261719 -294.152344 24.378906 -289.917969 C 21.753906 -295.167969 21.148438 -300.632812 22.570312 -306.308594 C 23.644531 -310.609375 25.777344 -314.355469 28.96875 -317.546875 L 45.144531 -301.371094 L 22.710938 -296.882812 C 22.167969 -299.59375 21.554688 -304.140625 20.871094 -310.523438 C 20.507812 -313.925781 20.289062 -316.671875 20.222656 -318.757812 C 19.949219 -326.894531 22.253906 -333.40625 27.136719 -338.289062 L 59.492188 -305.933594 L 46 -292.445312 L 31.253906 -299.820312 C 26.890625 -302 22.804688 -305.574219 18.988281 -310.546875 C 16.667969 -313.570312 14.179688 -317.425781 11.523438 -322.105469 C 6.445312 -331.050781 2.648438 -339.554688 0.125 -347.621094 L -0.914062 -350.953125 L -0.914062 -354.445312 C -0.914062 -352.320312 -0.695312 -350.554688 -0.253906 -349.144531 C -0.417969 -349.667969 -0.703125 -350.496094 -1.109375 -351.628906 C -2.289062 -354.941406 -3.355469 -358.257812 -4.304688 -361.582031 L -6.40625 -368.933594 L -6.40625 -375.621094 L -5.960938 -377.84375 C -5.050781 -382.390625 -3.3125 -386.3125 -0.746094 -389.613281 C 1.917969 -393.039062 5.230469 -395.566406 9.191406 -397.199219 C 13.675781 -399.046875 18.3125 -399.492188 23.09375 -398.535156 C 18.957031 -399.363281 14.890625 -398.917969 10.890625 -397.207031 C 6.113281 -395.15625 2.574219 -391.839844 0.28125 -387.246094 L 20.742188 -377.015625 L -2.136719 -377.015625 L -2.136719 -382.882812 L -1.453125 -385.617188 C -1.703125 -384.609375 -1.832031 -383.417969 -1.832031 -382.050781 C -1.832031 -376.242188 0.300781 -371.203125 4.566406 -366.941406 L -2.136719 -373.640625 L -2.136719 -386.472656 C -2.136719 -389.773438 -1.703125 -393.148438 -0.84375 -396.597656 L 21.351562 -391.046875 L -0.84375 -385.5 C -1.941406 -389.890625 -2.210938 -394.3125 -1.652344 -398.765625 C -1.335938 -401.308594 -0.863281 -403.835938 -0.230469 -406.359375 C 0.273438 -408.378906 0.992188 -410.910156 1.925781 -413.941406 C 4.335938 -421.777344 8.414062 -427.609375 14.152344 -431.433594 L 26.84375 -412.398438 L 5.234375 -419.914062 C 9.785156 -433 18.3125 -445.128906 30.816406 -456.300781 C 41.539062 -465.886719 53.375 -474.425781 66.320312 -481.917969 C 78.585938 -489.019531 89.140625 -494.558594 97.980469 -498.539062 L 98.753906 -498.886719 L 112.972656 -504.058594 C 125.621094 -508.855469 139.914062 -513 155.851562 -516.496094 C 171.433594 -519.910156 186.511719 -522.476562 201.085938 -524.191406 L 203.761719 -501.46875 L 184.359375 -513.59375 C 186.285156 -516.671875 188.210938 -519.855469 190.140625 -523.132812 C 191.058594 -524.695312 191.65625 -526.03125 191.9375 -527.148438 L 193.277344 -532.507812 L 201.183594 -541.546875 L 218.402344 -526.480469 L 195.753906 -529.714844 C 196.851562 -537.394531 200.535156 -543.585938 206.808594 -548.292969 C 210.910156 -551.367188 215.851562 -553.429688 221.628906 -554.480469 L 223.660156 -554.847656 L 225.722656 -554.847656 C 234.0625 -554.847656 243.371094 -553.308594 253.648438 -550.222656 C 263.203125 -547.355469 272.300781 -543.644531 280.933594 -539.089844 C 291.679688 -533.417969 299.75 -526.53125 305.152344 -518.429688 C 305.597656 -517.761719 306.835938 -516.160156 308.863281 -513.625 C 313.003906 -508.449219 315.707031 -503.964844 316.972656 -500.164062 L 295.269531 -492.929688 L 315.730469 -503.160156 L 316.949219 -500.71875 L 296.488281 -490.488281 L 296.488281 -513.363281 C 301.308594 -513.363281 305.71875 -512.035156 309.710938 -509.371094 C 313.234375 -507.023438 315.953125 -503.933594 317.867188 -500.109375 C 319.679688 -496.480469 320.585938 -492.460938 320.585938 -488.046875 L 297.710938 -488.046875 L 317.792969 -499.003906 L 319.625 -495.648438 C 322.019531 -491.253906 323.84375 -485.609375 325.097656 -478.71875 L 302.589844 -474.625 L 322.453125 -485.976562 C 325.375 -480.863281 327.476562 -474.78125 328.757812 -467.738281 C 330.066406 -460.535156 330.066406 -453.332031 328.757812 -446.132812 L 328.625 -445.398438 L 328.445312 -444.675781 C 327.996094 -442.890625 327.449219 -440.800781 326.796875 -438.410156 C 326.226562 -436.328125 325.761719 -434.554688 325.394531 -433.085938 L 303.199219 -438.632812 L 325.847656 -435.398438 C 323.570312 -419.457031 315.613281 -411.484375 301.980469 -411.484375 C 306.960938 -411.484375 311.433594 -412.972656 315.402344 -415.945312 C 317.390625 -417.4375 319.058594 -419.195312 320.40625 -421.214844 C 321.335938 -422.609375 322.019531 -423.96875 322.460938 -425.296875 L 300.757812 -432.53125 L 322.953125 -438.082031 C 322.976562 -437.992188 322.992188 -437.933594 323 -437.90625 C 322.96875 -438.007812 322.925781 -438.136719 322.871094 -438.292969 C 322.445312 -439.453125 321.828125 -440.648438 321.015625 -441.867188 C 322.554688 -439.558594 323.851562 -436.824219 324.902344 -433.664062 L 327.734375 -425.171875 L 315.324219 -397.691406 L 315.121094 -397.289062 C 313.839844 -394.726562 311.84375 -391.894531 309.128906 -388.792969 C 310.132812 -389.9375 310.875 -391.484375 311.363281 -393.429688 L 311.269531 -393.058594 L 309.808594 -387.945312 L 309.652344 -387.472656 C 308.335938 -383.523438 306.5 -380.136719 304.148438 -377.316406 C 299.070312 -371.21875 292.652344 -368.171875 284.898438 -368.171875 L 284.898438 -391.046875 L 301.074219 -374.871094 C 298.160156 -371.957031 294.714844 -369.957031 290.734375 -368.871094 C 287.621094 -368.023438 284.457031 -367.828125 281.242188 -368.285156 C 278.015625 -368.746094 274.953125 -369.847656 272.058594 -371.582031 C 269.941406 -372.855469 267.8125 -374.558594 265.671875 -376.703125 L 281.847656 -392.878906 L 295.144531 -374.261719 C 288.320312 -369.386719 280.632812 -366.949219 272.085938 -366.949219 L 267.390625 -366.949219 L 263.074219 -368.800781 C 261.589844 -369.4375 258.726562 -370.210938 254.480469 -371.117188 L 259.273438 -393.488281 L 270.625 -373.625 C 265.953125 -370.953125 261.78125 -369.160156 258.113281 -368.242188 C 254.664062 -367.382812 251.1875 -366.949219 247.683594 -366.949219 C 245.378906 -366.949219 242.980469 -367.128906 240.484375 -367.484375 C 238.640625 -367.75 236.496094 -368.125 234.046875 -368.613281 L 238.535156 -391.046875 L 234.558594 -368.519531 C 221.140625 -370.886719 210.898438 -377.476562 203.828125 -388.289062 C 197.175781 -398.46875 194.699219 -409.085938 196.398438 -420.148438 L 196.695312 -422.066406 L 197.308594 -423.90625 C 202.003906 -437.992188 210.457031 -445.039062 222.671875 -445.039062 C 226.421875 -445.039062 230.167969 -444.289062 233.914062 -442.792969 L 233.898438 -442.808594 C 234.167969 -442.722656 234.515625 -442.628906 234.929688 -442.523438 L 229.382812 -420.332031 L 232.617188 -442.976562 C 240.453125 -441.859375 246.601562 -438.214844 251.054688 -432.046875 C 254.914062 -426.703125 256.621094 -420.492188 256.179688 -413.414062 C 256.007812 -410.636719 255.921875 -408.058594 255.921875 -405.691406 C 255.921875 -410.066406 254.402344 -413.960938 251.363281 -417.378906 C 249.046875 -419.988281 246.414062 -421.65625 243.472656 -422.394531 L 237.921875 -400.199219 L 237.921875 -423.078125 C 240.613281 -423.078125 243.277344 -422.746094 245.910156 -422.089844 C 244.902344 -422.339844 243.664062 -422.464844 242.195312 -422.464844 C 241.785156 -422.464844 241.394531 -422.386719 241.019531 -422.230469 C 240.949219 -422.203125 240.910156 -422.183594 240.90625 -422.183594 C 241.050781 -422.277344 241.230469 -422.421875 241.445312 -422.617188 C 242.269531 -423.367188 242.988281 -425.191406 243.597656 -428.09375 L 265.984375 -423.382812 L 243.167969 -421.75 C 242.96875 -424.550781 242.273438 -427.179688 241.089844 -429.648438 C 240.570312 -430.730469 240.195312 -431.421875 239.964844 -431.71875 C 240.875 -430.546875 242.273438 -429.488281 244.164062 -428.542969 L 254.394531 -449.003906 L 254.394531 -426.125 L 241.867188 -426.125 L 235.167969 -432.828125 C 236.644531 -431.351562 238.230469 -430.289062 239.929688 -429.632812 C 240.304688 -429.492188 240.636719 -429.386719 240.929688 -429.320312 L 240.886719 -429.316406 L 239.359375 -429.488281 L 237.863281 -429.859375 C 238.222656 -429.769531 238.523438 -429.707031 238.769531 -429.671875 C 238.726562 -429.679688 238.621094 -429.6875 238.457031 -429.703125 C 237.71875 -429.757812 236.726562 -429.785156 235.484375 -429.785156 L 229.566406 -429.785156 L 221.820312 -430.492188 L 223.890625 -453.273438 L 224.285156 -430.398438 C 203.910156 -430.050781 187.246094 -426.886719 174.304688 -420.910156 C 160.753906 -414.65625 150.21875 -407.9375 142.707031 -400.75 L 140.210938 -398.363281 L 137.125 -396.820312 C 133.90625 -395.210938 128.726562 -392.023438 121.585938 -387.265625 C 114.605469 -382.613281 108.1875 -377.621094 102.324219 -372.289062 C 100.140625 -370.308594 98.527344 -368.589844 97.472656 -367.128906 C 97.207031 -366.761719 97.023438 -366.480469 96.929688 -366.289062 C 97.03125 -366.492188 97.128906 -366.792969 97.230469 -367.199219 L 75.039062 -372.746094 L 97.914062 -372.746094 C 97.914062 -377.777344 96.382812 -382.082031 93.320312 -385.652344 C 92.5625 -386.539062 91.917969 -387.15625 91.386719 -387.511719 L 101.574219 -380.71875 L 101.574219 -368.476562 C 101.574219 -370.855469 100.972656 -373.25 99.769531 -375.65625 L 102.867188 -369.460938 L 102.007812 -362.589844 C 102.503906 -366.539062 101.839844 -369.898438 100.019531 -372.660156 C 99.90625 -372.832031 99.808594 -372.972656 99.722656 -373.078125 C 99.734375 -373.0625 99.777344 -373.019531 99.84375 -372.949219 C 100.210938 -372.566406 100.722656 -372.109375 101.382812 -371.570312 C 105.679688 -368.070312 111.417969 -364.4375 118.597656 -360.679688 L 122.554688 -358.605469 L 125.445312 -355.191406 C 127.894531 -352.292969 131.179688 -349.816406 135.292969 -347.757812 C 141.953125 -344.429688 147.394531 -341.804688 151.609375 -339.886719 L 168.347656 -331.921875 L 171.132812 -329.136719 C 173.375 -326.894531 176.140625 -324.652344 179.433594 -322.40625 C 185.089844 -318.550781 189.4375 -315.101562 192.484375 -312.054688 L 208.660156 -295.878906 L 192.484375 -279.703125 C 196.542969 -283.761719 198.574219 -288.746094 198.574219 -294.660156 L 175.695312 -294.660156 L 195.695312 -305.769531 L 197.21875 -303.023438 C 196.535156 -304.257812 195.921875 -305.125 195.378906 -305.621094 C 195.902344 -305.140625 196.765625 -304.480469 197.96875 -303.640625 L 184.847656 -284.898438 L 195.957031 -304.894531 L 206.9375 -298.796875 C 213.296875 -295.21875 221.449219 -290.84375 231.394531 -285.671875 C 241.996094 -280.160156 252.386719 -274.328125 262.566406 -268.179688 C 274.15625 -261.175781 283.328125 -254.042969 290.070312 -246.78125 L 290.644531 -246.160156 L 303.761719 -229.765625 L 304.125 -229.257812 C 306.054688 -226.554688 307.882812 -224.054688 309.605469 -221.757812 C 313.511719 -216.550781 316.007812 -211.230469 317.09375 -205.804688 L 294.660156 -201.320312 L 315.777344 -210.117188 C 317.3125 -206.425781 320.179688 -201.261719 324.371094 -194.625 C 329.660156 -186.253906 333.894531 -178.882812 337.082031 -172.507812 L 346.367188 -153.941406 L 349.789062 -113.574219 L 326.992188 -111.640625 L 349.589844 -115.207031 L 351.699219 -101.84375 L 351.699219 -100.050781 C 351.699219 -96.347656 350.875 -92.847656 349.226562 -89.550781 C 347.378906 -85.851562 344.730469 -82.855469 341.285156 -80.558594 C 337.289062 -77.894531 332.828125 -76.5625 327.90625 -76.5625 C 332.21875 -76.5625 336.222656 -77.792969 339.910156 -80.253906 C 343.203125 -82.449219 345.738281 -85.320312 347.511719 -88.867188 C 349.082031 -92.007812 349.871094 -95.332031 349.871094 -98.828125 Z M 304.113281 -98.828125 C 304.113281 -102.53125 304.9375 -106.03125 306.585938 -109.328125 C 308.4375 -113.027344 311.085938 -116.023438 314.53125 -118.324219 C 318.523438 -120.984375 322.984375 -122.316406 327.90625 -122.316406 C 323.59375 -122.316406 319.59375 -121.085938 315.902344 -118.628906 C 312.609375 -116.429688 310.074219 -113.558594 308.300781 -110.015625 C 306.730469 -106.871094 305.945312 -103.546875 305.945312 -100.050781 L 328.820312 -100.050781 L 306.226562 -96.480469 L 304.265625 -108.886719 L 301.144531 -145.703125 L 323.941406 -147.632812 L 303.480469 -137.402344 L 296.160156 -152.042969 C 293.652344 -157.058594 290.160156 -163.105469 285.6875 -170.191406 C 280.117188 -179.007812 276.070312 -186.449219 273.542969 -192.519531 L 272.667969 -194.613281 L 272.226562 -196.832031 C 272.421875 -195.847656 272.699219 -195 273.050781 -194.292969 L 273 -194.304688 C 271.066406 -196.886719 269.027344 -199.671875 266.890625 -202.664062 L 285.507812 -215.960938 L 267.644531 -201.667969 L 255.441406 -216.921875 L 273.308594 -231.210938 L 256.542969 -215.644531 C 252.710938 -219.769531 246.832031 -224.226562 238.902344 -229.019531 C 229.5625 -234.664062 220.023438 -240.015625 210.285156 -245.078125 C 199.898438 -250.480469 191.375 -255.054688 184.71875 -258.796875 L 172.699219 -265.476562 L 171.730469 -266.15625 C 164.78125 -271.019531 159.949219 -275.902344 157.222656 -280.804688 L 152.820312 -288.730469 L 152.820312 -294.660156 C 152.820312 -301.382812 155.257812 -307.183594 160.128906 -312.054688 L 176.308594 -295.878906 L 160.128906 -279.703125 C 159.109375 -280.722656 156.949219 -282.359375 153.660156 -284.601562 C 148.003906 -288.457031 143.042969 -292.519531 138.777344 -296.785156 L 154.957031 -312.960938 L 145.121094 -292.304688 L 132.675781 -298.234375 C 127.945312 -300.382812 121.996094 -303.25 114.832031 -306.835938 C 105.117188 -311.691406 97.011719 -317.957031 90.515625 -325.636719 L 107.980469 -340.414062 L 97.367188 -320.148438 C 87.460938 -325.335938 79.167969 -330.652344 72.484375 -336.097656 C 60.445312 -345.90625 55.152344 -356.628906 56.605469 -368.261719 L 79.308594 -365.425781 L 58.84375 -355.195312 C 56.828125 -359.226562 55.820312 -363.65625 55.820312 -368.476562 L 78.699219 -368.476562 L 66.007812 -349.441406 C 56.777344 -355.59375 52.160156 -363.363281 52.160156 -372.746094 L 52.160156 -375.5625 L 52.84375 -378.292969 C 55.183594 -387.65625 61.417969 -396.9375 71.542969 -406.144531 C 79.101562 -413.015625 87.324219 -419.414062 96.207031 -425.335938 C 104.925781 -431.148438 111.746094 -435.285156 116.660156 -437.742188 L 126.890625 -417.28125 L 111.078125 -433.8125 C 122.273438 -444.519531 136.957031 -454.066406 155.128906 -462.453125 C 173.90625 -471.121094 196.695312 -475.6875 223.496094 -476.148438 L 224.734375 -476.167969 L 232.671875 -475.449219 L 230.601562 -452.664062 L 230.601562 -475.542969 L 235.484375 -475.542969 C 241.019531 -475.542969 245.515625 -475.109375 248.960938 -474.25 L 243.414062 -452.054688 L 245.941406 -474.792969 C 254.917969 -473.792969 262.113281 -470.589844 267.519531 -465.179688 L 251.34375 -449.003906 L 251.34375 -471.882812 L 259.796875 -471.882812 L 264.625 -469.464844 C 271.734375 -465.910156 277.640625 -459.238281 282.339844 -449.449219 C 286.035156 -441.746094 288.191406 -433.601562 288.804688 -425.011719 L 289.035156 -421.808594 L 288.371094 -418.667969 C 285.730469 -406.113281 280.347656 -396.144531 272.222656 -388.761719 C 263.386719 -380.726562 253.378906 -376.710938 242.195312 -376.710938 C 239.910156 -376.710938 237.449219 -377.039062 234.816406 -377.699219 C 235.824219 -377.449219 236.859375 -377.320312 237.921875 -377.320312 L 235.105469 -377.320312 L 232.375 -378.003906 C 226.175781 -379.554688 221.105469 -382.546875 217.164062 -386.984375 C 212.5 -392.230469 210.164062 -398.46875 210.164062 -405.691406 C 210.164062 -409.011719 210.28125 -412.539062 210.515625 -416.265625 C 210.277344 -412.441406 211.425781 -408.773438 213.960938 -405.257812 C 217.09375 -400.921875 221.15625 -398.394531 226.148438 -397.683594 L 224.980469 -397.851562 L 223.832031 -398.136719 C 221.203125 -398.792969 218.898438 -399.519531 216.921875 -400.308594 C 218.632812 -399.625 220.546875 -399.285156 222.671875 -399.285156 C 227.449219 -399.285156 231.722656 -400.695312 235.484375 -403.515625 C 237.269531 -404.855469 238.734375 -406.382812 239.875 -408.097656 C 240.292969 -408.722656 240.609375 -409.28125 240.832031 -409.78125 C 240.824219 -409.769531 240.785156 -409.652344 240.714844 -409.4375 L 219.011719 -416.671875 L 241.621094 -413.191406 C 241.683594 -413.585938 241.671875 -413.949219 241.585938 -414.289062 C 241.625 -414.140625 241.804688 -413.820312 242.125 -413.328125 C 242.023438 -413.480469 241.855469 -413.632812 241.617188 -413.78125 L 241.605469 -413.800781 C 241.832031 -413.71875 242.132812 -413.644531 242.507812 -413.578125 L 242.765625 -413.53125 L 243.019531 -413.480469 C 244.636719 -413.15625 245.949219 -412.925781 246.953125 -412.78125 C 247.304688 -412.730469 247.546875 -412.707031 247.683594 -412.707031 C 247.433594 -412.707031 247.210938 -412.679688 247.015625 -412.632812 C 246.621094 -412.535156 246.28125 -412.429688 245.992188 -412.324219 L 245.996094 -412.332031 C 246.472656 -412.546875 247.113281 -412.886719 247.925781 -413.351562 L 255.519531 -417.691406 L 264.070312 -415.859375 C 271.210938 -414.328125 276.890625 -412.660156 281.097656 -410.855469 L 272.085938 -389.828125 L 272.085938 -412.707031 C 270.859375 -412.707031 269.679688 -412.300781 268.550781 -411.496094 L 284.320312 -422.757812 L 298.023438 -409.054688 C 297.511719 -409.570312 296.703125 -410.15625 295.601562 -410.816406 C 293.214844 -412.25 290.585938 -413.171875 287.714844 -413.582031 C 284.679688 -414.015625 281.671875 -413.824219 278.695312 -413.015625 C 274.859375 -411.96875 271.535156 -410.039062 268.722656 -407.226562 L 275.421875 -413.925781 L 284.898438 -413.925781 C 278.363281 -413.925781 273.066406 -411.488281 269 -406.609375 C 267.667969 -405.007812 266.746094 -403.453125 266.246094 -401.941406 L 287.949219 -394.707031 L 265.949219 -400.992188 L 267.171875 -405.265625 L 289.167969 -398.980469 L 266.972656 -404.527344 C 268.273438 -409.726562 270.847656 -414.527344 274.695312 -418.925781 C 275.03125 -419.304688 275.253906 -419.570312 275.367188 -419.722656 C 274.996094 -419.230469 274.609375 -418.574219 274.195312 -417.75 L 294.660156 -407.519531 L 273.808594 -416.9375 L 282.351562 -435.847656 L 303.199219 -426.429688 L 281.496094 -419.195312 C 281.734375 -418.480469 282.21875 -417.578125 282.945312 -416.488281 C 281.070312 -419.296875 279.613281 -422.792969 278.566406 -426.984375 L 276.949219 -433.445312 L 279.054688 -439.765625 C 279.90625 -442.3125 280.996094 -444.589844 282.335938 -446.59375 C 283.886719 -448.921875 285.757812 -450.90625 287.949219 -452.550781 C 292.117188 -455.675781 296.792969 -457.238281 301.980469 -457.238281 C 296.300781 -457.238281 291.328125 -455.375 287.066406 -451.644531 C 285.191406 -450.003906 283.640625 -448.113281 282.421875 -445.980469 C 281.605469 -444.554688 280.996094 -443.132812 280.59375 -441.714844 C 280.503906 -441.410156 280.449219 -441.1875 280.421875 -441.046875 C 280.457031 -441.230469 280.5 -441.507812 280.550781 -441.867188 L 280.71875 -443.035156 L 281.003906 -444.179688 C 281.453125 -445.964844 282 -448.054688 282.652344 -450.449219 C 283.222656 -452.527344 283.6875 -454.304688 284.054688 -455.773438 L 306.25 -450.222656 L 283.742188 -454.316406 C 284.058594 -456.0625 284.058594 -457.808594 283.742188 -459.554688 C 283.394531 -461.457031 283.058594 -462.699219 282.726562 -463.277344 L 280.78125 -466.679688 L 280.082031 -470.535156 C 279.832031 -471.910156 279.578125 -473.023438 279.324219 -473.863281 C 279.257812 -474.070312 279.210938 -474.21875 279.175781 -474.308594 C 279.230469 -474.164062 279.324219 -473.976562 279.457031 -473.738281 L 274.832031 -482.214844 L 274.832031 -488.046875 C 274.832031 -485.261719 275.535156 -482.460938 276.941406 -479.648438 C 278.652344 -476.226562 281.113281 -473.445312 284.332031 -471.300781 C 288.023438 -468.839844 292.074219 -467.609375 296.488281 -467.609375 L 282.351562 -467.609375 L 274.078125 -484.152344 L 273.566406 -485.695312 C 274.007812 -484.367188 274.441406 -483.386719 274.859375 -482.753906 C 274.515625 -483.269531 273.941406 -484.035156 273.132812 -485.042969 C 270.28125 -488.609375 268.261719 -491.277344 267.082031 -493.050781 C 265.976562 -494.707031 263.476562 -496.566406 259.578125 -498.625 C 253.570312 -501.792969 247.210938 -504.386719 240.5 -506.398438 C 234.511719 -508.195312 229.585938 -509.09375 225.722656 -509.09375 L 225.722656 -531.972656 L 229.8125 -509.464844 C 231.121094 -509.699219 232.601562 -510.441406 234.261719 -511.6875 C 238.097656 -514.5625 240.359375 -518.414062 241.046875 -523.246094 L 240.089844 -516.527344 L 231.347656 -506.535156 L 214.132812 -521.601562 L 236.324219 -516.050781 C 234.976562 -510.664062 232.730469 -505.289062 229.578125 -499.9375 C 227.441406 -496.300781 225.300781 -492.773438 223.160156 -489.34375 L 217.339844 -480.03125 L 206.433594 -478.75 C 193.351562 -477.210938 179.757812 -474.894531 165.648438 -471.800781 C 151.898438 -468.789062 139.554688 -465.207031 128.609375 -461.058594 L 115.1875 -456.175781 L 107.371094 -477.675781 L 116.757812 -456.8125 C 109.332031 -453.472656 100.164062 -448.640625 89.246094 -442.320312 C 79.007812 -436.394531 69.695312 -429.683594 61.304688 -422.183594 C 54.691406 -416.273438 50.40625 -410.507812 48.449219 -404.882812 L 45.925781 -397.628906 L 39.53125 -393.363281 C 41.835938 -394.898438 43.617188 -396.742188 44.882812 -398.894531 C 45.28125 -399.570312 45.539062 -400.101562 45.65625 -400.488281 C 44.964844 -398.234375 44.464844 -396.492188 44.15625 -395.261719 C 43.972656 -394.527344 43.835938 -393.804688 43.746094 -393.089844 C 43.898438 -394.292969 43.832031 -395.460938 43.546875 -396.597656 L 44.933594 -391.046875 L 43.546875 -385.5 C 43.59375 -385.695312 43.621094 -386.019531 43.621094 -386.472656 L 43.621094 -383.117188 L 20.742188 -383.117188 L 36.917969 -399.292969 C 43.429688 -392.78125 45.4375 -384.523438 42.9375 -374.519531 L 20.742188 -380.066406 L 43.621094 -380.066406 L 43.621094 -371.617188 L 41.203125 -366.785156 C 38.503906 -361.382812 34.40625 -357.503906 28.914062 -355.148438 C 24.207031 -353.132812 19.273438 -352.636719 14.121094 -353.667969 C 18.394531 -352.8125 22.558594 -353.222656 26.613281 -354.890625 C 30.140625 -356.34375 33.058594 -358.554688 35.367188 -361.523438 C 37.222656 -363.90625 38.402344 -366.355469 38.90625 -368.871094 L 16.472656 -373.355469 L 39.347656 -373.355469 L 39.347656 -372.136719 L 16.472656 -372.136719 L 38.46875 -378.421875 L 39.6875 -374.152344 C 40.367188 -371.777344 41.128906 -369.402344 41.980469 -367.019531 C 43.886719 -361.683594 44.839844 -357.492188 44.839844 -354.445312 L 21.960938 -354.445312 L 43.796875 -361.269531 C 45.34375 -356.320312 47.851562 -350.792969 51.3125 -344.691406 C 52.929688 -341.847656 54.25 -339.75 55.285156 -338.402344 C 55.414062 -338.238281 55.515625 -338.109375 55.59375 -338.023438 C 55.550781 -338.070312 55.476562 -338.144531 55.367188 -338.25 C 54.410156 -339.171875 53.195312 -340.003906 51.714844 -340.742188 L 41.484375 -320.28125 L 25.308594 -336.457031 L 27.136719 -338.289062 L 59.492188 -305.933594 C 63.308594 -309.753906 65.445312 -314.207031 65.894531 -319.300781 C 65.925781 -319.671875 65.945312 -320.003906 65.945312 -320.296875 L 65.949219 -320.28125 C 65.980469 -319.316406 66.121094 -317.6875 66.367188 -315.398438 C 66.902344 -310.390625 67.304688 -307.210938 67.578125 -305.855469 L 69.980469 -293.851562 L 61.320312 -285.191406 C 64.105469 -287.976562 65.984375 -291.316406 66.957031 -295.210938 C 68.273438 -300.480469 67.722656 -305.539062 65.300781 -310.378906 C 68.914062 -303.152344 68.8125 -295.722656 64.996094 -288.089844 L 44.535156 -298.320312 L 65.441406 -307.609375 C 66.128906 -306.0625 68.558594 -302.902344 72.730469 -298.132812 C 78.09375 -292.007812 82.015625 -287.699219 84.503906 -285.214844 L 68.328125 -269.035156 L 73.875 -291.230469 L 86.074219 -288.179688 L 88.320312 -287.058594 C 93.257812 -284.589844 99.195312 -282.078125 106.128906 -279.523438 C 114.226562 -276.539062 121.304688 -273.75 127.363281 -271.152344 L 118.351562 -250.125 L 126.046875 -271.667969 C 133.507812 -269.003906 139.851562 -265.929688 145.074219 -262.449219 C 148.503906 -260.164062 152.742188 -257.464844 157.792969 -254.355469 L 158.320312 -254.035156 L 158.828125 -253.683594 C 164.441406 -249.796875 169.644531 -246 174.433594 -242.300781 C 179.96875 -238.023438 185.21875 -233.152344 190.183594 -227.691406 L 173.257812 -212.300781 L 188.644531 -229.230469 L 202.066406 -217.027344 L 186.679688 -200.097656 L 200.789062 -218.105469 C 218.25 -204.421875 231.589844 -189.328125 240.8125 -172.824219 L 220.839844 -161.664062 L 239.144531 -175.390625 C 243.628906 -169.410156 247.5 -163.164062 250.757812 -156.644531 C 254.511719 -149.144531 256.96875 -141.320312 258.128906 -133.179688 L 258.199219 -132.699219 L 258.855469 -126.117188 L 236.09375 -123.84375 L 258.601562 -127.933594 C 259.71875 -121.792969 260.140625 -115.433594 259.867188 -108.859375 C 259.617188 -102.921875 259.019531 -97.347656 258.066406 -92.125 C 253.046875 -61.101562 239.40625 -29.335938 217.144531 3.167969 L 198.269531 -9.761719 L 218.269531 1.347656 C 214.15625 8.75 209.636719 16.761719 204.710938 25.382812 C 198.265625 36.664062 189.832031 46.210938 179.410156 54.019531 C 165.265625 65.070312 150.84375 74.382812 136.148438 81.953125 L 125.671875 61.617188 L 138.792969 80.359375 C 133.28125 84.214844 127.671875 87.285156 121.96875 89.566406 L 121.34375 89.816406 L 102.53125 96.089844 L 93.441406 97.601562 L 84.25 99.136719 L 65.5625 99.136719 L 58.859375 92.433594 C 63.125 96.699219 68.261719 98.828125 74.273438 98.828125 C 77.570312 98.828125 80.625 98.125 83.4375 96.71875 C 81.128906 97.875 78.347656 98.859375 75.09375 99.671875 L 69.546875 77.476562 L 76.121094 99.390625 L 65.9375 102.445312 L 61.691406 102.117188 C 50.035156 101.222656 39.105469 99.636719 28.894531 97.371094 C 17.394531 94.8125 7.148438 90.894531 -1.839844 85.605469 L 9.761719 65.886719 L 3.742188 87.957031 C -4.640625 85.671875 -11.484375 81.875 -16.785156 76.574219 L -0.609375 60.394531 L -12.734375 79.796875 C -21.652344 74.222656 -29.40625 67.042969 -35.992188 58.261719 C -43.105469 48.777344 -47.78125 37.324219 -50.019531 23.894531 L -50.109375 23.351562 L -52.65625 1.667969 C -53.207031 -3.820312 -53.214844 -9.609375 -52.683594 -15.707031 C -52.183594 -21.484375 -50.992188 -28.367188 -49.113281 -36.351562 L -48.875 -37.363281 L -48.546875 -38.347656 C -43.710938 -52.851562 -35.085938 -64.492188 -22.667969 -73.277344 C -12.257812 -80.640625 -0.652344 -86.203125 12.152344 -89.96875 C 24.292969 -93.539062 35.757812 -95.570312 46.546875 -96.0625 L 47.066406 -96.085938 L 53.683594 -96.085938 C 63.394531 -96.085938 71.675781 -95.742188 78.535156 -95.054688 C 83.878906 -94.519531 88 -94.253906 90.898438 -94.253906 C 91.128906 -94.253906 91.304688 -94.257812 91.433594 -94.265625 C 91.375 -94.261719 91.269531 -94.25 91.113281 -94.230469 C 89.332031 -94.007812 87.476562 -93.414062 85.546875 -92.449219 C 84.371094 -91.859375 83.410156 -91.253906 82.660156 -90.628906 C 82.738281 -90.695312 82.9375 -90.890625 83.261719 -91.214844 C 83.007812 -90.960938 82.664062 -90.507812 82.234375 -89.863281 C 80.078125 -86.628906 79.003906 -82.910156 79.003906 -78.699219 L 79.003906 -80.324219 L 79.234375 -81.933594 C 78.796875 -78.890625 79.109375 -75.902344 80.164062 -72.96875 C 81.089844 -70.398438 82.480469 -68.183594 84.332031 -66.332031 C 85.757812 -64.90625 86.960938 -64.03125 87.933594 -63.703125 C 87.460938 -63.863281 87.152344 -63.957031 87.003906 -63.992188 C 87.722656 -63.832031 88.613281 -63.75 89.679688 -63.75 L 66.800781 -63.75 L 66.800781 -86.628906 C 66.800781 -85.519531 66.894531 -84.535156 67.082031 -83.664062 L 67.058594 -83.664062 C 66.71875 -84.691406 66.113281 -86.144531 65.246094 -88.023438 C 64.257812 -90.160156 62.152344 -92.566406 58.925781 -95.238281 C 58.496094 -95.59375 57.644531 -95.945312 56.371094 -96.296875 C 53.9375 -96.96875 50.808594 -97.304688 46.972656 -97.304688 C 29.605469 -97.304688 13.589844 -90.125 -1.078125 -75.769531 L -17.082031 -92.117188 L 0.136719 -77.054688 C -18.867188 -55.335938 -28.367188 -30.261719 -28.367188 -1.832031 C -28.367188 10.105469 -26.164062 23.207031 -21.757812 37.484375 C -17.757812 50.453125 -10.117188 62.742188 1.15625 74.347656 L -15.25 90.289062 L -0.269531 73 L 9.058594 81.085938 C 17.21875 88.304688 26.476562 93.5625 36.828125 96.855469 C 47.996094 100.410156 59.308594 102.183594 70.765625 102.183594 L 74.492188 102.183594 L 76.359375 102.496094 C 78.238281 102.808594 80.011719 103.042969 81.683594 103.195312 C 83.230469 103.335938 84.472656 103.40625 85.410156 103.40625 C 96.828125 103.40625 106.117188 103.039062 113.273438 102.304688 C 120.023438 101.613281 126.691406 100.398438 133.269531 98.667969 C 140.367188 96.800781 149.300781 93.945312 160.070312 90.097656 L 167.765625 111.640625 L 156.417969 91.777344 C 160.183594 89.625 164.082031 87.742188 168.117188 86.128906 C 170.183594 85.300781 172.179688 84.339844 174.109375 83.238281 C 181.113281 79.234375 187.773438 76.179688 194.085938 74.074219 C 196.5625 73.25 201.0625 70.351562 207.585938 65.378906 L 207.953125 65.101562 L 208.332031 64.835938 C 216.117188 59.386719 224.617188 53.035156 233.839844 45.777344 C 241.882812 39.441406 247.964844 33.582031 252.082031 28.195312 L 253.375 26.511719 L 254.953125 25.089844 C 258.261719 22.109375 261.316406 18.976562 264.109375 15.6875 C 266.992188 12.296875 269 9.753906 270.132812 8.050781 L 270.976562 6.789062 L 271.976562 5.648438 C 284.132812 -8.195312 292.414062 -24.269531 296.820312 -42.566406 L 297.046875 -43.519531 L 302.847656 -60.917969 L 324.550781 -53.683594 L 302.414062 -59.460938 C 304.363281 -66.921875 305.335938 -73.128906 305.335938 -78.085938 L 328.210938 -78.085938 L 315.523438 -59.050781 C 309.65625 -62.964844 306.027344 -68.398438 304.636719 -75.355469 C 303.777344 -79.648438 303.972656 -84.089844 305.226562 -88.683594 C 304.957031 -87.695312 304.894531 -86.773438 305.035156 -85.917969 L 304.722656 -87.785156 L 304.722656 -95.6875 L 307.140625 -100.519531 C 305.734375 -97.707031 305.03125 -94.675781 305.03125 -91.433594 C 305.03125 -87.171875 306.207031 -83.269531 308.566406 -79.734375 C 304.65625 -85.601562 303.523438 -92.648438 305.167969 -100.875 L 327.601562 -96.390625 L 307.140625 -86.160156 C 305.121094 -90.191406 304.113281 -94.414062 304.113281 -98.828125 Z M 304.113281 -98.828125 "/></g></g></g><g fill="#0ec258" fill-opacity="1"><g transform="translate(80.492898, 557.762147)"><g><path d="M 327 -98.828125 C 327 -98.015625 327.203125 -97.203125 327.609375 -96.390625 C 327.203125 -94.359375 327.203125 -93.035156 327.609375 -92.421875 C 328.015625 -91.816406 328.015625 -91.109375 327.609375 -90.296875 L 327.609375 -89.671875 C 328.015625 -87.234375 327.910156 -84.894531 327.296875 -82.65625 C 326.691406 -80.425781 327 -78.90625 328.21875 -78.09375 C 328.21875 -71.175781 326.992188 -63.039062 324.546875 -53.6875 L 319.0625 -37.21875 C 313.769531 -15.25 303.804688 4.066406 289.171875 20.734375 C 287.546875 23.179688 285.003906 26.4375 281.546875 30.5 C 278.085938 34.570312 274.320312 38.4375 270.25 42.09375 C 264.96875 49.007812 257.546875 56.226562 247.984375 63.75 C 238.429688 71.269531 229.585938 77.878906 221.453125 83.578125 C 212.910156 90.085938 206.195312 94.15625 201.3125 95.78125 C 196.4375 97.40625 191.148438 99.84375 185.453125 103.09375 C 182.609375 104.726562 179.660156 106.15625 176.609375 107.375 C 173.554688 108.59375 170.609375 110.015625 167.765625 111.640625 C 156.378906 115.703125 146.820312 118.75 139.09375 120.78125 C 131.363281 122.820312 123.53125 124.25 115.59375 125.0625 C 107.664062 125.875 97.601562 126.28125 85.40625 126.28125 C 83.78125 126.28125 81.847656 126.175781 79.609375 125.96875 C 77.378906 125.769531 75.039062 125.46875 72.59375 125.0625 L 70.765625 125.0625 C 56.941406 125.0625 43.316406 122.925781 29.890625 118.65625 C 16.472656 114.382812 4.476562 107.570312 -6.09375 98.21875 L -15.25 90.296875 C -29.082031 76.054688 -38.539062 60.695312 -43.625 44.21875 C -48.707031 27.75 -51.25 12.398438 -51.25 -1.828125 C -51.25 -35.992188 -39.859375 -66.09375 -17.078125 -92.125 C 2.035156 -110.832031 23.382812 -120.1875 46.96875 -120.1875 C 58.769531 -120.1875 67.617188 -117.742188 73.515625 -112.859375 C 79.410156 -107.984375 83.578125 -102.898438 86.015625 -97.609375 C 88.453125 -92.316406 89.671875 -88.65625 89.671875 -86.625 C 90.898438 -86.625 92.734375 -86.21875 95.171875 -85.40625 C 100.046875 -83.78125 102.28125 -81.546875 101.875 -78.703125 C 101.875 -77.890625 101.0625 -76.664062 99.4375 -75.03125 C 97.8125 -73.40625 96.59375 -72.390625 95.78125 -71.984375 C 94.96875 -71.578125 93.34375 -71.375 90.90625 -71.375 C 87.238281 -71.375 82.351562 -71.675781 76.25 -72.28125 C 70.15625 -72.894531 62.632812 -73.203125 53.6875 -73.203125 L 47.578125 -73.203125 C 38.628906 -72.796875 28.96875 -71.066406 18.59375 -68.015625 C 8.226562 -64.972656 -1.117188 -60.5 -9.453125 -54.59375 C -17.796875 -48.695312 -23.59375 -40.867188 -26.84375 -31.109375 C -28.46875 -24.191406 -29.484375 -18.394531 -29.890625 -13.71875 C -30.296875 -9.039062 -30.296875 -4.671875 -29.890625 -0.609375 L -27.453125 20.125 C -25.828125 29.894531 -22.570312 38.03125 -17.6875 44.53125 C -12.8125 51.039062 -7.117188 56.328125 -0.609375 60.390625 C 1.828125 62.835938 5.285156 64.671875 9.765625 65.890625 C 16.671875 69.953125 24.695312 73 33.84375 75.03125 C 43 77.070312 52.867188 78.5 63.453125 79.3125 L 69.546875 77.484375 C 71.171875 77.078125 72.390625 76.664062 73.203125 76.25 C 74.015625 75.84375 74.625 75.847656 75.03125 76.265625 L 82.359375 76.265625 C 84.796875 75.847656 87.234375 75.4375 89.671875 75.03125 C 92.117188 74.625 94.5625 74.21875 97 73.8125 L 113.46875 68.328125 C 117.539062 66.703125 121.609375 64.460938 125.671875 61.609375 C 139.097656 54.703125 152.316406 46.164062 165.328125 36 C 173.460938 29.894531 179.96875 22.570312 184.84375 14.03125 C 189.726562 5.488281 194.203125 -2.441406 198.265625 -9.765625 C 218.609375 -39.453125 231.015625 -68.125 235.484375 -95.78125 C 236.296875 -100.25 236.800781 -104.921875 237 -109.796875 C 237.207031 -114.679688 236.90625 -119.363281 236.09375 -123.84375 L 235.484375 -129.9375 C 234.671875 -135.632812 232.941406 -141.125 230.296875 -146.40625 C 227.648438 -151.695312 224.5 -156.785156 220.84375 -161.671875 C 213.113281 -175.492188 201.722656 -188.300781 186.671875 -200.09375 L 173.25 -212.296875 C 169.1875 -216.773438 164.914062 -220.742188 160.4375 -224.203125 C 155.96875 -227.660156 151.09375 -231.21875 145.8125 -234.875 C 140.519531 -238.125 136.039062 -240.96875 132.375 -243.40625 C 128.71875 -245.851562 124.046875 -248.09375 118.359375 -250.125 C 112.660156 -252.5625 105.945312 -255.203125 98.21875 -258.046875 C 90.488281 -260.898438 83.78125 -263.75 78.09375 -266.59375 L 68.328125 -269.03125 C 65.484375 -271.882812 61.210938 -276.5625 55.515625 -283.0625 C 49.816406 -289.570312 46.15625 -294.660156 44.53125 -298.328125 C 44.9375 -299.140625 45.035156 -299.75 44.828125 -300.15625 C 44.628906 -300.5625 44.734375 -300.96875 45.140625 -301.375 C 44.734375 -303.40625 44.222656 -307.265625 43.609375 -312.953125 C 43.003906 -318.648438 42.90625 -321.703125 43.3125 -322.109375 C 42.09375 -320.890625 41.484375 -320.28125 41.484375 -320.28125 C 39.046875 -321.5 35.691406 -325.867188 31.421875 -333.390625 C 27.148438 -340.921875 24 -347.941406 21.96875 -354.453125 C 21.96875 -354.859375 21.457031 -356.484375 20.4375 -359.328125 C 19.414062 -362.171875 18.5 -365.015625 17.6875 -367.859375 C 16.875 -370.710938 16.46875 -372.140625 16.46875 -372.140625 L 16.46875 -373.359375 C 16.875 -375.390625 17.582031 -376.300781 18.59375 -376.09375 C 19.613281 -375.894531 20.328125 -376.203125 20.734375 -377.015625 L 20.734375 -380.0625 C 21.148438 -381.695312 21.148438 -382.71875 20.734375 -383.125 C 20.734375 -383.9375 20.734375 -385.050781 20.734375 -386.46875 C 20.734375 -387.894531 20.941406 -389.421875 21.359375 -391.046875 C 20.941406 -392.671875 20.835938 -394.296875 21.046875 -395.921875 C 21.253906 -397.554688 21.5625 -399.1875 21.96875 -400.8125 C 22.375 -402.4375 22.984375 -404.570312 23.796875 -407.21875 C 24.609375 -409.863281 25.625 -411.59375 26.84375 -412.40625 C 30.09375 -421.757812 36.492188 -430.707031 46.046875 -439.25 C 55.609375 -447.789062 66.1875 -455.414062 77.78125 -462.125 C 89.375 -468.832031 99.238281 -474.015625 107.375 -477.671875 L 120.796875 -482.5625 C 132.585938 -487.03125 145.90625 -490.890625 160.75 -494.140625 C 175.59375 -497.398438 189.929688 -499.84375 203.765625 -501.46875 C 205.796875 -504.726562 207.828125 -508.082031 209.859375 -511.53125 C 211.890625 -514.988281 213.3125 -518.347656 214.125 -521.609375 L 218.40625 -526.484375 C 218.8125 -529.328125 221.25 -531.15625 225.71875 -531.96875 C 231.820312 -531.96875 238.941406 -530.75 247.078125 -528.3125 C 255.210938 -525.875 262.9375 -522.722656 270.25 -518.859375 C 277.570312 -514.992188 282.863281 -510.617188 286.125 -505.734375 C 286.9375 -504.515625 288.5625 -502.378906 291 -499.328125 C 293.4375 -496.285156 294.859375 -494.15625 295.265625 -492.9375 L 296.484375 -490.484375 C 297.296875 -490.484375 297.703125 -489.671875 297.703125 -488.046875 C 297.703125 -488.046875 298.3125 -486.925781 299.53125 -484.6875 C 300.757812 -482.457031 301.78125 -479.101562 302.59375 -474.625 C 304.21875 -471.78125 305.4375 -468.117188 306.25 -463.640625 C 307.0625 -459.171875 307.0625 -454.695312 306.25 -450.21875 C 305.84375 -448.59375 305.332031 -446.660156 304.71875 -444.421875 C 304.113281 -442.191406 303.609375 -440.265625 303.203125 -438.640625 C 302.796875 -435.785156 302.390625 -434.359375 301.984375 -434.359375 C 301.578125 -434.359375 301.171875 -433.75 300.765625 -432.53125 C 301.171875 -430.90625 301.578125 -429.785156 301.984375 -429.171875 C 302.390625 -428.566406 302.796875 -427.65625 303.203125 -426.4375 L 294.65625 -407.515625 C 294.25 -406.703125 293.332031 -405.484375 291.90625 -403.859375 C 290.488281 -402.234375 289.578125 -400.609375 289.171875 -398.984375 L 287.953125 -394.703125 C 287.140625 -392.265625 286.125 -391.046875 284.90625 -391.046875 C 284.5 -390.640625 283.476562 -391.25 281.84375 -392.875 C 279 -390.84375 275.75 -389.828125 272.09375 -389.828125 C 269.238281 -391.046875 264.96875 -392.265625 259.28125 -393.484375 C 256.425781 -391.859375 254.1875 -390.84375 252.5625 -390.4375 C 250.9375 -390.03125 249.3125 -389.828125 247.6875 -389.828125 C 246.46875 -389.828125 245.144531 -389.925781 243.71875 -390.125 C 242.289062 -390.332031 240.5625 -390.640625 238.53125 -391.046875 C 231.613281 -392.265625 226.425781 -395.515625 222.96875 -400.796875 C 219.519531 -406.085938 218.203125 -411.378906 219.015625 -416.671875 C 220.234375 -420.328125 221.453125 -422.15625 222.671875 -422.15625 C 223.484375 -422.15625 224.394531 -421.953125 225.40625 -421.546875 C 226.425781 -421.140625 227.753906 -420.734375 229.390625 -420.328125 C 232.234375 -419.921875 233.550781 -418.09375 233.34375 -414.84375 C 233.144531 -411.59375 233.046875 -408.539062 233.046875 -405.6875 C 233.046875 -402.84375 234.671875 -401.015625 237.921875 -400.203125 C 238.734375 -400.203125 239.546875 -400.097656 240.359375 -399.890625 C 241.171875 -399.691406 241.78125 -399.59375 242.1875 -399.59375 C 247.476562 -399.59375 252.359375 -401.625 256.828125 -405.6875 C 261.304688 -409.757812 264.359375 -415.660156 265.984375 -423.390625 C 265.578125 -429.078125 264.15625 -434.460938 261.71875 -439.546875 C 259.28125 -444.628906 256.835938 -447.78125 254.390625 -449 C 252.359375 -449 251.34375 -449 251.34375 -449 C 249.71875 -450.632812 247.078125 -451.65625 243.421875 -452.0625 C 241.785156 -452.46875 239.140625 -452.671875 235.484375 -452.671875 L 230.609375 -452.671875 L 223.890625 -453.28125 C 200.304688 -452.875 180.582031 -449.007812 164.71875 -441.6875 C 148.851562 -434.363281 136.242188 -426.226562 126.890625 -417.28125 C 122.828125 -415.25 116.828125 -411.585938 108.890625 -406.296875 C 100.960938 -401.015625 93.644531 -395.320312 86.9375 -389.21875 C 80.226562 -383.113281 76.257812 -377.625 75.03125 -372.75 C 75.03125 -371.53125 76.253906 -370.109375 78.703125 -368.484375 C 78.703125 -367.253906 78.90625 -366.234375 79.3125 -365.421875 C 78.90625 -362.171875 81.445312 -358.304688 86.9375 -353.828125 C 92.425781 -349.359375 99.441406 -344.890625 107.984375 -340.421875 C 112.453125 -335.128906 118.144531 -330.753906 125.0625 -327.296875 C 131.976562 -323.835938 137.671875 -321.09375 142.140625 -319.0625 L 154.953125 -312.96875 C 158.210938 -309.707031 162.078125 -306.550781 166.546875 -303.5 C 171.015625 -300.457031 174.269531 -297.914062 176.3125 -295.875 C 175.90625 -295.46875 175.703125 -295.0625 175.703125 -294.65625 C 175.703125 -294.65625 176.207031 -293.738281 177.21875 -291.90625 C 178.238281 -290.082031 180.78125 -287.75 184.84375 -284.90625 L 195.828125 -278.796875 C 202.335938 -275.140625 210.675781 -270.664062 220.84375 -265.375 C 231.007812 -260.09375 240.972656 -254.5 250.734375 -248.59375 C 260.492188 -242.695312 268.019531 -236.90625 273.3125 -231.21875 L 285.515625 -215.96875 C 287.546875 -213.113281 289.472656 -210.46875 291.296875 -208.03125 C 293.128906 -205.59375 294.25 -203.359375 294.65625 -201.328125 C 296.6875 -196.441406 300.144531 -190.132812 305.03125 -182.40625 C 309.914062 -174.675781 313.78125 -167.96875 316.625 -162.28125 L 323.9375 -147.640625 L 327 -111.640625 L 328.828125 -100.046875 C 328.828125 -99.640625 328.519531 -99.4375 327.90625 -99.4375 C 327.300781 -99.4375 327 -99.234375 327 -98.828125 Z M 327 -98.828125 "/></g></g></g></g></g></svg>